SeanSans-NarrowExtralight.ufo
<glyph name="exclam" format="1">
  <advance width="242"/>
  <unicode hex="0021"/>
  <outline>
    <contour>
      <point x="141" y="229" type="line"/>
      <point x="146" y="722" type="line"/>
      <point x="95" y="722" type="line"/>
      <point x="100" y="229" type="line"/>
    </contour>
    <contour>
      <point x="148" y="19" type="curve"/>
      <point x="148" y="36"/>
      <point x="137" y="45"/>
      <point x="121" y="45" type="curve"/>
      <point x="105" y="45"/>
      <point x="95" y="35"/>
      <point x="95" y="19" type="curve"/>
      <point x="143" y="19"/>
      <point x="100" y="19"/>
      <point x="148" y="19" type="curve"/>
      <point x="148" y="3"/>
      <point x="137" y="-6"/>
      <point x="121" y="-6" type="curve"/>
      <point x="104" y="-6"/>
      <point x="95" y="3"/>
      <point x="95" y="19" type="curve"/>
      <point x="143" y="19"/>
      <point x="100" y="19"/>
    </contour>
  </outline>
</glyph>
<glyph name="quotedbl" format="1">
  <advance width="355"/>
  <unicode hex="0022"/>
  <outline>
    <contour>
      <point x="116" y="613" type="line"/>
      <point x="120" y="806" type="line"/>
      <point x="72" y="806" type="line"/>
      <point x="76" y="613" type="line"/>
    </contour>
    <contour>
      <point x="280" y="613" type="line"/>
      <point x="284" y="806" type="line"/>
      <point x="236" y="806" type="line"/>
      <point x="240" y="613" type="line"/>
    </contour>
  </outline>
</glyph>
<glyph name="numbersign" format="1">
  <advance width="602"/>
  <unicode hex="0023"/>
  <outline>
    <contour>
      <point x="45" y="243" type="curve"/>
      <point x="484" y="243" type="curve"/>
      <point x="494" y="278" type="curve"/>
      <point x="55" y="278" type="curve"/>
    </contour>
    <contour>
      <point x="107" y="483" type="curve"/>
      <point x="547" y="483" type="curve"/>
      <point x="557" y="517" type="curve"/>
      <point x="117" y="517" type="curve"/>
    </contour>
    <contour>
      <point x="350" y="39" type="curve"/>
      <point x="539" y="722" type="curve"/>
      <point x="497" y="722" type="curve"/>
      <point x="307" y="39" type="curve"/>
    </contour>
    <contour>
      <point x="117" y="46" type="curve"/>
      <point x="304" y="722" type="curve"/>
      <point x="262" y="722" type="curve"/>
      <point x="77" y="46" type="curve"/>
    </contour>
  </outline>
</glyph>
<glyph name="dollar" format="1">
  <advance width="494"/>
  <unicode hex="0024"/>
  <outline>
    <contour>
      <point x="251" y="-43" type="curve"/>
      <point x="251" y="-9"/>
      <point x="251" y="31"/>
      <point x="251" y="65" type="curve"/>
      <point x="209" y="65"/>
      <point x="251" y="65"/>
      <point x="209" y="65" type="curve"/>
      <point x="209" y="31"/>
      <point x="209" y="-9"/>
      <point x="209" y="-43" type="curve"/>
      <point x="251" y="-43"/>
      <point x="209" y="-43"/>
    </contour>
    <contour>
      <point x="261" y="665" type="curve"/>
      <point x="261" y="699"/>
      <point x="261" y="740"/>
      <point x="261" y="773" type="curve"/>
      <point x="219" y="773"/>
      <point x="261" y="773"/>
      <point x="219" y="773" type="curve"/>
      <point x="219" y="740"/>
      <point x="219" y="699"/>
      <point x="219" y="665" type="curve"/>
      <point x="261" y="665"/>
      <point x="219" y="665"/>
    </contour>
    <contour>
      <point x="53" y="98" type="curve"/>
      <point x="100" y="71"/>
      <point x="159" y="47"/>
      <point x="228" y="47" type="curve"/>
      <point x="348" y="47"/>
      <point x="439" y="101"/>
      <point x="439" y="201" type="curve"/>
      <point x="439" y="296"/>
      <point x="352" y="343"/>
      <point x="255" y="391" type="curve"/>
      <point x="174" y="430"/>
      <point x="112" y="463"/>
      <point x="112" y="540" type="curve"/>
      <point x="112" y="607"/>
      <point x="165" y="650"/>
      <point x="244" y="650" type="curve"/>
      <point x="305" y="650"/>
      <point x="347" y="632"/>
      <point x="399" y="602" type="curve"/>
      <point x="419" y="632"/>
      <point x="399" y="602"/>
      <point x="419" y="632" type="curve"/>
      <point x="362" y="665"/>
      <point x="314" y="684"/>
      <point x="246" y="684" type="curve"/>
      <point x="141" y="684"/>
      <point x="69" y="630"/>
      <point x="69" y="540" type="curve"/>
      <point x="69" y="448"/>
      <point x="137" y="404"/>
      <point x="230" y="359" type="curve"/>
      <point x="316" y="319"/>
      <point x="397" y="280"/>
      <point x="397" y="200" type="curve"/>
      <point x="397" y="123"/>
      <point x="326" y="81"/>
      <point x="232" y="81" type="curve"/>
      <point x="170" y="81"/>
      <point x="118" y="106"/>
      <point x="75" y="129" type="curve"/>
      <point x="53" y="98"/>
      <point x="75" y="129"/>
    </contour>
  </outline>
</glyph>
<glyph name="percent" format="1">
  <advance width="910"/>
  <unicode hex="0025"/>
  <outline>
    <contour>
      <point x="299" y="-84" type="line"/>
      <point x="673" y="750" type="line"/>
      <point x="630" y="750" type="line"/>
      <point x="257" y="-84" type="line"/>
    </contour>
    <contour>
      <point x="79" y="546" type="curve"/>
      <point x="79" y="645"/>
      <point x="108" y="722"/>
      <point x="198" y="722" type="curve"/>
      <point x="289" y="723"/>
      <point x="318" y="646"/>
      <point x="318" y="547" type="curve"/>
      <point x="318" y="447"/>
      <point x="291" y="369"/>
      <point x="201" y="369" type="curve"/>
      <point x="109" y="369"/>
      <point x="79" y="445"/>
      <point x="79" y="546" type="curve"/>
      <point x="64" y="546"/>
      <point x="55" y="546"/>
      <point x="40" y="546" type="curve"/>
      <point x="40" y="425"/>
      <point x="87" y="336"/>
      <point x="199" y="336" type="curve"/>
      <point x="312" y="336"/>
      <point x="358" y="426"/>
      <point x="358" y="548" type="curve"/>
      <point x="358" y="668"/>
      <point x="312" y="756"/>
      <point x="200" y="756" type="curve"/>
      <point x="88" y="756"/>
      <point x="40" y="667"/>
      <point x="40" y="546" type="curve"/>
      <point x="55" y="546"/>
      <point x="64" y="546"/>
    </contour>
    <contour>
      <point x="591" y="120" type="curve"/>
      <point x="591" y="220"/>
      <point x="620" y="296"/>
      <point x="710" y="296" type="curve"/>
      <point x="801" y="297"/>
      <point x="830" y="221"/>
      <point x="830" y="121" type="curve"/>
      <point x="830" y="21"/>
      <point x="803" y="-57"/>
      <point x="713" y="-57" type="curve"/>
      <point x="621" y="-57"/>
      <point x="591" y="20"/>
      <point x="591" y="120" type="curve"/>
      <point x="576" y="120"/>
      <point x="567" y="120"/>
      <point x="552" y="120" type="curve"/>
      <point x="552" y="-1"/>
      <point x="599" y="-90"/>
      <point x="711" y="-90" type="curve"/>
      <point x="824" y="-90"/>
      <point x="870" y="0"/>
      <point x="870" y="123" type="curve"/>
      <point x="870" y="242"/>
      <point x="824" y="330"/>
      <point x="712" y="330" type="curve"/>
      <point x="600" y="330"/>
      <point x="552" y="241"/>
      <point x="552" y="120" type="curve"/>
      <point x="567" y="120"/>
      <point x="576" y="120"/>
    </contour>
  </outline>
</glyph>
<glyph name="ampersand" format="1">
  <advance width="600"/>
  <unicode hex="0026"/>
  <outline>
    <contour>
      <point x="585" y="14" type="line"/>
      <point x="487" y="126"/>
      <point x="392" y="240"/>
      <point x="293" y="353" type="curve"/>
      <point x="237" y="423"/>
      <point x="169" y="480"/>
      <point x="169" y="573" type="curve"/>
      <point x="169" y="639"/>
      <point x="202" y="691"/>
      <point x="262" y="691" type="curve"/>
      <point x="327" y="691"/>
      <point x="364" y="644"/>
      <point x="364" y="575" type="curve"/>
      <point x="364" y="487"/>
      <point x="303" y="441"/>
      <point x="228" y="393" type="curve"/>
      <point x="141" y="335"/>
      <point x="68" y="284"/>
      <point x="68" y="181" type="curve"/>
      <point x="68" y="68"/>
      <point x="143" y="-5"/>
      <point x="256" y="-5" type="curve"/>
      <point x="431" y="-5"/>
      <point x="505" y="139"/>
      <point x="555" y="317" type="curve"/>
      <point x="519" y="326"/>
      <point x="555" y="317"/>
      <point x="519" y="326" type="curve"/>
      <point x="474" y="165"/>
      <point x="409" y="31"/>
      <point x="258" y="31" type="curve"/>
      <point x="169" y="31"/>
      <point x="111" y="89"/>
      <point x="111" y="181" type="curve"/>
      <point x="111" y="270"/>
      <point x="174" y="314"/>
      <point x="249" y="364" type="curve"/>
      <point x="334" y="421"/>
      <point x="406" y="474"/>
      <point x="407" y="575" type="curve"/>
      <point x="407" y="666"/>
      <point x="352" y="727"/>
      <point x="264" y="727" type="curve"/>
      <point x="177" y="727"/>
      <point x="128" y="662"/>
      <point x="128" y="573" type="curve"/>
      <point x="128" y="471"/>
      <point x="199" y="408"/>
      <point x="263" y="332" type="curve"/>
      <point x="359" y="221"/>
      <point x="460" y="101"/>
      <point x="556" y="-9" type="curve"/>
    </contour>
  </outline>
</glyph>
<glyph name="quotesingle" format="1">
  <advance width="192"/>
  <unicode hex="0027"/>
  <outline>
    <contour>
      <point x="116" y="613" type="line"/>
      <point x="120" y="806" type="line"/>
      <point x="72" y="806" type="line"/>
      <point x="76" y="613" type="line"/>
    </contour>
  </outline>
</glyph>
<glyph name="parenleft" format="1">
  <advance width="307"/>
  <unicode hex="0028"/>
  <outline>
    <contour>
      <point x="304" y="-232" type="curve"/>
      <point x="155" y="-60"/>
      <point x="101" y="98"/>
      <point x="101" y="326" type="curve"/>
      <point x="101" y="554"/>
      <point x="157" y="710"/>
      <point x="303" y="885" type="curve"/>
      <point x="277" y="907"/>
      <point x="303" y="885"/>
      <point x="277" y="907" type="curve"/>
      <point x="122" y="728"/>
      <point x="58" y="565"/>
      <point x="58" y="326" type="curve"/>
      <point x="58" y="86"/>
      <point x="123" y="-76"/>
      <point x="278" y="-256" type="curve"/>
      <point x="304" y="-232"/>
      <point x="278" y="-256"/>
    </contour>
  </outline>
</glyph>
<glyph name="parenright" format="1">
  <advance width="318"/>
  <unicode hex="0029"/>
  <outline>
    <contour>
      <point x="28" y="-271" type="curve"/>
      <point x="186" y="-83"/>
      <point x="260" y="79"/>
      <point x="260" y="327" type="curve"/>
      <point x="260" y="569"/>
      <point x="193" y="730"/>
      <point x="32" y="908" type="curve"/>
      <point x="5" y="884"/>
      <point x="32" y="908"/>
      <point x="5" y="884" type="curve"/>
      <point x="157" y="711"/>
      <point x="217" y="555"/>
      <point x="217" y="326" type="curve"/>
      <point x="217" y="90"/>
      <point x="148" y="-66"/>
      <point x="1" y="-248" type="curve"/>
      <point x="28" y="-271"/>
      <point x="1" y="-248"/>
    </contour>
  </outline>
</glyph>
<glyph name="asterisk" format="1">
  <advance width="655"/>
  <unicode hex="002A"/>
  <outline>
    <contour>
      <point x="343" y="599" type="line"/>
      <point x="347" y="792" type="line"/>
      <point x="305" y="792" type="line"/>
      <point x="309" y="599" type="line"/>
    </contour>
    <contour>
      <point x="396" y="538" type="line"/>
      <point x="580" y="596" type="line"/>
      <point x="567" y="635" type="line"/>
      <point x="385" y="571" type="line"/>
    </contour>
    <contour>
      <point x="355" y="470" type="line"/>
      <point x="468" y="313" type="line"/>
      <point x="500" y="338" type="line"/>
      <point x="382" y="491" type="line"/>
    </contour>
    <contour>
      <point x="277" y="489" type="line"/>
      <point x="159" y="335" type="line"/>
      <point x="192" y="311" type="line"/>
      <point x="304" y="468" type="line"/>
    </contour>
    <contour>
      <point x="270" y="567" type="line"/>
      <point x="88" y="631" type="line"/>
      <point x="74" y="592" type="line"/>
      <point x="259" y="535" type="line"/>
    </contour>
  </outline>
</glyph>
<glyph name="plus" format="1">
  <advance width="615"/>
  <unicode hex="002B"/>
  <outline>
    <contour>
      <point x="46" y="291" type="curve"/>
      <point x="569" y="291" type="line"/>
      <point x="569" y="329"/>
      <point x="569" y="291"/>
      <point x="569" y="329" type="curve"/>
      <point x="46" y="329" type="line"/>
      <point x="46" y="291"/>
      <point x="46" y="329"/>
    </contour>
    <contour>
      <point x="327" y="22" type="curve"/>
      <point x="327" y="587" type="line"/>
      <point x="285" y="587"/>
      <point x="328" y="587"/>
      <point x="286" y="587" type="curve"/>
      <point x="286" y="22" type="line"/>
      <point x="328" y="22"/>
      <point x="285" y="22"/>
    </contour>
  </outline>
</glyph>
<glyph name="hyphen" format="1">
  <advance width="423"/>
  <unicode hex="002D"/>
  <outline>
    <contour>
      <point x="84" y="254" type="curve"/>
      <point x="169" y="254"/>
      <point x="254" y="254"/>
      <point x="339" y="254" type="curve"/>
      <point x="339" y="293"/>
      <point x="339" y="254"/>
      <point x="339" y="293" type="curve"/>
      <point x="254" y="293"/>
      <point x="169" y="293"/>
      <point x="84" y="293" type="curve"/>
      <point x="84" y="254"/>
      <point x="84" y="293"/>
    </contour>
  </outline>
</glyph>
<glyph name="period" format="1">
  <advance width="194"/>
  <unicode hex="002E"/>
  <outline>
    <contour>
      <point x="124" y="19" type="curve"/>
      <point x="124" y="36"/>
      <point x="113" y="45"/>
      <point x="97" y="45" type="curve"/>
      <point x="80" y="45"/>
      <point x="70" y="35"/>
      <point x="70" y="19" type="curve"/>
      <point x="119" y="19"/>
      <point x="76" y="19"/>
      <point x="124" y="19" type="curve"/>
      <point x="124" y="3"/>
      <point x="113" y="-6"/>
      <point x="97" y="-6" type="curve"/>
      <point x="80" y="-6"/>
      <point x="70" y="3"/>
      <point x="70" y="19" type="curve"/>
      <point x="119" y="19"/>
      <point x="76" y="19"/>
    </contour>
  </outline>
</glyph>
<glyph name="slash" format="1">
  <advance width="472"/>
  <unicode hex="002F"/>
  <outline>
    <contour>
      <point x="71" y="-59" type="curve"/>
      <point x="195" y="238"/>
      <point x="319" y="537"/>
      <point x="444" y="834" type="curve"/>
      <point x="402" y="834"/>
      <point x="444" y="834"/>
      <point x="402" y="834" type="curve"/>
      <point x="277" y="537"/>
      <point x="153" y="238"/>
      <point x="28" y="-59" type="curve"/>
      <point x="71" y="-59"/>
      <point x="28" y="-59"/>
    </contour>
  </outline>
</glyph>
<glyph name="zero" format="1">
  <advance width="641"/>
  <unicode hex="0030"/>
  <outline>
    <contour>
      <point x="112" y="360" type="curve"/>
      <point x="112" y="546"/>
      <point x="160" y="690"/>
      <point x="320" y="690" type="curve"/>
      <point x="481" y="690"/>
      <point x="529" y="547"/>
      <point x="529" y="363" type="curve"/>
      <point x="529" y="177"/>
      <point x="480" y="32"/>
      <point x="324" y="32" type="curve"/>
      <point x="167" y="32"/>
      <point x="112" y="174"/>
      <point x="112" y="360" type="curve"/>
      <point x="71" y="360"/>
      <point x="111" y="360"/>
      <point x="70" y="360" type="curve"/>
      <point x="70" y="151"/>
      <point x="134" y="-5"/>
      <point x="322" y="-5" type="curve"/>
      <point x="510" y="-5"/>
      <point x="571" y="153"/>
      <point x="571" y="363" type="curve"/>
      <point x="571" y="571"/>
      <point x="510" y="727"/>
      <point x="324" y="727" type="curve"/>
      <point x="135" y="727"/>
      <point x="70" y="571"/>
      <point x="70" y="360" type="curve"/>
      <point x="111" y="360"/>
      <point x="71" y="360"/>
    </contour>
  </outline>
</glyph>
<glyph name="one" format="1">
  <advance width="337"/>
  <unicode hex="0031"/>
  <outline>
    <contour>
      <point x="50" y="528" type="curve"/>
      <point x="235" y="702"/>
      <point x="50" y="528"/>
      <point x="235" y="702" type="curve"/>
      <point x="201" y="722"/>
      <point x="235" y="702"/>
      <point x="201" y="722" type="curve"/>
      <point x="25" y="556"/>
      <point x="201" y="722"/>
      <point x="25" y="556" type="curve"/>
      <point x="50" y="528"/>
      <point x="25" y="556"/>
    </contour>
    <contour>
      <point x="242" y="0" type="curve"/>
      <point x="242" y="241"/>
      <point x="242" y="481"/>
      <point x="242" y="722" type="curve"/>
      <point x="201" y="722"/>
      <point x="242" y="722"/>
      <point x="201" y="722" type="curve"/>
      <point x="201" y="481"/>
      <point x="201" y="241"/>
      <point x="201" y="0" type="curve"/>
      <point x="242" y="0"/>
      <point x="201" y="0"/>
    </contour>
  </outline>
</glyph>
<glyph name="two" format="1">
  <advance width="498"/>
  <unicode hex="0032"/>
  <outline>
    <contour>
      <point x="44" y="0" type="curve"/>
      <point x="191" y="0"/>
      <point x="310" y="0"/>
      <point x="440" y="0" type="curve"/>
      <point x="440" y="35"/>
      <point x="440" y="0"/>
      <point x="440" y="35" type="curve"/>
      <point x="304" y="35"/>
      <point x="181" y="35"/>
      <point x="45" y="35" type="curve"/>
      <point x="44" y="0"/>
      <point x="45" y="35"/>
    </contour>
    <contour>
      <point x="91" y="556" type="curve"/>
      <point x="130" y="632"/>
      <point x="168" y="690"/>
      <point x="249" y="690" type="curve"/>
      <point x="342" y="690"/>
      <point x="386" y="624"/>
      <point x="386" y="522" type="curve"/>
      <point x="386" y="403"/>
      <point x="305" y="306"/>
      <point x="242" y="244" type="curve"/>
      <point x="176" y="174"/>
      <point x="111" y="105"/>
      <point x="45" y="35" type="curve"/>
      <point x="54" y="0"/>
      <point x="45" y="35"/>
      <point x="54" y="0" type="curve"/>
      <point x="133" y="71"/>
      <point x="201" y="144"/>
      <point x="269" y="217" type="curve"/>
      <point x="341" y="287"/>
      <point x="427" y="389"/>
      <point x="427" y="524" type="curve"/>
      <point x="427" y="648"/>
      <point x="369" y="727"/>
      <point x="251" y="727" type="curve"/>
      <point x="155" y="727"/>
      <point x="98" y="663"/>
      <point x="58" y="574" type="curve"/>
      <point x="91" y="556"/>
      <point x="58" y="574"/>
    </contour>
  </outline>
</glyph>
<glyph name="three" format="1">
  <advance width="495"/>
  <unicode hex="0033"/>
  <outline>
    <contour>
      <point x="55" y="56" type="curve"/>
      <point x="108" y="19"/>
      <point x="153" y="-5"/>
      <point x="220" y="-5" type="curve"/>
      <point x="351" y="-5"/>
      <point x="428" y="64"/>
      <point x="428" y="198" type="curve"/>
      <point x="428" y="328"/>
      <point x="309" y="393"/>
      <point x="144" y="393" type="curve"/>
      <point x="144" y="371"/>
      <point x="144" y="386"/>
      <point x="144" y="363" type="curve"/>
      <point x="277" y="363"/>
      <point x="386" y="307"/>
      <point x="386" y="196" type="curve"/>
      <point x="386" y="87"/>
      <point x="315" y="33"/>
      <point x="221" y="33" type="curve"/>
      <point x="165" y="33"/>
      <point x="127" y="52"/>
      <point x="77" y="84" type="curve"/>
      <point x="55" y="56"/>
      <point x="77" y="84"/>
    </contour>
    <contour>
      <point x="88" y="617" type="curve"/>
      <point x="114" y="652"/>
      <point x="160" y="689"/>
      <point x="218" y="689" type="curve"/>
      <point x="307" y="689"/>
      <point x="358" y="639"/>
      <point x="358" y="548" type="curve"/>
      <point x="358" y="451"/>
      <point x="262" y="399"/>
      <point x="144" y="399" type="curve"/>
      <point x="144" y="377"/>
      <point x="144" y="392"/>
      <point x="144" y="369" type="curve"/>
      <point x="289" y="369"/>
      <point x="399" y="429"/>
      <point x="399" y="549" type="curve"/>
      <point x="399" y="662"/>
      <point x="333" y="727"/>
      <point x="221" y="727" type="curve"/>
      <point x="150" y="727"/>
      <point x="92" y="683"/>
      <point x="61" y="639" type="curve"/>
      <point x="88" y="617"/>
      <point x="61" y="639"/>
    </contour>
  </outline>
</glyph>
<glyph name="four" format="1">
  <advance width="542"/>
  <unicode hex="0034"/>
  <outline>
    <contour>
      <point x="50" y="270" type="line"/>
      <point x="345" y="712" type="line"/>
      <point x="309" y="718" type="line"/>
      <point x="26" y="296" type="line"/>
    </contour>
    <contour>
      <point x="501" y="296" type="line"/>
      <point x="26" y="296" type="line"/>
      <point x="26" y="259" type="line"/>
      <point x="501" y="259" type="line"/>
    </contour>
    <contour>
      <point x="351" y="0" type="line"/>
      <point x="351" y="718" type="line"/>
      <point x="309" y="718" type="line"/>
      <point x="309" y="0" type="line"/>
    </contour>
  </outline>
</glyph>
<glyph name="five" format="1">
  <advance width="480"/>
  <unicode hex="0035"/>
  <outline>
    <contour>
      <point x="95" y="722" type="curve"/>
      <point x="95" y="620"/>
      <point x="95" y="513"/>
      <point x="95" y="400" type="curve"/>
      <point x="135" y="387"/>
      <point x="95" y="400"/>
      <point x="135" y="387" type="curve"/>
      <point x="135" y="487"/>
      <point x="135" y="588"/>
      <point x="135" y="687" type="curve"/>
      <point x="95" y="722"/>
      <point x="135" y="687"/>
    </contour>
    <contour>
      <point x="135" y="387" type="curve"/>
      <point x="154" y="399"/>
      <point x="195" y="413"/>
      <point x="227" y="413" type="curve"/>
      <point x="328" y="413"/>
      <point x="377" y="333"/>
      <point x="377" y="226" type="curve"/>
      <point x="377" y="118"/>
      <point x="319" y="33"/>
      <point x="216" y="33" type="curve"/>
      <point x="162" y="33"/>
      <point x="125" y="48"/>
      <point x="76" y="75" type="curve"/>
      <point x="55" y="44"/>
      <point x="76" y="75"/>
      <point x="55" y="44" type="curve"/>
      <point x="104" y="13"/>
      <point x="154" y="-5"/>
      <point x="216" y="-5" type="curve"/>
      <point x="343" y="-5"/>
      <point x="420" y="94"/>
      <point x="420" y="227" type="curve"/>
      <point x="420" y="354"/>
      <point x="354" y="450"/>
      <point x="231" y="450" type="curve"/>
      <point x="184" y="450"/>
      <point x="130" y="434"/>
      <point x="98" y="403" type="curve"/>
      <point x="135" y="388"/>
      <point x="98" y="402"/>
    </contour>
    <contour>
      <point x="399" y="722" type="curve"/>
      <point x="294" y="722"/>
      <point x="198" y="722"/>
      <point x="95" y="722" type="curve"/>
      <point x="135" y="687"/>
      <point x="95" y="722"/>
      <point x="135" y="687" type="curve"/>
      <point x="224" y="687"/>
      <point x="308" y="687"/>
      <point x="399" y="687" type="curve"/>
      <point x="399" y="722"/>
      <point x="399" y="687"/>
    </contour>
  </outline>
</glyph>
<glyph name="six" format="1">
  <advance width="532"/>
  <unicode hex="0036"/>
  <outline>
    <contour>
      <point x="102" y="227" type="curve"/>
      <point x="128" y="308"/>
      <point x="186" y="378"/>
      <point x="277" y="378" type="curve"/>
      <point x="377" y="378"/>
      <point x="426" y="311"/>
      <point x="426" y="206" type="curve"/>
      <point x="426" y="110"/>
      <point x="377" y="34"/>
      <point x="281" y="34" type="curve"/>
      <point x="164" y="34"/>
      <point x="108" y="120"/>
      <point x="108" y="245" type="curve"/>
      <point x="108" y="481"/>
      <point x="249" y="625"/>
      <point x="471" y="701" type="curve"/>
      <point x="459" y="734"/>
      <point x="471" y="701"/>
      <point x="459" y="734" type="curve"/>
      <point x="220" y="657"/>
      <point x="66" y="503"/>
      <point x="66" y="243" type="curve"/>
      <point x="66" y="95"/>
      <point x="138" y="-6"/>
      <point x="280" y="-6" type="curve"/>
      <point x="403" y="-6"/>
      <point x="469" y="79"/>
      <point x="469" y="206" type="curve"/>
      <point x="469" y="334"/>
      <point x="403" y="415"/>
      <point x="282" y="415" type="curve"/>
      <point x="171" y="415"/>
      <point x="103" y="337"/>
      <point x="75" y="242" type="curve"/>
      <point x="101" y="227"/>
      <point x="77" y="242"/>
    </contour>
  </outline>
</glyph>
<glyph name="seven" format="1">
  <advance width="475"/>
  <unicode hex="0037"/>
  <outline>
    <contour>
      <point x="38" y="687" type="curve"/>
      <point x="460" y="687" type="curve"/>
      <point x="460" y="722" type="curve"/>
      <point x="38" y="722" type="curve"/>
    </contour>
    <contour>
      <point x="433" y="722" type="curve"/>
      <point x="70" y="0" type="curve"/>
      <point x="117" y="0" type="curve"/>
      <point x="460" y="687" type="curve"/>
    </contour>
  </outline>
</glyph>
<glyph name="eight" format="1">
  <advance width="520"/>
  <unicode hex="0038"/>
  <outline>
    <contour>
      <point x="87" y="560" type="curve"/>
      <point x="87" y="456"/>
      <point x="155" y="417"/>
      <point x="247" y="364" type="curve"/>
      <point x="338" y="313"/>
      <point x="407" y="270"/>
      <point x="407" y="172" type="curve"/>
      <point x="407" y="81"/>
      <point x="352" y="32"/>
      <point x="258" y="32" type="curve"/>
      <point x="165" y="32"/>
      <point x="112" y="81"/>
      <point x="112" y="172" type="curve"/>
      <point x="112" y="273"/>
      <point x="182" y="312"/>
      <point x="274" y="364" type="curve"/>
      <point x="363" y="417"/>
      <point x="432" y="456"/>
      <point x="432" y="558" type="curve"/>
      <point x="432" y="668"/>
      <point x="371" y="727"/>
      <point x="258" y="727" type="curve"/>
      <point x="150" y="727"/>
      <point x="87" y="666"/>
      <point x="87" y="560" type="curve"/>
      <point x="129" y="560"/>
      <point x="87" y="560"/>
      <point x="129" y="560" type="curve"/>
      <point x="129" y="641"/>
      <point x="174" y="690"/>
      <point x="257" y="690" type="curve"/>
      <point x="344" y="690"/>
      <point x="390" y="644"/>
      <point x="390" y="558" type="curve"/>
      <point x="390" y="472"/>
      <point x="328" y="436"/>
      <point x="247" y="391" type="curve"/>
      <point x="145" y="332"/>
      <point x="70" y="289"/>
      <point x="70" y="172" type="curve"/>
      <point x="70" y="57"/>
      <point x="138" y="-5"/>
      <point x="256" y="-5" type="curve"/>
      <point x="376" y="-5"/>
      <point x="449" y="55"/>
      <point x="449" y="172" type="curve"/>
      <point x="449" y="287"/>
      <point x="374" y="333"/>
      <point x="274" y="391" type="curve"/>
      <point x="193" y="439"/>
      <point x="129" y="471"/>
      <point x="129" y="560" type="curve"/>
      <point x="87" y="560"/>
      <point x="129" y="560"/>
    </contour>
  </outline>
</glyph>
<glyph name="nine" format="1">
  <advance width="531"/>
  <unicode hex="0039"/>
  <outline>
    <contour>
      <point x="432" y="489" type="curve"/>
      <point x="399" y="409"/>
      <point x="350" y="344"/>
      <point x="256" y="344" type="curve"/>
      <point x="156" y="344"/>
      <point x="105" y="412"/>
      <point x="105" y="517" type="curve"/>
      <point x="105" y="618"/>
      <point x="155" y="688"/>
      <point x="250" y="688" type="curve"/>
      <point x="368" y="688"/>
      <point x="423" y="601"/>
      <point x="423" y="477" type="curve"/>
      <point x="423" y="241"/>
      <point x="294" y="97"/>
      <point x="65" y="22" type="curve"/>
      <point x="79" y="-15"/>
      <point x="65" y="22"/>
      <point x="79" y="-15" type="curve"/>
      <point x="323" y="63"/>
      <point x="465" y="219"/>
      <point x="465" y="479" type="curve"/>
      <point x="465" y="627"/>
      <point x="395" y="728"/>
      <point x="252" y="728" type="curve"/>
      <point x="128" y="728"/>
      <point x="63" y="643"/>
      <point x="63" y="516" type="curve"/>
      <point x="63" y="388"/>
      <point x="129" y="307"/>
      <point x="252" y="307" type="curve"/>
      <point x="362" y="307"/>
      <point x="420" y="377"/>
      <point x="454" y="477" type="curve"/>
      <point x="432" y="489"/>
      <point x="454" y="477"/>
    </contour>
  </outline>
</glyph>
<glyph name="colon" format="1">
  <advance width="214"/>
  <unicode hex="003A"/>
  <outline>
    <contour>
      <point x="130" y="416" type="curve"/>
      <point x="130" y="432"/>
      <point x="119" y="441"/>
      <point x="103" y="441" type="curve"/>
      <point x="86" y="441"/>
      <point x="76" y="432"/>
      <point x="76" y="416" type="curve"/>
      <point x="125" y="416"/>
      <point x="82" y="416"/>
      <point x="130" y="416" type="curve"/>
      <point x="130" y="399"/>
      <point x="119" y="391"/>
      <point x="103" y="391" type="curve"/>
      <point x="86" y="391"/>
      <point x="76" y="400"/>
      <point x="76" y="416" type="curve"/>
      <point x="125" y="416"/>
      <point x="82" y="416"/>
    </contour>
    <contour>
      <point x="130" y="20" type="curve"/>
      <point x="130" y="37"/>
      <point x="119" y="46"/>
      <point x="103" y="46" type="curve"/>
      <point x="86" y="46"/>
      <point x="76" y="36"/>
      <point x="76" y="20" type="curve"/>
      <point x="125" y="20"/>
      <point x="82" y="20"/>
      <point x="130" y="20" type="curve"/>
      <point x="130" y="4"/>
      <point x="119" y="-5"/>
      <point x="103" y="-5" type="curve"/>
      <point x="86" y="-5"/>
      <point x="76" y="4"/>
      <point x="76" y="20" type="curve"/>
      <point x="125" y="20"/>
      <point x="82" y="20"/>
    </contour>
  </outline>
</glyph>
<glyph name="semicolon" format="1">
  <advance width="170"/>
  <unicode hex="003B"/>
  <outline>
    <contour>
      <point x="46" y="-110" type="line"/>
      <point x="84" y="-89"/>
      <point x="114" y="-54"/>
      <point x="114" y="4" type="curve"/>
      <point x="114" y="34"/>
      <point x="105" y="56"/>
      <point x="81" y="56" type="curve"/>
      <point x="63" y="56"/>
      <point x="52" y="47"/>
      <point x="52" y="30" type="curve"/>
      <point x="52" y="16"/>
      <point x="60" y="6"/>
      <point x="76" y="2" type="curve"/>
      <point x="76" y="-22"/>
      <point x="66" y="-61"/>
      <point x="32" y="-83" type="curve"/>
    </contour>
    <contour>
      <point x="110" y="420" type="curve"/>
      <point x="110" y="437"/>
      <point x="98" y="446"/>
      <point x="82" y="446" type="curve"/>
      <point x="66" y="446"/>
      <point x="56" y="436"/>
      <point x="56" y="420" type="curve"/>
      <point x="104" y="420"/>
      <point x="61" y="420"/>
      <point x="110" y="420" type="curve"/>
      <point x="110" y="404"/>
      <point x="98" y="395"/>
      <point x="82" y="395" type="curve"/>
      <point x="66" y="395"/>
      <point x="56" y="404"/>
      <point x="56" y="420" type="curve"/>
      <point x="104" y="420"/>
      <point x="61" y="420"/>
    </contour>
  </outline>
</glyph>
<glyph name="less" format="1">
  <advance width="637"/>
  <unicode hex="003C"/>
  <outline>
    <contour>
      <point x="572" y="589" type="curve"/>
      <point x="394" y="499"/>
      <point x="217" y="409"/>
      <point x="39" y="319" type="curve"/>
      <point x="39" y="281"/>
      <point x="39" y="319"/>
      <point x="39" y="281" type="curve"/>
      <point x="217" y="371"/>
      <point x="394" y="461"/>
      <point x="572" y="551" type="curve"/>
      <point x="572" y="589"/>
      <point x="572" y="551"/>
    </contour>
    <contour>
      <point x="581" y="55" type="curve"/>
      <point x="400" y="143"/>
      <point x="219" y="231"/>
      <point x="39" y="319" type="curve"/>
      <point x="39" y="281"/>
      <point x="39" y="319"/>
      <point x="39" y="281" type="curve"/>
      <point x="219" y="193"/>
      <point x="400" y="105"/>
      <point x="581" y="17" type="curve"/>
      <point x="581" y="55"/>
      <point x="581" y="17"/>
    </contour>
  </outline>
</glyph>
<glyph name="question" format="1">
  <advance width="451"/>
  <unicode hex="003F"/>
  <outline>
    <contour>
      <point x="181" y="341" type="curve"/>
      <point x="181" y="304"/>
      <point x="181" y="258"/>
      <point x="181" y="221" type="curve"/>
      <point x="222" y="221"/>
      <point x="181" y="221"/>
      <point x="222" y="221" type="curve"/>
      <point x="222" y="258"/>
      <point x="222" y="304"/>
      <point x="222" y="341" type="curve"/>
      <point x="181" y="341"/>
      <point x="222" y="341"/>
    </contour>
    <contour>
      <point x="81" y="616" type="line"/>
      <point x="108" y="651"/>
      <point x="148" y="680"/>
      <point x="204" y="680" type="curve"/>
      <point x="298" y="680"/>
      <point x="351" y="615"/>
      <point x="351" y="519" type="curve"/>
      <point x="351" y="413"/>
      <point x="291" y="341"/>
      <point x="186" y="341" type="curve"/>
      <point x="186" y="319"/>
      <point x="186" y="327"/>
      <point x="186" y="305" type="curve"/>
      <point x="314" y="305"/>
      <point x="392" y="391"/>
      <point x="392" y="519" type="curve"/>
      <point x="392" y="637"/>
      <point x="322" y="716"/>
      <point x="207" y="716" type="curve"/>
      <point x="136" y="716"/>
      <point x="89" y="684"/>
      <point x="56" y="641" type="curve"/>
    </contour>
    <contour>
      <point x="227" y="17" type="curve"/>
      <point x="227" y="33"/>
      <point x="217" y="42"/>
      <point x="201" y="42" type="curve"/>
      <point x="185" y="42"/>
      <point x="176" y="32"/>
      <point x="176" y="17" type="curve"/>
      <point x="227" y="17"/>
      <point x="176" y="17"/>
      <point x="227" y="17" type="curve"/>
      <point x="227" y="1"/>
      <point x="217" y="-7"/>
      <point x="201" y="-7" type="curve"/>
      <point x="185" y="-7"/>
      <point x="176" y="2"/>
      <point x="176" y="17" type="curve"/>
      <point x="227" y="17"/>
      <point x="176" y="17"/>
    </contour>
  </outline>
</glyph>
<glyph name="at" format="1">
  <advance width="749"/>
  <unicode hex="0040"/>
  <outline>
    <contour>
      <point x="519" y="-82" type="curve"/>
      <point x="473" y="-110"/>
      <point x="438" y="-118"/>
      <point x="385" y="-118" type="curve"/>
      <point x="198" y="-118"/>
      <point x="104" y="6"/>
      <point x="104" y="199" type="curve"/>
      <point x="104" y="389"/>
      <point x="199" y="512"/>
      <point x="381" y="512" type="curve"/>
      <point x="554" y="512"/>
      <point x="640" y="391"/>
      <point x="640" y="212" type="curve"/>
      <point x="640" y="132"/>
      <point x="631" y="62"/>
      <point x="578" y="62" type="curve"/>
      <point x="518" y="62"/>
      <point x="509" y="127"/>
      <point x="509" y="204" type="curve"/>
      <point x="509" y="308"/>
      <point x="467" y="380"/>
      <point x="371" y="380" type="curve"/>
      <point x="269" y="380"/>
      <point x="223" y="310"/>
      <point x="223" y="205" type="curve"/>
      <point x="223" y="94"/>
      <point x="263" y="18"/>
      <point x="366" y="18" type="curve"/>
      <point x="459" y="18"/>
      <point x="490" y="93"/>
      <point x="502" y="193" type="curve"/>
      <point x="476" y="199"/>
      <point x="502" y="193"/>
      <point x="476" y="199" type="curve"/>
      <point x="460" y="121"/>
      <point x="440" y="53"/>
      <point x="371" y="53" type="curve"/>
      <point x="289" y="53"/>
      <point x="262" y="117"/>
      <point x="262" y="206" type="curve"/>
      <point x="262" y="289"/>
      <point x="292" y="345"/>
      <point x="367" y="345" type="curve"/>
      <point x="444" y="345"/>
      <point x="471" y="286"/>
      <point x="471" y="203" type="curve"/>
      <point x="471" y="107"/>
      <point x="488" y="30"/>
      <point x="574" y="30" type="curve"/>
      <point x="664" y="30"/>
      <point x="680" y="111"/>
      <point x="680" y="214" type="curve"/>
      <point x="680" y="417"/>
      <point x="582" y="548"/>
      <point x="384" y="548" type="curve"/>
      <point x="173" y="548"/>
      <point x="64" y="414"/>
      <point x="64" y="198" type="curve"/>
      <point x="64" y="-17"/>
      <point x="173" y="-153"/>
      <point x="382" y="-153" type="curve"/>
      <point x="444" y="-153"/>
      <point x="485" y="-144"/>
      <point x="536" y="-113" type="curve"/>
      <point x="519" y="-82"/>
      <point x="536" y="-113"/>
    </contour>
  </outline>
</glyph>
<glyph name="B" format="1">
  <advance width="573"/>
  <unicode hex="0042"/>
  <outline>
    <contour>
      <point x="132" y="687" type="curve"/>
      <point x="191" y="687"/>
      <point x="238" y="687"/>
      <point x="297" y="687" type="curve"/>
      <point x="380" y="687"/>
      <point x="429" y="636"/>
      <point x="429" y="552" type="curve"/>
      <point x="429" y="470"/>
      <point x="371" y="427"/>
      <point x="288" y="427" type="curve"/>
      <point x="232" y="427"/>
      <point x="188" y="427"/>
      <point x="132" y="427" type="curve"/>
      <point x="132" y="408"/>
      <point x="132" y="410"/>
      <point x="132" y="391" type="curve"/>
      <point x="181" y="391"/>
      <point x="222" y="391"/>
      <point x="271" y="391" type="curve"/>
      <point x="382" y="391"/>
      <point x="471" y="442"/>
      <point x="471" y="551" type="curve"/>
      <point x="471" y="659"/>
      <point x="406" y="722"/>
      <point x="298" y="722" type="curve"/>
      <point x="239" y="722"/>
      <point x="191" y="722"/>
      <point x="132" y="722" type="curve"/>
      <point x="132" y="703"/>
      <point x="132" y="706"/>
    </contour>
    <contour>
      <point x="163" y="0" type="curve"/>
      <point x="163" y="241"/>
      <point x="163" y="481"/>
      <point x="163" y="722" type="curve"/>
      <point x="119" y="722"/>
      <point x="163" y="722"/>
      <point x="119" y="722" type="curve"/>
      <point x="119" y="481"/>
      <point x="119" y="241"/>
      <point x="119" y="0" type="curve"/>
      <point x="163" y="0"/>
      <point x="119" y="0"/>
    </contour>
    <contour>
      <point x="132" y="391" type="curve"/>
      <point x="188" y="391"/>
      <point x="232" y="391"/>
      <point x="288" y="391" type="curve"/>
      <point x="402" y="391"/>
      <point x="470" y="324"/>
      <point x="470" y="207" type="curve"/>
      <point x="470" y="99"/>
      <point x="407" y="35"/>
      <point x="297" y="35" type="curve"/>
      <point x="238" y="35"/>
      <point x="191" y="35"/>
      <point x="132" y="35" type="curve"/>
      <point x="132" y="16"/>
      <point x="132" y="19"/>
      <point x="132" y="0" type="curve"/>
      <point x="192" y="0"/>
      <point x="239" y="0"/>
      <point x="298" y="0" type="curve"/>
      <point x="432" y="0"/>
      <point x="512" y="75"/>
      <point x="512" y="207" type="curve"/>
      <point x="512" y="352"/>
      <point x="415" y="427"/>
      <point x="272" y="427" type="curve"/>
      <point x="223" y="427"/>
      <point x="181" y="427"/>
      <point x="132" y="427" type="curve"/>
      <point x="132" y="408"/>
      <point x="132" y="410"/>
    </contour>
  </outline>
</glyph>
<glyph name="D" format="1">
  <advance width="671"/>
  <unicode hex="0044"/>
  <outline>
    <contour>
      <point x="119" y="722" type="curve"/>
      <point x="119" y="481"/>
      <point x="119" y="241"/>
      <point x="119" y="0" type="curve"/>
      <point x="161" y="0"/>
      <point x="119" y="0"/>
      <point x="161" y="0" type="curve"/>
      <point x="161" y="241"/>
      <point x="161" y="481"/>
      <point x="161" y="722" type="curve"/>
      <point x="119" y="722"/>
      <point x="161" y="722"/>
    </contour>
    <contour>
      <point x="141" y="0" type="curve"/>
      <point x="198" y="0"/>
      <point x="245" y="0"/>
      <point x="302" y="0" type="curve"/>
      <point x="508" y="0"/>
      <point x="603" y="138"/>
      <point x="603" y="354" type="curve"/>
      <point x="603" y="579"/>
      <point x="505" y="722"/>
      <point x="292" y="722" type="curve"/>
      <point x="239" y="722"/>
      <point x="194" y="722"/>
      <point x="141" y="722" type="curve"/>
      <point x="141" y="696"/>
      <point x="141" y="713"/>
      <point x="141" y="687" type="curve"/>
      <point x="194" y="687"/>
      <point x="237" y="687"/>
      <point x="290" y="687" type="curve"/>
      <point x="480" y="687"/>
      <point x="561" y="555"/>
      <point x="561" y="353" type="curve"/>
      <point x="561" y="162"/>
      <point x="486" y="35"/>
      <point x="306" y="35" type="curve"/>
      <point x="248" y="35"/>
      <point x="199" y="35"/>
      <point x="141" y="35" type="curve"/>
      <point x="141" y="9"/>
      <point x="141" y="26"/>
    </contour>
    <contour>
      <point x="274" y="818" type="move" name="top"/>
    </contour>
  </outline>
</glyph>
<glyph name="E" format="1">
  <advance width="541"/>
  <unicode hex="0045"/>
  <outline>
    <contour>
      <point x="144" y="356" type="curve"/>
      <point x="240" y="356"/>
      <point x="336" y="356"/>
      <point x="432" y="356" type="curve"/>
      <point x="432" y="391"/>
      <point x="432" y="356"/>
      <point x="432" y="391" type="curve"/>
      <point x="336" y="391"/>
      <point x="240" y="391"/>
      <point x="144" y="391" type="curve"/>
      <point x="144" y="356"/>
      <point x="144" y="391"/>
    </contour>
    <contour>
      <point x="131" y="687" type="curve"/>
      <point x="250" y="687"/>
      <point x="368" y="687"/>
      <point x="487" y="687" type="curve"/>
      <point x="487" y="722"/>
      <point x="487" y="687"/>
      <point x="487" y="722" type="curve"/>
      <point x="368" y="722"/>
      <point x="250" y="722"/>
      <point x="131" y="722" type="curve"/>
      <point x="131" y="687"/>
      <point x="131" y="722"/>
    </contour>
    <contour>
      <point x="161" y="0" type="curve"/>
      <point x="161" y="722" type="line"/>
      <point x="119" y="722"/>
      <point x="161" y="722"/>
      <point x="119" y="722" type="curve"/>
      <point x="119" y="481"/>
      <point x="119" y="241"/>
      <point x="119" y="0" type="curve"/>
      <point x="161" y="0"/>
      <point x="119" y="0"/>
    </contour>
    <contour>
      <point x="131" y="0" type="curve"/>
      <point x="260" y="0"/>
      <point x="388" y="0"/>
      <point x="517" y="0" type="curve"/>
      <point x="517" y="35"/>
      <point x="517" y="0"/>
      <point x="517" y="35" type="curve"/>
      <point x="388" y="35"/>
      <point x="260" y="35"/>
      <point x="131" y="35" type="curve"/>
      <point x="131" y="0"/>
      <point x="131" y="35"/>
    </contour>
    <contour>
      <point x="275" y="818" type="move" name="top"/>
    </contour>
    <contour>
      <point x="508" y="3" type="move" name="bottom"/>
    </contour>
  </outline>
</glyph>
<glyph name="F" format="1">
  <advance width="511"/>
  <unicode hex="0046"/>
  <outline>
    <contour>
      <point x="144" y="356" type="curve"/>
      <point x="238" y="356"/>
      <point x="332" y="356"/>
      <point x="426" y="356" type="curve"/>
      <point x="426" y="391"/>
      <point x="426" y="356"/>
      <point x="426" y="391" type="curve"/>
      <point x="332" y="391"/>
      <point x="238" y="391"/>
      <point x="144" y="391" type="curve"/>
      <point x="144" y="356"/>
      <point x="144" y="391"/>
    </contour>
    <contour>
      <point x="161" y="0" type="curve"/>
      <point x="161" y="722" type="line"/>
      <point x="119" y="722"/>
      <point x="161" y="722"/>
      <point x="119" y="722" type="curve"/>
      <point x="119" y="481"/>
      <point x="119" y="241"/>
      <point x="119" y="0" type="curve"/>
      <point x="161" y="0"/>
      <point x="119" y="0"/>
    </contour>
    <contour>
      <point x="130" y="687" type="curve"/>
      <point x="250" y="687"/>
      <point x="370" y="687"/>
      <point x="490" y="687" type="curve"/>
      <point x="490" y="722"/>
      <point x="490" y="687"/>
      <point x="490" y="722" type="curve"/>
      <point x="370" y="722"/>
      <point x="250" y="722"/>
      <point x="130" y="722" type="curve"/>
      <point x="130" y="687"/>
      <point x="130" y="722"/>
    </contour>
  </outline>
</glyph>
<glyph name="G" format="1">
  <advance width="699"/>
  <unicode hex="0047"/>
  <outline>
    <contour>
      <point x="615" y="327" type="curve"/>
      <point x="551" y="327"/>
      <point x="487" y="327"/>
      <point x="423" y="327" type="curve"/>
      <point x="423" y="291"/>
      <point x="423" y="327"/>
      <point x="423" y="291" type="curve"/>
      <point x="487" y="291"/>
      <point x="551" y="291"/>
      <point x="615" y="291" type="curve"/>
      <point x="615" y="327"/>
      <point x="615" y="291"/>
    </contour>
    <contour>
      <point x="628" y="77" type="curve"/>
      <point x="628" y="161"/>
      <point x="628" y="243"/>
      <point x="628" y="327" type="curve"/>
      <point x="590" y="327"/>
      <point x="628" y="327"/>
      <point x="590" y="327" type="curve"/>
      <point x="590" y="243"/>
      <point x="590" y="161"/>
      <point x="590" y="77" type="curve"/>
      <point x="628" y="77"/>
      <point x="590" y="77"/>
    </contour>
    <contour>
      <point x="613" y="642" type="curve"/>
      <point x="535" y="699"/>
      <point x="462" y="727"/>
      <point x="365" y="727" type="curve"/>
      <point x="161" y="727"/>
      <point x="67" y="582"/>
      <point x="67" y="364" type="curve"/>
      <point x="67" y="141"/>
      <point x="165" y="-5"/>
      <point x="375" y="-5" type="curve"/>
      <point x="478" y="-5"/>
      <point x="542" y="23"/>
      <point x="628" y="77" type="curve"/>
      <point x="605" y="106"/>
      <point x="628" y="77"/>
      <point x="605" y="106" type="curve"/>
      <point x="538" y="61"/>
      <point x="467" y="33"/>
      <point x="375" y="33" type="curve"/>
      <point x="189" y="33"/>
      <point x="109" y="168"/>
      <point x="109" y="368" type="curve"/>
      <point x="109" y="558"/>
      <point x="188" y="690"/>
      <point x="365" y="690" type="curve"/>
      <point x="453" y="690"/>
      <point x="521" y="664"/>
      <point x="593" y="613" type="curve"/>
      <point x="613" y="642"/>
      <point x="593" y="613"/>
    </contour>
    <contour>
      <point x="364" y="818" type="move" name="top"/>
    </contour>
    <contour>
      <point x="384" y="-48" type="move" name="bottom"/>
    </contour>
  </outline>
</glyph>
<glyph name="H" format="1">
  <advance width="720"/>
  <unicode hex="0048"/>
  <outline>
    <contour>
      <point x="161" y="0" type="curve"/>
      <point x="161" y="722" type="line"/>
      <point x="119" y="722"/>
      <point x="161" y="722"/>
      <point x="119" y="722" type="curve"/>
      <point x="119" y="481"/>
      <point x="119" y="241"/>
      <point x="119" y="0" type="curve"/>
      <point x="161" y="0"/>
      <point x="119" y="0"/>
    </contour>
    <contour>
      <point x="579" y="381" type="curve"/>
      <point x="432" y="381"/>
      <point x="286" y="381"/>
      <point x="140" y="381" type="curve"/>
      <point x="140" y="345"/>
      <point x="140" y="381"/>
      <point x="140" y="345" type="curve"/>
      <point x="286" y="345"/>
      <point x="432" y="345"/>
      <point x="579" y="345" type="curve"/>
      <point x="579" y="381"/>
      <point x="579" y="345"/>
    </contour>
    <contour>
      <point x="602" y="1" type="curve"/>
      <point x="602" y="236"/>
      <point x="602" y="486"/>
      <point x="602" y="721" type="curve"/>
      <point x="560" y="721"/>
      <point x="602" y="721"/>
      <point x="560" y="721" type="curve"/>
      <point x="560" y="1" type="line"/>
      <point x="602" y="1"/>
      <point x="560" y="1"/>
    </contour>
  </outline>
</glyph>
<glyph name="J" format="1">
  <advance width="405"/>
  <unicode hex="004A"/>
  <outline>
    <contour>
      <point x="13" y="40" type="curve"/>
      <point x="42" y="17"/>
      <point x="78" y="-4"/>
      <point x="126" y="-4" type="curve"/>
      <point x="248" y="-4"/>
      <point x="295" y="81"/>
      <point x="295" y="220" type="curve"/>
      <point x="295" y="401"/>
      <point x="295" y="540"/>
      <point x="295" y="722" type="curve"/>
      <point x="262" y="722"/>
      <point x="286" y="722"/>
      <point x="253" y="722" type="curve"/>
      <point x="253" y="540"/>
      <point x="253" y="401"/>
      <point x="253" y="220" type="curve"/>
      <point x="253" y="112"/>
      <point x="224" y="32"/>
      <point x="126" y="32" type="curve"/>
      <point x="87" y="32"/>
      <point x="61" y="49"/>
      <point x="34" y="68" type="curve"/>
      <point x="18" y="47"/>
      <point x="29" y="61"/>
    </contour>
  </outline>
</glyph>
<glyph name="K" format="1">
  <advance width="521"/>
  <unicode hex="004B"/>
  <outline>
    <contour>
      <point x="441" y="722" type="curve"/>
      <point x="145" y="380" type="line"/>
      <point x="199" y="380"/>
      <point x="144" y="380"/>
      <point x="198" y="380" type="curve"/>
      <point x="497" y="722" type="line"/>
      <point x="445" y="722"/>
      <point x="493" y="722"/>
    </contour>
    <contour>
      <point x="161" y="0" type="curve"/>
      <point x="161" y="722" type="line"/>
      <point x="119" y="722"/>
      <point x="161" y="722"/>
      <point x="119" y="722" type="curve"/>
      <point x="119" y="481"/>
      <point x="119" y="241"/>
      <point x="119" y="0" type="curve"/>
      <point x="161" y="0"/>
      <point x="119" y="0"/>
    </contour>
    <contour>
      <point x="517" y="0" type="curve"/>
      <point x="198" y="380" type="line"/>
      <point x="144" y="380"/>
      <point x="199" y="380"/>
      <point x="145" y="380" type="curve"/>
      <point x="461" y="0" type="line"/>
      <point x="515" y="0"/>
      <point x="464" y="0"/>
    </contour>
    <contour>
      <point x="338" y="-50" type="move" name="bottom"/>
    </contour>
  </outline>
</glyph>
<glyph name="M" format="1">
  <advance width="812"/>
  <unicode hex="004D"/>
  <outline>
    <contour>
      <point x="730" y="0" type="curve"/>
      <point x="711" y="241"/>
      <point x="693" y="481"/>
      <point x="674" y="722" type="curve"/>
      <point x="636" y="722"/>
      <point x="674" y="722"/>
      <point x="636" y="722" type="curve"/>
      <point x="654" y="481"/>
      <point x="670" y="241"/>
      <point x="688" y="0" type="curve"/>
      <point x="730" y="0"/>
      <point x="688" y="0"/>
    </contour>
    <contour>
      <point x="125" y="0" type="curve"/>
      <point x="141" y="241"/>
      <point x="157" y="481"/>
      <point x="174" y="722" type="curve"/>
      <point x="136" y="722"/>
      <point x="174" y="722"/>
      <point x="136" y="722" type="curve"/>
      <point x="119" y="481"/>
      <point x="101" y="241"/>
      <point x="84" y="0" type="curve"/>
      <point x="125" y="0"/>
      <point x="84" y="0"/>
    </contour>
    <contour>
      <point x="423" y="0" type="curve"/>
      <point x="341" y="241"/>
      <point x="259" y="481"/>
      <point x="177" y="722" type="curve"/>
      <point x="138" y="722"/>
      <point x="176" y="722"/>
      <point x="138" y="722" type="curve"/>
      <point x="220" y="481"/>
      <point x="301" y="241"/>
      <point x="383" y="0" type="curve"/>
      <point x="423" y="0"/>
      <point x="383" y="0"/>
    </contour>
    <contour>
      <point x="431" y="0" type="curve"/>
      <point x="511" y="241"/>
      <point x="591" y="481"/>
      <point x="672" y="722" type="curve"/>
      <point x="634" y="722"/>
      <point x="671" y="722"/>
      <point x="633" y="722" type="curve"/>
      <point x="552" y="481"/>
      <point x="471" y="241"/>
      <point x="390" y="0" type="curve"/>
      <point x="430" y="0"/>
      <point x="390" y="0"/>
    </contour>
  </outline>
</glyph>
<glyph name="N" format="1">
  <advance width="755"/>
  <unicode hex="004E"/>
  <outline>
    <contour>
      <point x="636" y="0" type="curve"/>
      <point x="479" y="241"/>
      <point x="323" y="481"/>
      <point x="167" y="722" type="curve"/>
      <point x="119" y="722"/>
      <point x="167" y="722"/>
      <point x="119" y="722" type="curve"/>
      <point x="275" y="481"/>
      <point x="431" y="241"/>
      <point x="587" y="0" type="curve"/>
      <point x="635" y="0"/>
      <point x="587" y="0"/>
    </contour>
    <contour>
      <point x="594" y="722" type="curve"/>
      <point x="594" y="481"/>
      <point x="594" y="241"/>
      <point x="594" y="0" type="curve"/>
      <point x="636" y="0"/>
      <point x="594" y="0"/>
      <point x="636" y="0" type="curve"/>
      <point x="636" y="241"/>
      <point x="636" y="481"/>
      <point x="636" y="722" type="curve"/>
      <point x="594" y="722"/>
      <point x="636" y="722"/>
    </contour>
    <contour>
      <point x="162" y="0" type="curve"/>
      <point x="162" y="241"/>
      <point x="162" y="481"/>
      <point x="162" y="722" type="curve"/>
      <point x="119" y="722"/>
      <point x="162" y="722"/>
      <point x="119" y="722" type="curve"/>
      <point x="119" y="481"/>
      <point x="119" y="241"/>
      <point x="119" y="0" type="curve"/>
      <point x="162" y="0"/>
      <point x="119" y="0"/>
    </contour>
    <contour>
      <point x="382" y="818" type="move" name="top"/>
    </contour>
    <contour>
      <point x="388" y="-49" type="move" name="bottom"/>
    </contour>
  </outline>
</glyph>
<glyph name="O" format="1">
  <advance width="682"/>
  <unicode hex="004F"/>
  <outline>
    <contour>
      <point x="110" y="360" type="curve" name="FullCurve"/>
      <point x="110" y="544"/>
      <point x="170" y="690"/>
      <point x="339" y="690" type="curve" name="FullCurve"/>
      <point x="508" y="690"/>
      <point x="572" y="547"/>
      <point x="572" y="363" type="curve" name="FullCurve"/>
      <point x="572" y="180"/>
      <point x="511" y="32"/>
      <point x="342" y="32" type="curve" name="FullCurve"/>
      <point x="172" y="32"/>
      <point x="110" y="175"/>
      <point x="110" y="360" type="curve" name="FullCurve"/>
      <point x="67" y="360"/>
      <point x="110" y="360"/>
      <point x="67" y="360" type="curve" name="FullCurve"/>
      <point x="67" y="152"/>
      <point x="148" y="-5"/>
      <point x="341" y="-5" type="curve" name="FullCurve"/>
      <point x="534" y="-5"/>
      <point x="615" y="153"/>
      <point x="615" y="363" type="curve" name="FullCurve"/>
      <point x="615" y="570"/>
      <point x="534" y="727"/>
      <point x="341" y="727" type="curve" name="FullCurve"/>
      <point x="148" y="727"/>
      <point x="67" y="569"/>
      <point x="67" y="360" type="curve" name="FullCurve"/>
      <point x="110" y="360"/>
      <point x="67" y="360"/>
    </contour>
    <contour>
      <point x="340" y="818" type="move" name="top"/>
    </contour>
  </outline>
</glyph>
<glyph name="P" format="1">
  <advance width="532"/>
  <unicode hex="0050"/>
  <outline>
    <contour>
      <point x="135" y="321" type="curve"/>
      <point x="180" y="295"/>
      <point x="226" y="276"/>
      <point x="280" y="276" type="curve"/>
      <point x="405" y="278"/>
      <point x="479" y="358"/>
      <point x="479" y="491" type="curve"/>
      <point x="479" y="630"/>
      <point x="394" y="722"/>
      <point x="257" y="722" type="curve"/>
      <point x="219" y="722"/>
      <point x="181" y="722"/>
      <point x="143" y="722" type="curve"/>
      <point x="143" y="687"/>
      <point x="143" y="722"/>
      <point x="143" y="687" type="curve"/>
      <point x="179" y="687"/>
      <point x="215" y="687"/>
      <point x="251" y="687" type="curve"/>
      <point x="368" y="687"/>
      <point x="436" y="609"/>
      <point x="436" y="491" type="curve"/>
      <point x="436" y="384"/>
      <point x="380" y="311"/>
      <point x="279" y="311" type="curve"/>
      <point x="227" y="311"/>
      <point x="193" y="327"/>
      <point x="149" y="352" type="curve"/>
      <point x="135" y="322"/>
      <point x="149" y="352"/>
    </contour>
    <contour>
      <point x="161" y="0" type="curve"/>
      <point x="161" y="241"/>
      <point x="161" y="481"/>
      <point x="161" y="722" type="curve"/>
      <point x="119" y="722"/>
      <point x="161" y="722"/>
      <point x="119" y="722" type="curve"/>
      <point x="119" y="481"/>
      <point x="119" y="241"/>
      <point x="119" y="0" type="curve"/>
      <point x="161" y="0"/>
      <point x="119" y="0"/>
    </contour>
  </outline>
</glyph>
<glyph name="Q" format="1">
  <advance width="760"/>
  <unicode hex="0051"/>
  <outline>
    <contour>
      <point x="331" y="7" type="curve"/>
      <point x="416" y="-161"/>
      <point x="518" y="-236"/>
      <point x="696" y="-236" type="curve"/>
      <point x="696" y="-199"/>
      <point x="696" y="-236"/>
      <point x="696" y="-199" type="curve"/>
      <point x="536" y="-199"/>
      <point x="446" y="-128"/>
      <point x="367" y="25" type="curve"/>
      <point x="331" y="7"/>
      <point x="367" y="25"/>
    </contour>
    <contour>
      <point x="109" y="360" type="curve"/>
      <point x="109" y="544"/>
      <point x="172" y="689"/>
      <point x="340" y="689" type="curve"/>
      <point x="509" y="689"/>
      <point x="574" y="546"/>
      <point x="574" y="363" type="curve"/>
      <point x="574" y="178"/>
      <point x="512" y="33"/>
      <point x="344" y="33" type="curve"/>
      <point x="174" y="33"/>
      <point x="109" y="175"/>
      <point x="109" y="360" type="curve"/>
      <point x="67" y="360"/>
      <point x="109" y="360"/>
      <point x="67" y="360" type="curve"/>
      <point x="67" y="152"/>
      <point x="150" y="-5"/>
      <point x="342" y="-5" type="curve"/>
      <point x="536" y="-5"/>
      <point x="616" y="155"/>
      <point x="616" y="364" type="curve"/>
      <point x="616" y="572"/>
      <point x="535" y="728"/>
      <point x="343" y="728" type="curve"/>
      <point x="150" y="728"/>
      <point x="67" y="569"/>
      <point x="67" y="360" type="curve"/>
      <point x="109" y="360"/>
      <point x="67" y="360"/>
    </contour>
  </outline>
</glyph>
<glyph name="R" format="1">
  <advance width="560"/>
  <unicode hex="0052"/>
  <outline>
    <contour>
      <point x="296" y="354" type="curve"/>
      <point x="345" y="263"/>
      <point x="460" y="91"/>
      <point x="508" y="0" type="curve"/>
      <point x="555" y="0"/>
      <point x="509" y="0"/>
      <point x="556" y="0" type="curve"/>
      <point x="509" y="91"/>
      <point x="392" y="263"/>
      <point x="344" y="354" type="curve"/>
      <point x="295" y="354"/>
      <point x="344" y="354"/>
    </contour>
    <contour>
      <point x="161" y="0" type="curve"/>
      <point x="161" y="241"/>
      <point x="161" y="481"/>
      <point x="161" y="722" type="curve"/>
      <point x="119" y="722"/>
      <point x="161" y="722"/>
      <point x="119" y="722" type="curve"/>
      <point x="119" y="481"/>
      <point x="119" y="241"/>
      <point x="119" y="0" type="curve"/>
      <point x="161" y="0"/>
      <point x="119" y="0"/>
    </contour>
    <contour>
      <point x="142" y="334" type="curve"/>
      <point x="192" y="334"/>
      <point x="241" y="334"/>
      <point x="291" y="334" type="curve"/>
      <point x="419" y="334"/>
      <point x="493" y="405"/>
      <point x="493" y="534" type="curve"/>
      <point x="493" y="658"/>
      <point x="418" y="722"/>
      <point x="293" y="722" type="curve"/>
      <point x="241" y="722"/>
      <point x="194" y="722"/>
      <point x="142" y="722" type="curve"/>
      <point x="142" y="687"/>
      <point x="142" y="722"/>
      <point x="142" y="687" type="curve"/>
      <point x="192" y="687"/>
      <point x="235" y="687"/>
      <point x="286" y="687" type="curve"/>
      <point x="390" y="687"/>
      <point x="450" y="633"/>
      <point x="450" y="531" type="curve"/>
      <point x="450" y="428"/>
      <point x="395" y="369"/>
      <point x="294" y="369" type="curve"/>
      <point x="244" y="369"/>
      <point x="192" y="369"/>
      <point x="142" y="369" type="curve"/>
      <point x="142" y="334"/>
      <point x="142" y="369"/>
    </contour>
    <contour>
      <point x="259" y="818" type="move" name="top"/>
    </contour>
    <contour>
      <point x="331" y="-49" type="move" name="bottom"/>
    </contour>
  </outline>
</glyph>
<glyph name="S" format="1">
  <advance width="492"/>
  <unicode hex="0053"/>
  <outline>
    <contour>
      <point x="47" y="57" type="curve"/>
      <point x="97" y="21"/>
      <point x="158" y="-5"/>
      <point x="229" y="-5" type="curve"/>
      <point x="353" y="-5"/>
      <point x="435" y="54"/>
      <point x="435" y="173" type="curve"/>
      <point x="435" y="286"/>
      <point x="358" y="335"/>
      <point x="258" y="391" type="curve"/>
      <point x="176" y="436"/>
      <point x="106" y="473"/>
      <point x="106" y="560" type="curve"/>
      <point x="106" y="641"/>
      <point x="158" y="691"/>
      <point x="239" y="691" type="curve"/>
      <point x="298" y="691"/>
      <point x="349" y="663"/>
      <point x="387" y="634" type="curve"/>
      <point x="402" y="656"/>
      <point x="392" y="642"/>
      <point x="406" y="663" type="curve"/>
      <point x="356" y="700"/>
      <point x="308" y="725"/>
      <point x="240" y="725" type="curve"/>
      <point x="133" y="725"/>
      <point x="64" y="663"/>
      <point x="64" y="558" type="curve"/>
      <point x="64" y="454"/>
      <point x="138" y="411"/>
      <point x="231" y="359" type="curve"/>
      <point x="320" y="311"/>
      <point x="393" y="267"/>
      <point x="393" y="172" type="curve"/>
      <point x="393" y="84"/>
      <point x="325" y="31"/>
      <point x="232" y="31" type="curve"/>
      <point x="168" y="31"/>
      <point x="114" y="59"/>
      <point x="69" y="90" type="curve"/>
      <point x="52" y="65"/>
      <point x="64" y="82"/>
    </contour>
    <contour>
      <point x="242" y="818" type="move" name="top"/>
    </contour>
    <contour>
      <point x="242" y="-49" type="move" name="bottom"/>
    </contour>
  </outline>
</glyph>
<glyph name="T" format="1">
  <advance width="564"/>
  <unicode hex="0054"/>
  <outline>
    <contour>
      <point x="303" y="0" type="curve"/>
      <point x="303" y="237"/>
      <point x="303" y="473"/>
      <point x="303" y="710" type="curve"/>
      <point x="261" y="710"/>
      <point x="303" y="710"/>
      <point x="261" y="710" type="curve"/>
      <point x="261" y="473"/>
      <point x="261" y="237"/>
      <point x="261" y="0" type="curve"/>
      <point x="303" y="0"/>
      <point x="261" y="0"/>
    </contour>
    <contour>
      <point x="10" y="684" type="curve"/>
      <point x="191" y="684"/>
      <point x="373" y="684"/>
      <point x="553" y="684" type="curve"/>
      <point x="553" y="723"/>
      <point x="553" y="683"/>
      <point x="553" y="722" type="curve"/>
      <point x="373" y="722"/>
      <point x="191" y="722"/>
      <point x="10" y="722" type="curve"/>
      <point x="10" y="683"/>
      <point x="10" y="723"/>
    </contour>
    <contour>
      <point x="281" y="818" type="move" name="top"/>
    </contour>
    <contour>
      <point x="293" y="-50" type="move" name="bottom"/>
    </contour>
  </outline>
</glyph>
<glyph name="V" format="1">
  <advance width="570"/>
  <unicode hex="0056"/>
  <outline>
    <contour>
      <point x="509" y="722" type="curve"/>
      <point x="429" y="481"/>
      <point x="348" y="241"/>
      <point x="267" y="0" type="curve"/>
      <point x="313" y="0"/>
      <point x="266" y="0"/>
      <point x="311" y="0" type="curve"/>
      <point x="392" y="241"/>
      <point x="472" y="481"/>
      <point x="554" y="722" type="curve"/>
      <point x="509" y="722"/>
      <point x="554" y="722"/>
    </contour>
    <contour>
      <point x="13" y="722" type="curve"/>
      <point x="96" y="481"/>
      <point x="178" y="241"/>
      <point x="261" y="0" type="curve"/>
      <point x="306" y="0"/>
      <point x="259" y="0"/>
      <point x="304" y="0" type="curve"/>
      <point x="223" y="241"/>
      <point x="141" y="481"/>
      <point x="59" y="722" type="curve"/>
      <point x="13" y="722"/>
      <point x="59" y="722"/>
    </contour>
  </outline>
</glyph>
<glyph name="W" format="1">
  <advance width="766"/>
  <unicode hex="0057"/>
  <outline>
    <contour>
      <point x="231" y="0" type="curve"/>
      <point x="289" y="241"/>
      <point x="347" y="481"/>
      <point x="406" y="722" type="curve"/>
      <point x="367" y="722"/>
      <point x="407" y="722"/>
      <point x="368" y="722" type="curve"/>
      <point x="311" y="481"/>
      <point x="253" y="241"/>
      <point x="197" y="0" type="curve"/>
      <point x="230" y="0"/>
      <point x="197" y="0"/>
    </contour>
    <contour>
      <point x="375" y="722" type="curve"/>
      <point x="428" y="481"/>
      <point x="480" y="241"/>
      <point x="533" y="0" type="curve"/>
      <point x="567" y="0"/>
      <point x="533" y="0"/>
      <point x="567" y="0" type="curve"/>
      <point x="516" y="241"/>
      <point x="464" y="481"/>
      <point x="413" y="722" type="curve"/>
      <point x="374" y="722"/>
      <point x="414" y="722"/>
    </contour>
    <contour>
      <point x="31" y="722" type="curve"/>
      <point x="85" y="481"/>
      <point x="138" y="241"/>
      <point x="191" y="0" type="curve"/>
      <point x="225" y="0"/>
      <point x="193" y="0"/>
      <point x="227" y="0" type="curve"/>
      <point x="176" y="241"/>
      <point x="124" y="481"/>
      <point x="72" y="722" type="curve"/>
      <point x="31" y="722"/>
      <point x="72" y="722"/>
    </contour>
    <contour>
      <point x="698" y="722" type="curve"/>
      <point x="644" y="481"/>
      <point x="590" y="241"/>
      <point x="537" y="0" type="curve"/>
      <point x="571" y="0"/>
      <point x="538" y="0"/>
      <point x="572" y="0" type="curve"/>
      <point x="628" y="241"/>
      <point x="683" y="481"/>
      <point x="739" y="722" type="curve"/>
      <point x="698" y="722"/>
      <point x="739" y="722"/>
    </contour>
  </outline>
</glyph>
<glyph name="X" format="1">
  <advance width="521"/>
  <unicode hex="0058"/>
  <outline>
    <contour>
      <point x="444" y="722" type="curve"/>
      <point x="298" y="482"/>
      <point x="151" y="240"/>
      <point x="6" y="0" type="curve"/>
      <point x="54" y="0"/>
      <point x="8" y="0"/>
      <point x="56" y="0" type="curve"/>
      <point x="200" y="240"/>
      <point x="346" y="482"/>
      <point x="490" y="722" type="curve"/>
      <point x="445" y="722"/>
      <point x="489" y="722"/>
    </contour>
    <contour>
      <point x="33" y="722" type="curve"/>
      <point x="176" y="482"/>
      <point x="320" y="240"/>
      <point x="464" y="0" type="curve"/>
      <point x="511" y="0"/>
      <point x="465" y="0"/>
      <point x="513" y="0" type="curve"/>
      <point x="369" y="241"/>
      <point x="224" y="481"/>
      <point x="80" y="722" type="curve"/>
      <point x="35" y="722"/>
      <point x="78" y="722"/>
    </contour>
  </outline>
</glyph>
<glyph name="Y" format="1">
  <advance width="502"/>
  <unicode hex="0059"/>
  <outline>
    <contour>
      <point x="23" y="722" type="curve"/>
      <point x="92" y="595"/>
      <point x="161" y="465"/>
      <point x="230" y="337" type="curve"/>
      <point x="274" y="337"/>
      <point x="227" y="338"/>
      <point x="271" y="338" type="curve"/>
      <point x="204" y="466"/>
      <point x="137" y="594"/>
      <point x="70" y="722" type="curve"/>
      <point x="25" y="722"/>
      <point x="68" y="722"/>
    </contour>
    <contour>
      <point x="446" y="722" type="curve"/>
      <point x="375" y="594"/>
      <point x="304" y="466"/>
      <point x="232" y="338" type="curve"/>
      <point x="276" y="338"/>
      <point x="231" y="337"/>
      <point x="275" y="337" type="curve"/>
      <point x="347" y="465"/>
      <point x="420" y="595"/>
      <point x="492" y="722" type="curve"/>
      <point x="448" y="722"/>
      <point x="490" y="722"/>
    </contour>
    <contour>
      <point x="275" y="0" type="curve"/>
      <point x="275" y="115"/>
      <point x="275" y="230"/>
      <point x="275" y="345" type="curve"/>
      <point x="229" y="345"/>
      <point x="275" y="345"/>
      <point x="229" y="345" type="curve"/>
      <point x="229" y="230"/>
      <point x="229" y="115"/>
      <point x="229" y="0" type="curve"/>
      <point x="275" y="0"/>
      <point x="229" y="0"/>
    </contour>
    <contour>
      <point x="254" y="818" type="move" name="top"/>
    </contour>
  </outline>
</glyph>
<glyph name="Z" format="1">
  <advance width="544"/>
  <unicode hex="005A"/>
  <outline>
    <contour>
      <point x="57" y="687" type="curve"/>
      <point x="198" y="687"/>
      <point x="347" y="687"/>
      <point x="489" y="687" type="curve"/>
      <point x="486" y="691"/>
      <point x="480" y="692"/>
      <point x="477" y="696" type="curve"/>
      <point x="473" y="698"/>
      <point x="473" y="703"/>
      <point x="470" y="705" type="curve"/>
      <point x="466" y="701"/>
      <point x="462" y="699"/>
      <point x="459" y="695" type="curve"/>
      <point x="21" y="35" type="line"/>
      <point x="21" y="17"/>
      <point x="21" y="35"/>
      <point x="21" y="17" type="curve"/>
      <point x="21" y="0"/>
      <point x="21" y="17"/>
      <point x="21" y="0" type="curve"/>
      <point x="34" y="0"/>
      <point x="21" y="0"/>
      <point x="34" y="0" type="curve"/>
      <point x="540" y="0"/>
      <point x="370" y="0"/>
      <point x="539" y="0" type="curve"/>
      <point x="539" y="35"/>
      <point x="539" y="0"/>
      <point x="539" y="35" type="curve"/>
      <point x="370" y="35"/>
      <point x="203" y="35"/>
      <point x="34" y="35" type="curve"/>
      <point x="37" y="32"/>
      <point x="41" y="31"/>
      <point x="45" y="28" type="curve"/>
      <point x="48" y="25"/>
      <point x="50" y="19"/>
      <point x="53" y="17" type="curve"/>
      <point x="57" y="21"/>
      <point x="62" y="23"/>
      <point x="66" y="27" type="curve"/>
      <point x="505" y="687" type="line"/>
      <point x="505" y="705"/>
      <point x="505" y="687"/>
      <point x="505" y="705" type="curve"/>
      <point x="505" y="722"/>
      <point x="505" y="705"/>
      <point x="505" y="722" type="curve"/>
      <point x="488" y="722"/>
      <point x="505" y="722"/>
      <point x="488" y="722" type="curve"/>
      <point x="347" y="722"/>
      <point x="198" y="722"/>
      <point x="57" y="722" type="curve"/>
      <point x="57" y="687"/>
      <point x="57" y="722"/>
    </contour>
    <contour>
      <point x="285" y="818" type="move" name="top"/>
    </contour>
  </outline>
</glyph>
<glyph name="bracketleft" format="1">
  <advance width="268"/>
  <unicode hex="005B"/>
  <outline>
    <contour>
      <point x="239" y="771" type="curve"/>
      <point x="195" y="771"/>
      <point x="150" y="771"/>
      <point x="105" y="771" type="curve"/>
      <point x="101" y="771"/>
      <point x="94" y="771"/>
      <point x="90" y="771" type="curve"/>
      <point x="90" y="767"/>
      <point x="90" y="762"/>
      <point x="90" y="757" type="curve"/>
      <point x="90" y="468"/>
      <point x="90" y="179"/>
      <point x="90" y="-111" type="curve"/>
      <point x="90" y="-114"/>
      <point x="90" y="-118"/>
      <point x="90" y="-122" type="curve"/>
      <point x="94" y="-122"/>
      <point x="100" y="-122"/>
      <point x="104" y="-122" type="curve"/>
      <point x="149" y="-122"/>
      <point x="194" y="-122"/>
      <point x="239" y="-122" type="curve"/>
      <point x="239" y="-84"/>
      <point x="239" y="-122"/>
      <point x="239" y="-84" type="curve"/>
      <point x="194" y="-84"/>
      <point x="149" y="-84"/>
      <point x="104" y="-84" type="curve"/>
      <point x="132" y="-84"/>
      <point x="104" y="-84"/>
      <point x="132" y="-84" type="curve"/>
      <point x="132" y="-111"/>
      <point x="132" y="-84"/>
      <point x="132" y="-111" type="curve"/>
      <point x="132" y="179"/>
      <point x="132" y="468"/>
      <point x="132" y="757" type="curve"/>
      <point x="132" y="732"/>
      <point x="132" y="757"/>
      <point x="132" y="732" type="curve"/>
      <point x="105" y="732"/>
      <point x="132" y="732"/>
      <point x="105" y="732" type="curve"/>
      <point x="150" y="732"/>
      <point x="195" y="732"/>
      <point x="239" y="732" type="curve"/>
      <point x="239" y="771"/>
      <point x="239" y="732"/>
    </contour>
  </outline>
</glyph>
<glyph name="bracketright" format="1">
  <advance width="268"/>
  <unicode hex="005D"/>
  <outline>
    <contour>
      <point x="29" y="732" type="curve"/>
      <point x="74" y="732"/>
      <point x="118" y="732"/>
      <point x="163" y="732" type="curve"/>
      <point x="159" y="736"/>
      <point x="153" y="739"/>
      <point x="149" y="744" type="curve"/>
      <point x="144" y="748"/>
      <point x="140" y="753"/>
      <point x="136" y="757" type="curve"/>
      <point x="136" y="468"/>
      <point x="136" y="179"/>
      <point x="136" y="-111" type="curve"/>
      <point x="140" y="-106"/>
      <point x="145" y="-101"/>
      <point x="150" y="-96" type="curve"/>
      <point x="154" y="-92"/>
      <point x="160" y="-89"/>
      <point x="164" y="-84" type="curve"/>
      <point x="119" y="-84"/>
      <point x="74" y="-84"/>
      <point x="29" y="-84" type="curve"/>
      <point x="29" y="-122"/>
      <point x="29" y="-84"/>
      <point x="29" y="-122" type="curve"/>
      <point x="74" y="-122"/>
      <point x="119" y="-122"/>
      <point x="164" y="-122" type="curve"/>
      <point x="178" y="-122"/>
      <point x="164" y="-122"/>
      <point x="178" y="-122" type="curve"/>
      <point x="178" y="-111"/>
      <point x="178" y="-122"/>
      <point x="178" y="-111" type="curve"/>
      <point x="178" y="179"/>
      <point x="178" y="468"/>
      <point x="178" y="757" type="curve"/>
      <point x="178" y="771"/>
      <point x="178" y="757"/>
      <point x="178" y="771" type="curve"/>
      <point x="163" y="771"/>
      <point x="178" y="771"/>
      <point x="163" y="771" type="curve"/>
      <point x="118" y="771"/>
      <point x="74" y="771"/>
      <point x="29" y="771" type="curve"/>
      <point x="29" y="732"/>
      <point x="29" y="771"/>
    </contour>
  </outline>
</glyph>
<glyph name="asciicircum" format="1">
  <advance width="464"/>
  <unicode hex="005E"/>
  <outline>
    <contour>
      <point x="99" y="464" type="curve"/>
      <point x="150" y="577"/>
      <point x="201" y="689"/>
      <point x="252" y="802" type="curve"/>
      <point x="210" y="802"/>
      <point x="251" y="802"/>
      <point x="210" y="802" type="curve"/>
      <point x="159" y="689"/>
      <point x="108" y="577"/>
      <point x="57" y="464" type="curve"/>
      <point x="99" y="464"/>
      <point x="57" y="464"/>
    </contour>
    <contour>
      <point x="407" y="464" type="curve"/>
      <point x="357" y="573"/>
      <point x="302" y="692"/>
      <point x="252" y="802" type="curve"/>
      <point x="211" y="802"/>
      <point x="252" y="802"/>
      <point x="210" y="802" type="curve"/>
      <point x="260" y="692"/>
      <point x="314" y="573"/>
      <point x="364" y="464" type="curve"/>
      <point x="406" y="464"/>
      <point x="365" y="464"/>
    </contour>
  </outline>
</glyph>
<glyph name="grave" format="1">
  <advance width="292"/>
  <unicode hex="0060"/>
  <outline>
    <contour>
      <point x="270" y="588" type="line"/>
      <point x="171" y="754" type="line"/>
      <point x="116" y="754" type="line"/>
      <point x="227" y="588" type="line"/>
    </contour>
    <contour>
      <point x="246" y="588" type="move" name="_top"/>
    </contour>
  </outline>
</glyph>
<glyph name="b" format="1">
  <advance width="574"/>
  <unicode hex="0062"/>
  <outline>
    <contour>
      <point x="133" y="396" type="curve"/>
      <point x="161" y="443"/>
      <point x="224" y="502"/>
      <point x="304" y="502" type="curve"/>
      <point x="419" y="502"/>
      <point x="470" y="397"/>
      <point x="470" y="267" type="curve"/>
      <point x="470" y="141"/>
      <point x="414" y="30"/>
      <point x="304" y="31" type="curve"/>
      <point x="233" y="31"/>
      <point x="177" y="74"/>
      <point x="136" y="136" type="curve"/>
      <point x="112" y="118"/>
      <point x="135" y="131"/>
      <point x="112" y="114" type="curve"/>
      <point x="160" y="43"/>
      <point x="220" y="-5"/>
      <point x="307" y="-5" type="curve"/>
      <point x="447" y="-5"/>
      <point x="512" y="114"/>
      <point x="512" y="268" type="curve"/>
      <point x="512" y="419"/>
      <point x="448" y="538"/>
      <point x="308" y="538" type="curve"/>
      <point x="215" y="538"/>
      <point x="146" y="479"/>
      <point x="114" y="423" type="curve"/>
      <point x="131" y="402"/>
      <point x="115" y="416"/>
    </contour>
    <contour>
      <point x="143" y="0" type="curve"/>
      <point x="143" y="269"/>
      <point x="143" y="531"/>
      <point x="143" y="800" type="curve"/>
      <point x="105" y="800"/>
      <point x="139" y="800"/>
      <point x="101" y="800" type="curve"/>
      <point x="101" y="531"/>
      <point x="101" y="269"/>
      <point x="101" y="0" type="curve"/>
      <point x="139" y="0"/>
      <point x="105" y="0"/>
    </contour>
  </outline>
</glyph>
<glyph name="f" format="1">
  <advance width="395"/>
  <unicode hex="0066"/>
  <outline>
    <contour>
      <point x="22" y="498" type="curve"/>
      <point x="369" y="498" type="line"/>
      <point x="369" y="533"/>
      <point x="369" y="498"/>
      <point x="369" y="533" type="curve"/>
      <point x="22" y="533" type="line"/>
      <point x="22" y="498"/>
      <point x="22" y="533"/>
    </contour>
    <contour>
      <point x="205" y="0" type="curve"/>
      <point x="205" y="635" type="line"/>
      <point x="205" y="713"/>
      <point x="235" y="771"/>
      <point x="305" y="771" type="curve"/>
      <point x="334" y="771"/>
      <point x="361" y="761"/>
      <point x="386" y="747" type="curve"/>
      <point x="403" y="775"/>
      <point x="386" y="747"/>
      <point x="403" y="775" type="curve"/>
      <point x="373" y="791"/>
      <point x="339" y="805"/>
      <point x="305" y="805" type="curve"/>
      <point x="211" y="805"/>
      <point x="162" y="733"/>
      <point x="163" y="635" type="curve"/>
      <point x="163" y="0" type="line"/>
      <point x="205" y="0"/>
      <point x="163" y="0"/>
    </contour>
  </outline>
</glyph>
<glyph name="h" format="1">
  <advance width="562"/>
  <unicode hex="0068"/>
  <outline>
    <contour>
      <point x="133" y="344" type="curve"/>
      <point x="156" y="425"/>
      <point x="221" y="502"/>
      <point x="304" y="502" type="curve"/>
      <point x="396" y="502"/>
      <point x="427" y="433"/>
      <point x="427" y="336" type="curve"/>
      <point x="427" y="224"/>
      <point x="427" y="112"/>
      <point x="427" y="0" type="curve"/>
      <point x="469" y="0"/>
      <point x="427" y="0"/>
      <point x="469" y="0" type="curve"/>
      <point x="469" y="114"/>
      <point x="469" y="227"/>
      <point x="469" y="340" type="curve"/>
      <point x="469" y="459"/>
      <point x="425" y="537"/>
      <point x="312" y="537" type="curve"/>
      <point x="216" y="537"/>
      <point x="138" y="459"/>
      <point x="116" y="365" type="curve"/>
      <point x="135" y="346"/>
      <point x="114" y="364"/>
    </contour>
    <contour>
      <point x="143" y="0" type="curve"/>
      <point x="143" y="267"/>
      <point x="143" y="533"/>
      <point x="143" y="800" type="curve"/>
      <point x="101" y="800"/>
      <point x="143" y="800"/>
      <point x="101" y="800" type="curve"/>
      <point x="101" y="533"/>
      <point x="101" y="267"/>
      <point x="101" y="0" type="curve"/>
      <point x="143" y="0"/>
      <point x="101" y="0"/>
    </contour>
  </outline>
</glyph>
<glyph name="i" format="1">
  <advance width="253"/>
  <unicode hex="0069"/>
  <outline>
    <contour>
      <point x="148" y="0" type="curve"/>
      <point x="148" y="178"/>
      <point x="148" y="355"/>
      <point x="148" y="533" type="curve"/>
      <point x="104" y="533"/>
      <point x="148" y="533"/>
      <point x="104" y="533" type="curve"/>
      <point x="104" y="355"/>
      <point x="104" y="178"/>
      <point x="104" y="0" type="curve"/>
      <point x="148" y="0"/>
      <point x="104" y="0"/>
    </contour>
    <contour>
      <point x="153" y="686" type="curve"/>
      <point x="153" y="703"/>
      <point x="141" y="713"/>
      <point x="124" y="713" type="curve"/>
      <point x="107" y="713"/>
      <point x="97" y="702"/>
      <point x="97" y="686" type="curve"/>
      <point x="147" y="686"/>
      <point x="103" y="686"/>
      <point x="153" y="686" type="curve"/>
      <point x="153" y="668"/>
      <point x="141" y="659"/>
      <point x="124" y="659" type="curve"/>
      <point x="107" y="659"/>
      <point x="97" y="669"/>
      <point x="97" y="686" type="curve"/>
      <point x="147" y="686"/>
      <point x="103" y="686"/>
    </contour>
    <contour>
      <point x="124" y="662" type="move" name="top"/>
    </contour>
    <contour>
      <point x="147" y="1" type="move" name="bottom"/>
    </contour>
  </outline>
</glyph>
<glyph name="j" format="1">
  <advance width="228"/>
  <unicode hex="006A"/>
  <outline>
    <contour>
      <point x="-38" y="-301" type="curve"/>
      <point x="-30" y="-302"/>
      <point x="-20" y="-304"/>
      <point x="-10" y="-304" type="curve"/>
      <point x="82" y="-304"/>
      <point x="140" y="-234"/>
      <point x="140" y="-139" type="curve"/>
      <point x="140" y="85"/>
      <point x="140" y="309"/>
      <point x="140" y="533" type="curve"/>
      <point x="98" y="533"/>
      <point x="140" y="533"/>
      <point x="98" y="533" type="curve"/>
      <point x="98" y="309"/>
      <point x="98" y="85"/>
      <point x="98" y="-139" type="curve"/>
      <point x="98" y="-208"/>
      <point x="58" y="-267"/>
      <point x="-9" y="-267" type="curve"/>
      <point x="-16" y="-267"/>
      <point x="-25" y="-266"/>
      <point x="-31" y="-265" type="curve"/>
      <point x="-37" y="-299"/>
      <point x="-31" y="-268"/>
    </contour>
    <contour>
      <point x="149" y="685" type="curve"/>
      <point x="149" y="703"/>
      <point x="137" y="712"/>
      <point x="120" y="712" type="curve"/>
      <point x="103" y="712"/>
      <point x="92" y="702"/>
      <point x="92" y="685" type="curve"/>
      <point x="143" y="685"/>
      <point x="98" y="685"/>
      <point x="149" y="685" type="curve"/>
      <point x="149" y="668"/>
      <point x="137" y="659"/>
      <point x="120" y="659" type="curve"/>
      <point x="102" y="659"/>
      <point x="92" y="668"/>
      <point x="92" y="685" type="curve"/>
      <point x="143" y="685"/>
      <point x="98" y="685"/>
    </contour>
  </outline>
</glyph>
<glyph name="k" format="1">
  <advance width="465"/>
  <unicode hex="006B"/>
  <outline>
    <contour>
      <point x="143" y="0" type="curve"/>
      <point x="143" y="800" type="line"/>
      <point x="101" y="800"/>
      <point x="143" y="800"/>
      <point x="101" y="800" type="curve"/>
      <point x="101" y="533"/>
      <point x="101" y="267"/>
      <point x="101" y="0" type="curve"/>
      <point x="143" y="0"/>
      <point x="101" y="0"/>
    </contour>
    <contour>
      <point x="365" y="533" type="curve"/>
      <point x="127" y="275" type="line"/>
      <point x="182" y="275"/>
      <point x="127" y="275"/>
      <point x="181" y="275" type="curve"/>
      <point x="421" y="533" type="line"/>
      <point x="367" y="533"/>
      <point x="419" y="533"/>
    </contour>
    <contour>
      <point x="443" y="0" type="curve"/>
      <point x="181" y="275" type="line"/>
      <point x="127" y="275"/>
      <point x="182" y="275"/>
      <point x="127" y="275" type="curve"/>
      <point x="387" y="0" type="line"/>
      <point x="441" y="0"/>
      <point x="390" y="0"/>
    </contour>
    <contour>
      <point x="312" y="-50" type="move" name="bottom"/>
    </contour>
  </outline>
</glyph>
<glyph name="m" format="1">
  <advance width="819"/>
  <unicode hex="006D"/>
  <outline>
    <contour>
      <point x="424" y="341" type="curve"/>
      <point x="453" y="426"/>
      <point x="498" y="503"/>
      <point x="576" y="503" type="curve"/>
      <point x="668" y="503"/>
      <point x="682" y="438"/>
      <point x="682" y="336" type="curve"/>
      <point x="682" y="225"/>
      <point x="682" y="112"/>
      <point x="682" y="0" type="curve"/>
      <point x="725" y="0"/>
      <point x="682" y="0"/>
      <point x="725" y="0" type="curve"/>
      <point x="725" y="114"/>
      <point x="725" y="227"/>
      <point x="725" y="340" type="curve"/>
      <point x="725" y="462"/>
      <point x="700" y="538"/>
      <point x="587" y="538" type="curve"/>
      <point x="489" y="538"/>
      <point x="434" y="460"/>
      <point x="407" y="360" type="curve"/>
      <point x="425" y="342"/>
      <point x="406" y="360"/>
    </contour>
    <contour>
      <point x="134" y="342" type="curve"/>
      <point x="160" y="425"/>
      <point x="205" y="503"/>
      <point x="285" y="503" type="curve"/>
      <point x="376" y="503"/>
      <point x="392" y="438"/>
      <point x="392" y="336" type="curve"/>
      <point x="392" y="225"/>
      <point x="392" y="112"/>
      <point x="392" y="0" type="curve"/>
      <point x="434" y="0"/>
      <point x="392" y="0"/>
      <point x="434" y="0" type="curve"/>
      <point x="434" y="114"/>
      <point x="434" y="227"/>
      <point x="434" y="340" type="curve"/>
      <point x="434" y="462"/>
      <point x="409" y="539"/>
      <point x="297" y="539" type="curve"/>
      <point x="197" y="539"/>
      <point x="144" y="462"/>
      <point x="116" y="360" type="curve"/>
      <point x="134" y="342"/>
      <point x="116" y="360"/>
    </contour>
    <contour>
      <point x="143" y="0" type="curve"/>
      <point x="143" y="178"/>
      <point x="143" y="355"/>
      <point x="143" y="533" type="curve"/>
      <point x="101" y="533"/>
      <point x="143" y="533"/>
      <point x="101" y="533" type="curve"/>
      <point x="101" y="355"/>
      <point x="101" y="178"/>
      <point x="101" y="0" type="curve"/>
      <point x="143" y="0"/>
      <point x="101" y="0"/>
    </contour>
  </outline>
</glyph>
<glyph name="p" format="1">
  <advance width="577"/>
  <unicode hex="0070"/>
  <outline>
    <contour>
      <point x="132" y="393" type="curve"/>
      <point x="160" y="445"/>
      <point x="227" y="503"/>
      <point x="306" y="503" type="curve"/>
      <point x="425" y="503"/>
      <point x="474" y="401"/>
      <point x="474" y="274" type="curve"/>
      <point x="476" y="139"/>
      <point x="426" y="30"/>
      <point x="306" y="30" type="curve"/>
      <point x="230" y="30"/>
      <point x="180" y="71"/>
      <point x="134" y="129" type="curve"/>
      <point x="114" y="112"/>
      <point x="133" y="127"/>
      <point x="113" y="110" type="curve"/>
      <point x="163" y="39"/>
      <point x="222" y="-5"/>
      <point x="310" y="-5" type="curve"/>
      <point x="458" y="-5"/>
      <point x="516" y="121"/>
      <point x="516" y="276" type="curve"/>
      <point x="516" y="423"/>
      <point x="454" y="538"/>
      <point x="312" y="538" type="curve"/>
      <point x="219" y="538"/>
      <point x="150" y="481"/>
      <point x="115" y="423" type="curve"/>
      <point x="133" y="396"/>
      <point x="114" y="419"/>
    </contour>
    <contour>
      <point x="143" y="-300" type="curve"/>
      <point x="143" y="-22"/>
      <point x="143" y="255"/>
      <point x="143" y="533" type="curve"/>
      <point x="101" y="533"/>
      <point x="143" y="533"/>
      <point x="101" y="533" type="curve"/>
      <point x="101" y="255"/>
      <point x="101" y="-22"/>
      <point x="101" y="-300" type="curve"/>
      <point x="143" y="-300"/>
      <point x="101" y="-300"/>
    </contour>
  </outline>
</glyph>
<glyph name="q" format="1">
  <advance width="579"/>
  <unicode hex="0071"/>
  <outline>
    <contour>
      <point x="464" y="430" type="curve"/>
      <point x="419" y="500"/>
      <point x="344" y="538"/>
      <point x="267" y="538" type="curve"/>
      <point x="121" y="538"/>
      <point x="62" y="417"/>
      <point x="62" y="264" type="curve"/>
      <point x="62" y="112"/>
      <point x="126" y="-6"/>
      <point x="271" y="-6" type="curve"/>
      <point x="354" y="-6"/>
      <point x="425" y="51"/>
      <point x="464" y="123" type="curve"/>
      <point x="446" y="142"/>
      <point x="464" y="129"/>
      <point x="446" y="148" type="curve"/>
      <point x="410" y="81"/>
      <point x="347" y="29"/>
      <point x="275" y="29" type="curve"/>
      <point x="155" y="29"/>
      <point x="105" y="134"/>
      <point x="105" y="266" type="curve"/>
      <point x="105" y="396"/>
      <point x="153" y="502"/>
      <point x="272" y="502" type="curve"/>
      <point x="339" y="502"/>
      <point x="405" y="467"/>
      <point x="448" y="404" type="curve"/>
      <point x="463" y="424"/>
      <point x="449" y="410"/>
    </contour>
    <contour>
      <point x="478" y="-300" type="curve"/>
      <point x="478" y="-21"/>
      <point x="478" y="254"/>
      <point x="478" y="533" type="curve"/>
      <point x="438" y="533"/>
      <point x="474" y="533"/>
      <point x="434" y="533" type="curve"/>
      <point x="434" y="254"/>
      <point x="434" y="-21"/>
      <point x="434" y="-300" type="curve"/>
      <point x="474" y="-300"/>
      <point x="438" y="-300"/>
    </contour>
  </outline>
</glyph>
<glyph name="r" format="1">
  <advance width="354"/>
  <unicode hex="0072"/>
  <outline>
    <contour>
      <point x="143" y="0" type="curve"/>
      <point x="143" y="179"/>
      <point x="143" y="354"/>
      <point x="143" y="533" type="curve"/>
      <point x="105" y="533"/>
      <point x="139" y="533"/>
      <point x="101" y="533" type="curve"/>
      <point x="101" y="354"/>
      <point x="101" y="179"/>
      <point x="101" y="0" type="curve"/>
      <point x="139" y="0"/>
      <point x="105" y="0"/>
    </contour>
    <contour>
      <point x="133" y="353" type="curve"/>
      <point x="165" y="452"/>
      <point x="250" y="501"/>
      <point x="342" y="501" type="curve"/>
      <point x="342" y="538"/>
      <point x="342" y="502"/>
      <point x="342" y="538" type="curve"/>
      <point x="239" y="538"/>
      <point x="149" y="481"/>
      <point x="116" y="381" type="curve"/>
      <point x="133" y="361"/>
      <point x="119" y="370"/>
    </contour>
    <contour>
      <point x="129" y="662" type="move" name="top"/>
    </contour>
    <contour>
      <point x="138" y="-48" type="move" name="bottom"/>
    </contour>
  </outline>
</glyph>
<glyph name="s" format="1">
  <advance width="425"/>
  <unicode hex="0073"/>
  <outline>
    <contour>
      <point x="47" y="49" type="curve"/>
      <point x="102" y="17"/>
      <point x="156" y="-5"/>
      <point x="217" y="-5" type="curve"/>
      <point x="315" y="-5"/>
      <point x="374" y="45"/>
      <point x="374" y="138" type="curve"/>
      <point x="373" y="231"/>
      <point x="306" y="262"/>
      <point x="217" y="294" type="curve" smooth="yes"/>
      <point x="151" y="318"/>
      <point x="108" y="349"/>
      <point x="108" y="415" type="curve"/>
      <point x="108" y="469"/>
      <point x="144" y="502"/>
      <point x="204" y="502" type="curve"/>
      <point x="249" y="502"/>
      <point x="291" y="485"/>
      <point x="324" y="461" type="curve"/>
      <point x="339" y="484"/>
      <point x="329" y="468"/>
      <point x="343" y="492" type="curve"/>
      <point x="306" y="519"/>
      <point x="257" y="538"/>
      <point x="205" y="538" type="curve"/>
      <point x="122" y="538"/>
      <point x="69" y="493"/>
      <point x="69" y="415" type="curve"/>
      <point x="69" y="330"/>
      <point x="121" y="290"/>
      <point x="203" y="261" type="curve" smooth="yes"/>
      <point x="275" y="234"/>
      <point x="333" y="211"/>
      <point x="333" y="137" type="curve"/>
      <point x="333" y="71"/>
      <point x="289" y="31"/>
      <point x="223" y="31" type="curve"/>
      <point x="165" y="31"/>
      <point x="118" y="51"/>
      <point x="67" y="81" type="curve"/>
      <point x="47" y="49"/>
      <point x="67" y="81"/>
    </contour>
    <contour>
      <point x="210" y="662" type="move" name="top"/>
    </contour>
    <contour>
      <point x="229" y="-50" type="move" name="bottom"/>
    </contour>
  </outline>
</glyph>
<glyph name="t" format="1">
  <advance width="363"/>
  <unicode hex="0074"/>
  <outline>
    <contour>
      <point x="15" y="498" type="curve"/>
      <point x="355" y="498" type="line"/>
      <point x="355" y="533"/>
      <point x="355" y="498"/>
      <point x="355" y="533" type="curve"/>
      <point x="15" y="533" type="line"/>
      <point x="15" y="498"/>
      <point x="15" y="533"/>
    </contour>
    <contour>
      <point x="331" y="58" type="curve"/>
      <point x="305" y="42"/>
      <point x="284" y="32"/>
      <point x="252" y="32" type="curve"/>
      <point x="191" y="32"/>
      <point x="171" y="78"/>
      <point x="171" y="149" type="curve"/>
      <point x="171" y="679" type="line"/>
      <point x="150" y="667"/>
      <point x="149" y="661"/>
      <point x="129" y="648" type="curve"/>
      <point x="129" y="147" type="line"/>
      <point x="129" y="53"/>
      <point x="162" y="-5"/>
      <point x="248" y="-5" type="curve"/>
      <point x="288" y="-5"/>
      <point x="315" y="6"/>
      <point x="349" y="26" type="curve"/>
      <point x="331" y="58"/>
      <point x="349" y="26"/>
    </contour>
    <contour>
      <point x="255" y="-49" type="move" name="bottom"/>
    </contour>
  </outline>
</glyph>
<glyph name="v" format="1">
  <advance width="477"/>
  <unicode hex="0076"/>
  <outline>
    <contour>
      <point x="31" y="533" type="curve"/>
      <point x="92" y="355"/>
      <point x="153" y="178"/>
      <point x="213" y="0" type="curve"/>
      <point x="254" y="0"/>
      <point x="213" y="0"/>
      <point x="254" y="0" type="curve"/>
      <point x="194" y="178"/>
      <point x="135" y="355"/>
      <point x="76" y="533" type="curve"/>
      <point x="31" y="533"/>
      <point x="76" y="533"/>
    </contour>
    <contour>
      <point x="409" y="533" type="curve"/>
      <point x="220" y="0" type="line"/>
      <point x="262" y="0"/>
      <point x="220" y="0"/>
      <point x="262" y="0" type="curve"/>
      <point x="326" y="178"/>
      <point x="389" y="355"/>
      <point x="453" y="533" type="curve"/>
      <point x="409" y="533"/>
      <point x="453" y="533"/>
    </contour>
  </outline>
</glyph>
<glyph name="w" format="1">
  <advance width="769"/>
  <unicode hex="0077"/>
  <outline>
    <contour>
      <point x="233" y="0" type="curve"/>
      <point x="292" y="178"/>
      <point x="351" y="355"/>
      <point x="411" y="533" type="curve"/>
      <point x="368" y="533"/>
      <point x="411" y="533"/>
      <point x="368" y="533" type="curve"/>
      <point x="310" y="355"/>
      <point x="251" y="178"/>
      <point x="193" y="0" type="curve"/>
      <point x="233" y="0"/>
      <point x="193" y="0"/>
    </contour>
    <contour>
      <point x="698" y="533" type="curve"/>
      <point x="644" y="355"/>
      <point x="589" y="178"/>
      <point x="535" y="0" type="curve"/>
      <point x="574" y="0"/>
      <point x="535" y="0"/>
      <point x="574" y="0" type="curve"/>
      <point x="630" y="178"/>
      <point x="685" y="355"/>
      <point x="741" y="533" type="curve"/>
      <point x="698" y="533"/>
      <point x="741" y="533"/>
    </contour>
    <contour>
      <point x="374" y="533" type="curve"/>
      <point x="427" y="355"/>
      <point x="480" y="178"/>
      <point x="534" y="0" type="curve"/>
      <point x="573" y="0"/>
      <point x="534" y="0"/>
      <point x="573" y="0" type="curve"/>
      <point x="520" y="178"/>
      <point x="468" y="355"/>
      <point x="415" y="533" type="curve"/>
      <point x="374" y="533"/>
      <point x="415" y="533"/>
    </contour>
    <contour>
      <point x="32" y="533" type="curve"/>
      <point x="86" y="355"/>
      <point x="139" y="178"/>
      <point x="192" y="0" type="curve"/>
      <point x="232" y="0"/>
      <point x="192" y="0"/>
      <point x="232" y="0" type="curve"/>
      <point x="179" y="178"/>
      <point x="127" y="355"/>
      <point x="75" y="533" type="curve"/>
      <point x="32" y="533"/>
      <point x="75" y="533"/>
    </contour>
  </outline>
</glyph>
<glyph name="x" format="1">
  <advance width="468"/>
  <unicode hex="0078"/>
  <outline>
    <contour>
      <point x="450" y="0" type="curve"/>
      <point x="346" y="152"/>
      <point x="182" y="381"/>
      <point x="78" y="533" type="curve"/>
      <point x="28" y="533"/>
      <point x="82" y="533"/>
      <point x="31" y="533" type="curve"/>
      <point x="135" y="381"/>
      <point x="298" y="152"/>
      <point x="400" y="0" type="curve"/>
      <point x="450" y="0"/>
      <point x="400" y="0"/>
    </contour>
    <contour>
      <point x="392" y="533" type="curve"/>
      <point x="287" y="381"/>
      <point x="120" y="152"/>
      <point x="16" y="0" type="curve"/>
      <point x="66" y="0"/>
      <point x="16" y="0"/>
      <point x="66" y="0" type="curve"/>
      <point x="170" y="152"/>
      <point x="334" y="381"/>
      <point x="438" y="533" type="curve"/>
      <point x="387" y="533"/>
      <point x="443" y="533"/>
    </contour>
  </outline>
</glyph>
<glyph name="y" format="1">
  <advance width="507"/>
  <unicode hex="0079"/>
  <outline>
    <contour>
      <point x="273" y="4" type="curve"/>
      <point x="243" y="63"/>
      <point x="101" y="473"/>
      <point x="70" y="533" type="curve"/>
      <point x="25" y="533"/>
      <point x="70" y="533"/>
      <point x="25" y="533" type="curve"/>
      <point x="56" y="473"/>
      <point x="202" y="56"/>
      <point x="234" y="-3" type="curve"/>
      <point x="273" y="-3"/>
      <point x="234" y="4"/>
    </contour>
    <contour>
      <point x="152" y="-300" type="curve"/>
      <point x="204" y="-207"/>
      <point x="440" y="440"/>
      <point x="492" y="533" type="curve"/>
      <point x="447" y="533"/>
      <point x="492" y="533"/>
      <point x="447" y="533" type="curve"/>
      <point x="395" y="440"/>
      <point x="158" y="-207"/>
      <point x="106" y="-300" type="curve"/>
      <point x="152" y="-300"/>
      <point x="106" y="-300"/>
    </contour>
    <contour>
      <point x="267" y="662" type="move" name="top"/>
    </contour>
  </outline>
</glyph>
<glyph name="braceleft" format="1">
  <advance width="246"/>
  <unicode hex="007B"/>
  <outline>
    <contour>
      <point x="218" y="-87" type="curve"/>
      <point x="155" y="-87"/>
      <point x="135" y="-35"/>
      <point x="135" y="32" type="curve"/>
      <point x="135" y="90"/>
      <point x="135" y="148"/>
      <point x="135" y="205" type="curve"/>
      <point x="135" y="293"/>
      <point x="97" y="357"/>
      <point x="15" y="357" type="curve"/>
      <point x="15" y="321"/>
      <point x="15" y="357"/>
      <point x="15" y="321" type="curve"/>
      <point x="74" y="321"/>
      <point x="97" y="273"/>
      <point x="97" y="209" type="curve"/>
      <point x="97" y="151"/>
      <point x="97" y="92"/>
      <point x="97" y="34" type="curve"/>
      <point x="97" y="-56"/>
      <point x="134" y="-121"/>
      <point x="218" y="-121" type="curve"/>
      <point x="218" y="-87"/>
      <point x="218" y="-121"/>
    </contour>
    <contour>
      <point x="218" y="799" type="curve"/>
      <point x="134" y="799"/>
      <point x="97" y="735"/>
      <point x="97" y="645" type="curve"/>
      <point x="97" y="585"/>
      <point x="97" y="526"/>
      <point x="97" y="467" type="curve"/>
      <point x="97" y="403"/>
      <point x="74" y="357"/>
      <point x="15" y="357" type="curve"/>
      <point x="15" y="321"/>
      <point x="15" y="357"/>
      <point x="15" y="321" type="curve"/>
      <point x="97" y="321"/>
      <point x="135" y="384"/>
      <point x="135" y="472" type="curve"/>
      <point x="135" y="529"/>
      <point x="135" y="587"/>
      <point x="135" y="645" type="curve"/>
      <point x="135" y="712"/>
      <point x="155" y="764"/>
      <point x="218" y="764" type="curve"/>
      <point x="218" y="799"/>
      <point x="218" y="764"/>
    </contour>
  </outline>
</glyph>
<glyph name="braceright" format="1">
  <advance width="247"/>
  <unicode hex="007D"/>
  <outline>
    <contour>
      <point x="28" y="-122" type="curve"/>
      <point x="112" y="-122"/>
      <point x="149" y="-56"/>
      <point x="149" y="34" type="curve"/>
      <point x="149" y="92"/>
      <point x="149" y="151"/>
      <point x="149" y="209" type="curve"/>
      <point x="149" y="273"/>
      <point x="171" y="320"/>
      <point x="230" y="320" type="curve"/>
      <point x="230" y="357"/>
      <point x="230" y="320"/>
      <point x="230" y="357" type="curve"/>
      <point x="149" y="357"/>
      <point x="111" y="292"/>
      <point x="111" y="205" type="curve"/>
      <point x="111" y="148"/>
      <point x="111" y="90"/>
      <point x="111" y="32" type="curve"/>
      <point x="111" y="-35"/>
      <point x="91" y="-87"/>
      <point x="28" y="-87" type="curve"/>
      <point x="28" y="-122"/>
      <point x="28" y="-87"/>
    </contour>
    <contour>
      <point x="28" y="763" type="curve"/>
      <point x="91" y="763"/>
      <point x="111" y="712"/>
      <point x="111" y="645" type="curve"/>
      <point x="111" y="587"/>
      <point x="111" y="529"/>
      <point x="111" y="472" type="curve"/>
      <point x="111" y="383"/>
      <point x="149" y="320"/>
      <point x="230" y="320" type="curve"/>
      <point x="230" y="357"/>
      <point x="230" y="320"/>
      <point x="230" y="357" type="curve"/>
      <point x="172" y="357"/>
      <point x="149" y="403"/>
      <point x="149" y="467" type="curve"/>
      <point x="149" y="526"/>
      <point x="149" y="585"/>
      <point x="149" y="645" type="curve"/>
      <point x="149" y="734"/>
      <point x="112" y="798"/>
      <point x="28" y="798" type="curve"/>
      <point x="28" y="763"/>
      <point x="28" y="798"/>
    </contour>
  </outline>
</glyph>
<glyph name="asciitilde" format="1">
  <advance width="628"/>
  <unicode hex="007E"/>
  <outline>
    <contour>
      <point x="506" y="349" type="curve"/>
      <point x="492" y="303"/>
      <point x="475" y="251"/>
      <point x="423" y="251" type="curve"/>
      <point x="382" y="251"/>
      <point x="357" y="268"/>
      <point x="327" y="296" type="curve"/>
      <point x="292" y="330"/>
      <point x="262" y="352"/>
      <point x="214" y="352" type="curve"/>
      <point x="135" y="352"/>
      <point x="105" y="303"/>
      <point x="87" y="228" type="curve"/>
      <point x="111" y="220"/>
      <point x="98" y="224"/>
      <point x="121" y="216" type="curve"/>
      <point x="134" y="270"/>
      <point x="154" y="316"/>
      <point x="211" y="316" type="curve"/>
      <point x="248" y="316"/>
      <point x="269" y="300"/>
      <point x="295" y="275" type="curve"/>
      <point x="335" y="239"/>
      <point x="366" y="216"/>
      <point x="421" y="216" type="curve"/>
      <point x="496" y="216"/>
      <point x="520" y="270"/>
      <point x="541" y="339" type="curve"/>
      <point x="517" y="346"/>
      <point x="531" y="343"/>
    </contour>
  </outline>
</glyph>
<glyph name="exclamdown" format="1">
  <advance width="242"/>
  <unicode hex="00A1"/>
  <outline>
    <contour>
      <point x="101" y="301" type="line"/>
      <point x="96" y="-192" type="line"/>
      <point x="147" y="-192" type="line"/>
      <point x="142" y="301" type="line"/>
    </contour>
    <contour>
      <point x="94" y="511" type="curve"/>
      <point x="94" y="494"/>
      <point x="105" y="485"/>
      <point x="121" y="485" type="curve"/>
      <point x="138" y="485"/>
      <point x="148" y="495"/>
      <point x="148" y="511" type="curve"/>
      <point x="99" y="511"/>
      <point x="142" y="511"/>
      <point x="94" y="511" type="curve"/>
      <point x="94" y="527"/>
      <point x="105" y="536"/>
      <point x="122" y="536" type="curve"/>
      <point x="138" y="536"/>
      <point x="148" y="527"/>
      <point x="148" y="511" type="curve"/>
      <point x="99" y="511"/>
      <point x="142" y="511"/>
    </contour>
  </outline>
</glyph>
<glyph name="cent" format="1">
  <advance width="570"/>
  <unicode hex="00A2"/>
  <outline>
    <contour>
      <point x="318" y="-53" type="curve"/>
      <point x="318" y="-13"/>
      <point x="318" y="27"/>
      <point x="318" y="67" type="curve"/>
      <point x="276" y="67"/>
      <point x="318" y="67"/>
      <point x="276" y="67" type="curve"/>
      <point x="276" y="27"/>
      <point x="276" y="-13"/>
      <point x="276" y="-53" type="curve"/>
      <point x="318" y="-53"/>
      <point x="276" y="-53"/>
    </contour>
    <contour>
      <point x="294" y="778" type="curve"/>
      <point x="294" y="742"/>
      <point x="294" y="706"/>
      <point x="294" y="670" type="curve"/>
      <point x="336" y="670"/>
      <point x="294" y="670"/>
      <point x="336" y="670" type="curve"/>
      <point x="336" y="706"/>
      <point x="336" y="742"/>
      <point x="336" y="778" type="curve"/>
      <point x="294" y="778"/>
      <point x="336" y="778"/>
    </contour>
    <contour>
      <point x="513" y="606" type="curve"/>
      <point x="451" y="658"/>
      <point x="398" y="680"/>
      <point x="320" y="680" type="curve"/>
      <point x="144" y="680"/>
      <point x="56" y="551"/>
      <point x="56" y="366" type="curve"/>
      <point x="56" y="186"/>
      <point x="127" y="53"/>
      <point x="295" y="53" type="curve"/>
      <point x="384" y="53"/>
      <point x="445" y="85"/>
      <point x="512" y="147" type="curve"/>
      <point x="485" y="174"/>
      <point x="512" y="147"/>
      <point x="485" y="174" type="curve"/>
      <point x="427" y="120"/>
      <point x="377" y="89"/>
      <point x="298" y="89" type="curve"/>
      <point x="156" y="89"/>
      <point x="98" y="209"/>
      <point x="98" y="367" type="curve"/>
      <point x="98" y="528"/>
      <point x="170" y="644"/>
      <point x="316" y="644" type="curve"/>
      <point x="387" y="644"/>
      <point x="435" y="623"/>
      <point x="488" y="579" type="curve"/>
      <point x="513" y="606"/>
      <point x="488" y="579"/>
    </contour>
  </outline>
</glyph>
<glyph name="sterling" format="1">
  <advance width="466"/>
  <unicode hex="00A3"/>
  <outline>
    <contour>
      <point x="395" y="35" type="curve"/>
      <point x="275" y="35"/>
      <point x="159" y="35"/>
      <point x="41" y="35" type="curve"/>
      <point x="41" y="0"/>
      <point x="41" y="35"/>
      <point x="41" y="0" type="curve"/>
      <point x="159" y="0"/>
      <point x="277" y="0"/>
      <point x="395" y="0" type="curve"/>
      <point x="395" y="35"/>
      <point x="395" y="0"/>
    </contour>
    <contour>
      <point x="353" y="394" type="curve"/>
      <point x="259" y="394"/>
      <point x="164" y="394"/>
      <point x="71" y="394" type="curve"/>
      <point x="71" y="359"/>
      <point x="71" y="394"/>
      <point x="71" y="359" type="curve"/>
      <point x="164" y="359"/>
      <point x="259" y="359"/>
      <point x="353" y="359" type="curve"/>
      <point x="353" y="394"/>
      <point x="353" y="359"/>
    </contour>
    <contour>
      <point x="409" y="674" type="curve"/>
      <point x="369" y="708"/>
      <point x="337" y="724"/>
      <point x="286" y="724" type="curve"/>
      <point x="132" y="724"/>
      <point x="111" y="562"/>
      <point x="146" y="373" type="curve"/>
      <point x="178" y="197"/>
      <point x="178" y="35"/>
      <point x="41" y="35" type="curve"/>
      <point x="41" y="0"/>
      <point x="41" y="35"/>
      <point x="41" y="0" type="curve"/>
      <point x="212" y="0"/>
      <point x="221" y="179"/>
      <point x="186" y="380" type="curve"/>
      <point x="157" y="542"/>
      <point x="166" y="690"/>
      <point x="284" y="690" type="curve"/>
      <point x="327" y="690"/>
      <point x="355" y="674"/>
      <point x="386" y="648" type="curve"/>
      <point x="409" y="674"/>
      <point x="386" y="648"/>
    </contour>
  </outline>
</glyph>
<glyph name="currency" format="1">
  <advance width="610"/>
  <unicode hex="00A4"/>
  <outline>
    <contour>
      <point x="196" y="311" type="curve"/>
      <point x="196" y="390"/>
      <point x="231" y="449"/>
      <point x="306" y="449" type="curve"/>
      <point x="381" y="449"/>
      <point x="413" y="391"/>
      <point x="413" y="311" type="curve"/>
      <point x="413" y="230"/>
      <point x="384" y="167"/>
      <point x="309" y="167" type="curve"/>
      <point x="230" y="167"/>
      <point x="196" y="228"/>
      <point x="196" y="311" type="curve"/>
      <point x="155" y="311"/>
      <point x="197" y="311"/>
      <point x="155" y="311" type="curve"/>
      <point x="155" y="205"/>
      <point x="207" y="132"/>
      <point x="308" y="132" type="curve"/>
      <point x="407" y="132"/>
      <point x="455" y="208"/>
      <point x="455" y="312" type="curve"/>
      <point x="455" y="413"/>
      <point x="405" y="484"/>
      <point x="309" y="484" type="curve"/>
      <point x="209" y="484"/>
      <point x="155" y="414"/>
      <point x="155" y="311" type="curve"/>
      <point x="197" y="311"/>
      <point x="155" y="311"/>
    </contour>
    <contour>
      <point x="401" y="410" type="line"/>
      <point x="541" y="543" type="line"/>
      <point x="507" y="577" type="line"/>
      <point x="373" y="438" type="line"/>
    </contour>
    <contour>
      <point x="375" y="184" type="line"/>
      <point x="508" y="45" type="line"/>
      <point x="542" y="79" type="line"/>
      <point x="403" y="212" type="line"/>
    </contour>
    <contour>
      <point x="206" y="213" type="line"/>
      <point x="67" y="79" type="line"/>
      <point x="100" y="45" type="line"/>
      <point x="234" y="185" type="line"/>
    </contour>
    <contour>
      <point x="238" y="439" type="line"/>
      <point x="104" y="578" type="line"/>
      <point x="70" y="544" type="line"/>
      <point x="209" y="411" type="line"/>
    </contour>
  </outline>
</glyph>
<glyph name="yen" format="1">
  <advance width="559"/>
  <unicode hex="00A5"/>
  <outline>
    <contour>
      <point x="478" y="379" type="curve"/>
      <point x="416" y="379"/>
      <point x="355" y="379"/>
      <point x="293" y="379" type="curve"/>
      <point x="293" y="341"/>
      <point x="293" y="379"/>
      <point x="293" y="341" type="curve"/>
      <point x="355" y="341"/>
      <point x="416" y="341"/>
      <point x="478" y="341" type="curve"/>
      <point x="478" y="379"/>
      <point x="478" y="341"/>
    </contour>
    <contour>
      <point x="268" y="379" type="curve"/>
      <point x="207" y="379"/>
      <point x="147" y="379"/>
      <point x="86" y="379" type="curve"/>
      <point x="86" y="341"/>
      <point x="86" y="379"/>
      <point x="86" y="341" type="curve"/>
      <point x="147" y="341"/>
      <point x="207" y="341"/>
      <point x="268" y="341" type="curve"/>
      <point x="268" y="379"/>
      <point x="268" y="341"/>
    </contour>
    <contour>
      <point x="478" y="256" type="curve"/>
      <point x="347" y="256"/>
      <point x="217" y="256"/>
      <point x="86" y="256" type="curve"/>
      <point x="86" y="218"/>
      <point x="86" y="256"/>
      <point x="86" y="218" type="curve"/>
      <point x="217" y="218"/>
      <point x="347" y="218"/>
      <point x="478" y="218" type="curve"/>
      <point x="478" y="256"/>
      <point x="478" y="218"/>
    </contour>
    <contour>
      <point x="48" y="722" type="curve"/>
      <point x="117" y="595"/>
      <point x="187" y="465"/>
      <point x="255" y="337" type="curve"/>
      <point x="299" y="337"/>
      <point x="252" y="338"/>
      <point x="297" y="338" type="curve"/>
      <point x="229" y="466"/>
      <point x="162" y="594"/>
      <point x="95" y="722" type="curve"/>
      <point x="50" y="722"/>
      <point x="93" y="722"/>
    </contour>
    <contour>
      <point x="471" y="722" type="curve"/>
      <point x="400" y="594"/>
      <point x="329" y="466"/>
      <point x="257" y="338" type="curve"/>
      <point x="301" y="338"/>
      <point x="256" y="337"/>
      <point x="300" y="337" type="curve"/>
      <point x="372" y="465"/>
      <point x="445" y="595"/>
      <point x="517" y="722" type="curve"/>
      <point x="473" y="722"/>
      <point x="516" y="722"/>
    </contour>
    <contour>
      <point x="300" y="0" type="curve"/>
      <point x="300" y="115"/>
      <point x="300" y="230"/>
      <point x="300" y="345" type="curve"/>
      <point x="254" y="345"/>
      <point x="300" y="345"/>
      <point x="254" y="345" type="curve"/>
      <point x="254" y="230"/>
      <point x="254" y="115"/>
      <point x="254" y="0" type="curve"/>
      <point x="300" y="0"/>
      <point x="254" y="0"/>
    </contour>
  </outline>
</glyph>
<glyph name="section" format="1">
  <advance width="449"/>
  <unicode hex="00A7"/>
  <outline>
    <contour>
      <point x="359" y="708" type="curve"/>
      <point x="314" y="736"/>
      <point x="280" y="751"/>
      <point x="227" y="751" type="curve"/>
      <point x="143" y="751"/>
      <point x="93" y="702"/>
      <point x="93" y="622" type="curve"/>
      <point x="93" y="548"/>
      <point x="136" y="505"/>
      <point x="206" y="476" type="curve"/>
      <point x="279" y="447"/>
      <point x="349" y="432"/>
      <point x="349" y="361" type="curve"/>
      <point x="349" y="294"/>
      <point x="313" y="252"/>
      <point x="245" y="236" type="curve"/>
      <point x="270" y="208"/>
      <point x="245" y="236"/>
      <point x="270" y="208" type="curve"/>
      <point x="349" y="230"/>
      <point x="391" y="281"/>
      <point x="391" y="361" type="curve"/>
      <point x="390" y="451"/>
      <point x="315" y="477"/>
      <point x="227" y="509" type="curve"/>
      <point x="171" y="531"/>
      <point x="133" y="564"/>
      <point x="133" y="622" type="curve"/>
      <point x="133" y="679"/>
      <point x="165" y="717"/>
      <point x="225" y="717" type="curve"/>
      <point x="271" y="717"/>
      <point x="301" y="703"/>
      <point x="339" y="680" type="curve"/>
      <point x="359" y="708"/>
      <point x="339" y="680"/>
    </contour>
    <contour>
      <point x="178" y="515" type="curve"/>
      <point x="105" y="489"/>
      <point x="63" y="443"/>
      <point x="63" y="367" type="curve"/>
      <point x="63" y="281"/>
      <point x="128" y="247"/>
      <point x="212" y="216" type="curve"/>
      <point x="273" y="192"/>
      <point x="325" y="167"/>
      <point x="325" y="105" type="curve"/>
      <point x="325" y="45"/>
      <point x="288" y="6"/>
      <point x="227" y="6" type="curve"/>
      <point x="174" y="6"/>
      <point x="141" y="24"/>
      <point x="99" y="56" type="curve"/>
      <point x="75" y="30"/>
      <point x="99" y="56"/>
      <point x="75" y="30" type="curve"/>
      <point x="123" y="-10"/>
      <point x="165" y="-29"/>
      <point x="226" y="-29" type="curve"/>
      <point x="311" y="-29"/>
      <point x="366" y="20"/>
      <point x="366" y="105" type="curve"/>
      <point x="365" y="182"/>
      <point x="314" y="221"/>
      <point x="239" y="249" type="curve"/>
      <point x="168" y="276"/>
      <point x="105" y="298"/>
      <point x="105" y="367" type="curve"/>
      <point x="105" y="430"/>
      <point x="138" y="467"/>
      <point x="199" y="490" type="curve"/>
      <point x="178" y="515"/>
      <point x="199" y="490"/>
    </contour>
  </outline>
</glyph>
<glyph name="dieresis" format="1">
  <advance width="401"/>
  <unicode hex="00A8"/>
  <outline>
    <contour>
      <point x="150" y="665" type="curve"/>
      <point x="150" y="682"/>
      <point x="139" y="691"/>
      <point x="123" y="691" type="curve"/>
      <point x="106" y="691"/>
      <point x="97" y="681"/>
      <point x="97" y="665" type="curve"/>
      <point x="145" y="665"/>
      <point x="102" y="665"/>
      <point x="150" y="665" type="curve"/>
      <point x="150" y="648"/>
      <point x="139" y="640"/>
      <point x="123" y="640" type="curve"/>
      <point x="106" y="640"/>
      <point x="97" y="649"/>
      <point x="97" y="665" type="curve"/>
      <point x="145" y="665"/>
      <point x="102" y="665"/>
    </contour>
    <contour>
      <point x="270" y="665" type="curve"/>
      <point x="270" y="682"/>
      <point x="259" y="691"/>
      <point x="243" y="691" type="curve"/>
      <point x="227" y="691"/>
      <point x="217" y="681"/>
      <point x="217" y="665" type="curve"/>
      <point x="265" y="665"/>
      <point x="222" y="665"/>
      <point x="270" y="665" type="curve"/>
      <point x="270" y="648"/>
      <point x="259" y="640"/>
      <point x="243" y="640" type="curve"/>
      <point x="226" y="640"/>
      <point x="217" y="649"/>
      <point x="217" y="665" type="curve"/>
      <point x="265" y="665"/>
      <point x="222" y="665"/>
    </contour>
    <contour>
      <point x="183" y="643" type="move" name="_top"/>
    </contour>
  </outline>
</glyph>
<glyph name="copyright" format="1">
  <advance width="703"/>
  <unicode hex="00A9"/>
  <outline>
    <contour>
      <point x="106" y="320" type="curve"/>
      <point x="106" y="489"/>
      <point x="194" y="615"/>
      <point x="355" y="615" type="curve"/>
      <point x="512" y="615"/>
      <point x="598" y="487"/>
      <point x="598" y="319" type="curve"/>
      <point x="598" y="155"/>
      <point x="515" y="28"/>
      <point x="360" y="28" type="curve"/>
      <point x="200" y="28"/>
      <point x="106" y="151"/>
      <point x="106" y="320" type="curve"/>
      <point x="68" y="320"/>
      <point x="106" y="320"/>
      <point x="68" y="320" type="curve"/>
      <point x="68" y="133"/>
      <point x="177" y="-3"/>
      <point x="359" y="-3" type="curve"/>
      <point x="535" y="-3"/>
      <point x="635" y="135"/>
      <point x="635" y="320" type="curve"/>
      <point x="635" y="507"/>
      <point x="533" y="646"/>
      <point x="355" y="646" type="curve"/>
      <point x="175" y="646"/>
      <point x="68" y="508"/>
      <point x="68" y="320" type="curve"/>
      <point x="106" y="320"/>
      <point x="68" y="320"/>
    </contour>
    <contour>
      <point x="466" y="461" type="curve"/>
      <point x="433" y="487"/>
      <point x="403" y="499"/>
      <point x="360" y="499" type="curve"/>
      <point x="260" y="499"/>
      <point x="209" y="425"/>
      <point x="209" y="320" type="curve"/>
      <point x="209" y="217"/>
      <point x="253" y="145"/>
      <point x="349" y="145" type="curve"/>
      <point x="400" y="145"/>
      <point x="437" y="157"/>
      <point x="475" y="194" type="curve"/>
      <point x="452" y="215"/>
      <point x="475" y="194"/>
      <point x="452" y="215" type="curve"/>
      <point x="421" y="189"/>
      <point x="392" y="176"/>
      <point x="350" y="176" type="curve"/>
      <point x="274" y="176"/>
      <point x="246" y="239"/>
      <point x="246" y="321" type="curve"/>
      <point x="246" y="405"/>
      <point x="279" y="467"/>
      <point x="359" y="467" type="curve"/>
      <point x="391" y="467"/>
      <point x="415" y="459"/>
      <point x="445" y="440" type="curve"/>
      <point x="467" y="461"/>
      <point x="445" y="439"/>
    </contour>
  </outline>
</glyph>
<glyph name="ordfeminine" format="1">
  <advance width="382"/>
  <unicode hex="00AA"/>
  <outline>
    <contour>
      <point x="296" y="428" type="curve"/>
      <point x="296" y="520"/>
      <point x="296" y="588"/>
      <point x="296" y="679" type="curve"/>
      <point x="296" y="739"/>
      <point x="251" y="767"/>
      <point x="188" y="767" type="curve"/>
      <point x="142" y="767"/>
      <point x="107" y="747"/>
      <point x="79" y="718" type="curve"/>
      <point x="88" y="704"/>
      <point x="86" y="708"/>
      <point x="96" y="693" type="curve"/>
      <point x="117" y="715"/>
      <point x="144" y="737"/>
      <point x="184" y="737" type="curve"/>
      <point x="229" y="737"/>
      <point x="261" y="715"/>
      <point x="261" y="671" type="curve"/>
      <point x="261" y="582"/>
      <point x="261" y="517"/>
      <point x="261" y="428" type="curve"/>
      <point x="283" y="428"/>
      <point x="274" y="428"/>
    </contour>
    <contour>
      <point x="277" y="634" type="curve"/>
      <point x="236" y="628"/>
      <point x="208" y="626"/>
      <point x="167" y="620" type="curve"/>
      <point x="107" y="610"/>
      <point x="65" y="580"/>
      <point x="65" y="520" type="curve"/>
      <point x="65" y="461"/>
      <point x="104" y="425"/>
      <point x="166" y="425" type="curve"/>
      <point x="225" y="425"/>
      <point x="257" y="465"/>
      <point x="287" y="513" type="curve"/>
      <point x="277" y="523"/>
      <point x="280" y="520"/>
      <point x="270" y="529" type="curve"/>
      <point x="246" y="489"/>
      <point x="221" y="455"/>
      <point x="173" y="455" type="curve"/>
      <point x="127" y="455"/>
      <point x="99" y="480"/>
      <point x="99" y="522" type="curve"/>
      <point x="99" y="563"/>
      <point x="127" y="587"/>
      <point x="166" y="593" type="curve"/>
      <point x="208" y="600"/>
      <point x="237" y="603"/>
      <point x="279" y="609" type="curve"/>
      <point x="278" y="624"/>
      <point x="278" y="619"/>
    </contour>
  </outline>
</glyph>
<glyph name="guillemotleft" format="1">
  <advance width="539"/>
  <unicode hex="00AB"/>
  <outline>
    <contour>
      <point x="259" y="412" type="curve"/>
      <point x="252" y="407"/>
      <point x="57" y="303"/>
      <point x="49" y="298" type="curve"/>
      <point x="49" y="260"/>
      <point x="49" y="296"/>
      <point x="49" y="257" type="curve"/>
      <point x="57" y="263"/>
      <point x="252" y="368"/>
      <point x="259" y="373" type="curve"/>
      <point x="259" y="411"/>
      <point x="259" y="374"/>
    </contour>
    <contour>
      <point x="260" y="183" type="curve"/>
      <point x="252" y="188"/>
      <point x="57" y="293"/>
      <point x="49" y="298" type="curve"/>
      <point x="49" y="260"/>
      <point x="49" y="296"/>
      <point x="49" y="257" type="curve"/>
      <point x="57" y="252"/>
      <point x="252" y="149"/>
      <point x="260" y="144" type="curve"/>
      <point x="260" y="182"/>
      <point x="260" y="146"/>
    </contour>
    <contour>
      <point x="460" y="412" type="curve"/>
      <point x="452" y="407"/>
      <point x="257" y="303"/>
      <point x="250" y="298" type="curve"/>
      <point x="250" y="260"/>
      <point x="250" y="296"/>
      <point x="250" y="257" type="curve"/>
      <point x="257" y="263"/>
      <point x="452" y="368"/>
      <point x="460" y="373" type="curve"/>
      <point x="460" y="411"/>
      <point x="460" y="374"/>
    </contour>
    <contour>
      <point x="460" y="183" type="curve"/>
      <point x="453" y="188"/>
      <point x="257" y="293"/>
      <point x="250" y="298" type="curve"/>
      <point x="250" y="260"/>
      <point x="250" y="296"/>
      <point x="250" y="257" type="curve"/>
      <point x="257" y="252"/>
      <point x="453" y="149"/>
      <point x="460" y="144" type="curve"/>
      <point x="460" y="182"/>
      <point x="460" y="146"/>
    </contour>
  </outline>
</glyph>
<glyph name="logicalnot" format="1">
  <advance width="659"/>
  <unicode hex="00AC"/>
  <outline>
    <contour>
      <point x="89" y="291" type="curve"/>
      <point x="567" y="291" type="line"/>
      <point x="567" y="329"/>
      <point x="567" y="291"/>
      <point x="567" y="329" type="curve"/>
      <point x="89" y="329" type="line"/>
      <point x="89" y="291"/>
      <point x="89" y="329"/>
    </contour>
    <contour>
      <point x="567" y="151" type="curve"/>
      <point x="567" y="329" type="line"/>
      <point x="525" y="329"/>
      <point x="568" y="329"/>
      <point x="526" y="329" type="curve"/>
      <point x="526" y="151" type="line"/>
      <point x="568" y="151"/>
      <point x="525" y="151"/>
    </contour>
  </outline>
</glyph>
<glyph name="registered" format="1">
  <advance width="706"/>
  <unicode hex="00AE"/>
  <outline>
    <contour>
      <point x="104" y="320" type="curve"/>
      <point x="104" y="490"/>
      <point x="193" y="616"/>
      <point x="357" y="616" type="curve"/>
      <point x="516" y="616"/>
      <point x="602" y="489"/>
      <point x="602" y="318" type="curve"/>
      <point x="602" y="152"/>
      <point x="519" y="27"/>
      <point x="362" y="27" type="curve"/>
      <point x="199" y="27"/>
      <point x="104" y="148"/>
      <point x="104" y="320" type="curve"/>
      <point x="78" y="320"/>
      <point x="95" y="320"/>
      <point x="69" y="320" type="curve"/>
      <point x="69" y="131"/>
      <point x="178" y="-3"/>
      <point x="360" y="-3" type="curve"/>
      <point x="538" y="-3"/>
      <point x="637" y="134"/>
      <point x="637" y="320" type="curve"/>
      <point x="637" y="508"/>
      <point x="536" y="645"/>
      <point x="357" y="645" type="curve"/>
      <point x="175" y="645"/>
      <point x="69" y="509"/>
      <point x="69" y="320" type="curve"/>
      <point x="95" y="320"/>
      <point x="78" y="320"/>
    </contour>
    <contour>
      <point x="355" y="311" type="curve"/>
      <point x="370" y="274"/>
      <point x="420" y="183"/>
      <point x="435" y="148" type="curve"/>
      <point x="456" y="148"/>
      <point x="448" y="148"/>
      <point x="472" y="148" type="curve"/>
      <point x="457" y="183"/>
      <point x="408" y="273"/>
      <point x="392" y="310" type="curve"/>
      <point x="351" y="310"/>
      <point x="396" y="311"/>
    </contour>
    <contour>
      <point x="307" y="148" type="curve"/>
      <point x="307" y="258"/>
      <point x="307" y="383"/>
      <point x="307" y="493" type="curve"/>
      <point x="284" y="493"/>
      <point x="294" y="494"/>
      <point x="270" y="494" type="curve"/>
      <point x="270" y="383"/>
      <point x="270" y="258"/>
      <point x="270" y="148" type="curve"/>
      <point x="295" y="148"/>
      <point x="281" y="148"/>
    </contour>
    <contour>
      <point x="291" y="291" type="curve"/>
      <point x="309" y="291"/>
      <point x="327" y="291"/>
      <point x="345" y="291" type="curve"/>
      <point x="413" y="291"/>
      <point x="455" y="323"/>
      <point x="455" y="392" type="curve"/>
      <point x="455" y="455"/>
      <point x="417" y="494"/>
      <point x="355" y="494" type="curve"/>
      <point x="339" y="494"/>
      <point x="312" y="494"/>
      <point x="296" y="494" type="curve"/>
      <point x="270" y="466"/>
      <point x="308" y="494"/>
      <point x="270" y="462" type="curve"/>
      <point x="296" y="462"/>
      <point x="322" y="462"/>
      <point x="348" y="462" type="curve"/>
      <point x="392" y="462"/>
      <point x="419" y="435"/>
      <point x="419" y="390" type="curve"/>
      <point x="419" y="344"/>
      <point x="394" y="323"/>
      <point x="350" y="323" type="curve"/>
      <point x="330" y="323"/>
      <point x="310" y="323"/>
      <point x="291" y="323" type="curve"/>
      <point x="291" y="291"/>
      <point x="291" y="323"/>
    </contour>
  </outline>
</glyph>
<glyph name="macron" format="1">
  <advance width="301"/>
  <unicode hex="00AF"/>
  <outline>
    <contour>
      <point x="236" y="680" type="curve"/>
      <point x="170" y="680"/>
      <point x="104" y="680"/>
      <point x="39" y="680" type="curve"/>
      <point x="39" y="645"/>
      <point x="39" y="680"/>
      <point x="39" y="645" type="curve"/>
      <point x="104" y="645"/>
      <point x="170" y="645"/>
      <point x="236" y="645" type="curve"/>
      <point x="236" y="680"/>
      <point x="236" y="645"/>
    </contour>
    <contour>
      <point x="140" y="645" type="move" name="_top"/>
    </contour>
  </outline>
</glyph>
<glyph name="plusminus" format="1">
  <advance width="659"/>
  <unicode hex="00B1"/>
  <outline>
    <contour>
      <point x="68" y="22" type="line"/>
      <point x="591" y="22" type="line"/>
      <point x="591" y="60" type="line"/>
      <point x="68" y="60" type="line"/>
    </contour>
    <contour>
      <point x="68" y="291" type="curve"/>
      <point x="591" y="291" type="line"/>
      <point x="591" y="329"/>
      <point x="591" y="291"/>
      <point x="591" y="329" type="curve"/>
      <point x="68" y="329" type="line"/>
      <point x="68" y="291"/>
      <point x="68" y="329"/>
    </contour>
    <contour>
      <point x="349" y="22" type="curve"/>
      <point x="349" y="587" type="line"/>
      <point x="307" y="587"/>
      <point x="350" y="587"/>
      <point x="308" y="587" type="curve"/>
      <point x="308" y="22" type="line"/>
      <point x="350" y="22"/>
      <point x="307" y="22"/>
    </contour>
  </outline>
</glyph>
<glyph name="twosuperior" format="1">
  <advance width="424"/>
  <unicode hex="00B2"/>
  <outline>
    <contour>
      <point x="63" y="295" type="curve"/>
      <point x="163" y="295"/>
      <point x="259" y="295"/>
      <point x="352" y="295" type="curve"/>
      <point x="352" y="312"/>
      <point x="352" y="312"/>
      <point x="352" y="327" type="curve"/>
      <point x="258" y="327"/>
      <point x="157" y="327"/>
      <point x="63" y="327" type="curve"/>
      <point x="63" y="295"/>
      <point x="63" y="327"/>
    </contour>
    <contour>
      <point x="117" y="609" type="curve"/>
      <point x="139" y="651"/>
      <point x="164" y="680"/>
      <point x="213" y="680" type="curve"/>
      <point x="267" y="680"/>
      <point x="297" y="645"/>
      <point x="297" y="590" type="curve"/>
      <point x="297" y="539"/>
      <point x="268" y="512"/>
      <point x="233" y="477" type="curve"/>
      <point x="176" y="427"/>
      <point x="119" y="377"/>
      <point x="63" y="327" type="curve"/>
      <point x="72" y="295"/>
      <point x="63" y="327"/>
      <point x="72" y="295" type="curve"/>
      <point x="135" y="348"/>
      <point x="198" y="399"/>
      <point x="257" y="451" type="curve"/>
      <point x="300" y="495"/>
      <point x="335" y="529"/>
      <point x="335" y="591" type="curve"/>
      <point x="335" y="666"/>
      <point x="289" y="713"/>
      <point x="215" y="713" type="curve"/>
      <point x="153" y="713"/>
      <point x="113" y="683"/>
      <point x="88" y="623" type="curve"/>
      <point x="117" y="609"/>
      <point x="88" y="623"/>
    </contour>
    <contour>
      <point x="225" y="713" type="move" name="_top"/>
    </contour>
    <contour>
      <point x="200" y="294" type="move" name="_bottom"/>
    </contour>
  </outline>
</glyph>
<glyph name="threesuperior" format="1">
  <advance width="380"/>
  <unicode hex="00B3"/>
  <outline>
    <contour>
      <point x="95" y="638" type="curve"/>
      <point x="116" y="661"/>
      <point x="142" y="681"/>
      <point x="175" y="681" type="curve"/>
      <point x="228" y="681"/>
      <point x="262" y="654"/>
      <point x="262" y="601" type="curve"/>
      <point x="262" y="544"/>
      <point x="203" y="524"/>
      <point x="137" y="519" type="curve"/>
      <point x="137" y="491"/>
      <point x="137" y="519"/>
      <point x="137" y="491" type="curve"/>
      <point x="227" y="494"/>
      <point x="301" y="523"/>
      <point x="301" y="604" type="curve"/>
      <point x="301" y="675"/>
      <point x="253" y="712"/>
      <point x="179" y="712" type="curve"/>
      <point x="136" y="712"/>
      <point x="97" y="690"/>
      <point x="71" y="658" type="curve"/>
      <point x="95" y="638"/>
      <point x="71" y="658"/>
    </contour>
    <contour>
      <point x="66" y="324" type="curve"/>
      <point x="98" y="302"/>
      <point x="130" y="290"/>
      <point x="168" y="290" type="curve"/>
      <point x="255" y="287"/>
      <point x="316" y="325"/>
      <point x="314" y="406" type="curve"/>
      <point x="314" y="491"/>
      <point x="232" y="509"/>
      <point x="137" y="512" type="curve"/>
      <point x="137" y="488"/>
      <point x="137" y="512"/>
      <point x="137" y="488" type="curve"/>
      <point x="213" y="483"/>
      <point x="276" y="465"/>
      <point x="276" y="405" type="curve"/>
      <point x="275" y="347"/>
      <point x="234" y="319"/>
      <point x="172" y="321" type="curve"/>
      <point x="141" y="321"/>
      <point x="112" y="331"/>
      <point x="85" y="348" type="curve"/>
      <point x="66" y="324"/>
      <point x="85" y="348"/>
    </contour>
    <contour>
      <point x="197" y="712" type="move" name="_top"/>
    </contour>
    <contour>
      <point x="183" y="290" type="move" name="_bottom"/>
    </contour>
  </outline>
</glyph>
<glyph name="paragraph" format="1">
  <advance width="655"/>
  <unicode hex="00B6"/>
  <outline>
    <contour>
      <point x="382" y="687" type="curve"/>
      <point x="533" y="687"/>
      <point x="382" y="687"/>
      <point x="533" y="687" type="curve"/>
      <point x="533" y="722"/>
      <point x="533" y="687"/>
      <point x="533" y="722" type="curve"/>
      <point x="483" y="722"/>
      <point x="432" y="722"/>
      <point x="382" y="722" type="curve"/>
      <point x="382" y="687"/>
      <point x="382" y="722"/>
    </contour>
    <contour>
      <point x="374" y="352" type="curve"/>
      <point x="331" y="327"/>
      <point x="296" y="311"/>
      <point x="245" y="311" type="curve"/>
      <point x="143" y="311"/>
      <point x="87" y="384"/>
      <point x="87" y="490" type="curve"/>
      <point x="87" y="609"/>
      <point x="156" y="687"/>
      <point x="272" y="687" type="curve"/>
      <point x="308" y="687"/>
      <point x="344" y="687"/>
      <point x="380" y="687" type="curve"/>
      <point x="380" y="722"/>
      <point x="380" y="687"/>
      <point x="380" y="722" type="curve"/>
      <point x="342" y="722"/>
      <point x="304" y="722"/>
      <point x="266" y="722" type="curve"/>
      <point x="129" y="722"/>
      <point x="45" y="630"/>
      <point x="45" y="492" type="curve"/>
      <point x="45" y="358"/>
      <point x="121" y="278"/>
      <point x="248" y="276" type="curve"/>
      <point x="301" y="276"/>
      <point x="344" y="295"/>
      <point x="388" y="321" type="curve"/>
      <point x="374" y="352"/>
      <point x="388" y="322"/>
    </contour>
    <contour>
      <point x="405" y="0" type="curve"/>
      <point x="405" y="241"/>
      <point x="405" y="481"/>
      <point x="405" y="722" type="curve"/>
      <point x="362" y="722"/>
      <point x="405" y="722"/>
      <point x="362" y="722" type="curve"/>
      <point x="362" y="481"/>
      <point x="362" y="241"/>
      <point x="362" y="0" type="curve"/>
      <point x="405" y="0"/>
      <point x="362" y="0"/>
    </contour>
    <contour>
      <point x="560" y="0" type="curve"/>
      <point x="560" y="241"/>
      <point x="560" y="481"/>
      <point x="560" y="722" type="curve"/>
      <point x="518" y="722"/>
      <point x="560" y="722"/>
      <point x="518" y="722" type="curve"/>
      <point x="518" y="481"/>
      <point x="518" y="241"/>
      <point x="518" y="0" type="curve"/>
      <point x="560" y="0"/>
      <point x="518" y="0"/>
    </contour>
  </outline>
</glyph>
<glyph name="periodcentered" format="1">
  <advance width="211"/>
  <unicode hex="00B7"/>
  <outline>
    <contour>
      <point x="132" y="440" type="curve"/>
      <point x="132" y="457"/>
      <point x="121" y="465"/>
      <point x="105" y="465" type="curve"/>
      <point x="89" y="465"/>
      <point x="79" y="456"/>
      <point x="79" y="440" type="curve"/>
      <point x="127" y="440"/>
      <point x="84" y="440"/>
      <point x="132" y="440" type="curve"/>
      <point x="132" y="423"/>
      <point x="121" y="415"/>
      <point x="105" y="415" type="curve"/>
      <point x="88" y="415"/>
      <point x="79" y="424"/>
      <point x="79" y="440" type="curve"/>
      <point x="127" y="440"/>
      <point x="84" y="440"/>
    </contour>
  </outline>
</glyph>
<glyph name="cedilla" format="1">
  <advance width="294"/>
  <unicode hex="00B8"/>
  <outline>
    <contour>
      <point x="160" y="39" type="curve"/>
      <point x="147" y="13"/>
      <point x="129" y="-24"/>
      <point x="116" y="-50" type="curve"/>
      <point x="145" y="-78"/>
      <point x="116" y="-50"/>
      <point x="145" y="-78" type="curve"/>
      <point x="158" y="-50"/>
      <point x="179" y="-12"/>
      <point x="192" y="15" type="curve"/>
      <point x="160" y="39"/>
      <point x="192" y="15"/>
    </contour>
    <contour>
      <point x="145" y="-78" type="curve"/>
      <point x="156" y="-69"/>
      <point x="165" y="-66"/>
      <point x="180" y="-66" type="curve"/>
      <point x="208" y="-66"/>
      <point x="220" y="-86"/>
      <point x="220" y="-116" type="curve"/>
      <point x="220" y="-148"/>
      <point x="200" y="-166"/>
      <point x="168" y="-166" type="curve"/>
      <point x="145" y="-166"/>
      <point x="128" y="-162"/>
      <point x="108" y="-149" type="curve"/>
      <point x="92" y="-175"/>
      <point x="108" y="-149"/>
      <point x="92" y="-175" type="curve"/>
      <point x="116" y="-191"/>
      <point x="137" y="-198"/>
      <point x="166" y="-198" type="curve"/>
      <point x="220" y="-198"/>
      <point x="256" y="-169"/>
      <point x="256" y="-116" type="curve"/>
      <point x="256" y="-66"/>
      <point x="228" y="-32"/>
      <point x="181" y="-32" type="curve"/>
      <point x="156" y="-32"/>
      <point x="138" y="-38"/>
      <point x="116" y="-50" type="curve"/>
      <point x="145" y="-78"/>
      <point x="116" y="-50"/>
    </contour>
    <contour>
      <point x="189" y="15" type="move" name="_bottom"/>
    </contour>
  </outline>
</glyph>
<glyph name="onesuperior" format="1">
  <advance width="275"/>
  <unicode hex="00B9"/>
  <outline>
    <contour>
      <point x="53" y="572" type="line"/>
      <point x="182" y="697" type="line"/>
      <point x="145" y="704" type="line"/>
      <point x="30" y="595" type="line"/>
    </contour>
    <contour>
      <point x="183" y="295" type="curve"/>
      <point x="183" y="704" type="line"/>
      <point x="145" y="704" type="line"/>
      <point x="145" y="295" type="line"/>
      <point x="171" y="295"/>
      <point x="160" y="295"/>
    </contour>
    <contour>
      <point x="163" y="702" type="move" name="_top"/>
    </contour>
    <contour>
      <point x="165" y="298" type="move" name="_bottom"/>
    </contour>
  </outline>
</glyph>
<glyph name="ordmasculine" format="1">
  <advance width="384"/>
  <unicode hex="00BA"/>
  <outline>
    <contour>
      <point x="93" y="603" type="curve"/>
      <point x="93" y="681"/>
      <point x="122" y="738"/>
      <point x="193" y="738" type="curve"/>
      <point x="263" y="738"/>
      <point x="290" y="680"/>
      <point x="290" y="601" type="curve"/>
      <point x="290" y="516"/>
      <point x="264" y="452"/>
      <point x="197" y="452" type="curve"/>
      <point x="120" y="452"/>
      <point x="93" y="517"/>
      <point x="93" y="603" type="curve"/>
      <point x="71" y="603"/>
      <point x="80" y="603"/>
      <point x="59" y="603" type="curve"/>
      <point x="59" y="498"/>
      <point x="99" y="422"/>
      <point x="195" y="422" type="curve"/>
      <point x="286" y="422"/>
      <point x="325" y="497"/>
      <point x="325" y="601" type="curve"/>
      <point x="325" y="699"/>
      <point x="286" y="767"/>
      <point x="194" y="767" type="curve"/>
      <point x="100" y="767"/>
      <point x="59" y="699"/>
      <point x="59" y="603" type="curve"/>
      <point x="80" y="603"/>
      <point x="71" y="603"/>
    </contour>
  </outline>
</glyph>
<glyph name="guillemotright" format="1">
  <advance width="554"/>
  <unicode hex="00BB"/>
  <outline>
    <contour>
      <point x="290" y="412" type="curve"/>
      <point x="297" y="407"/>
      <point x="493" y="303"/>
      <point x="500" y="298" type="curve"/>
      <point x="500" y="260"/>
      <point x="500" y="296"/>
      <point x="500" y="257" type="curve"/>
      <point x="493" y="263"/>
      <point x="297" y="368"/>
      <point x="290" y="373" type="curve"/>
      <point x="290" y="411"/>
      <point x="290" y="374"/>
    </contour>
    <contour>
      <point x="289" y="183" type="curve"/>
      <point x="297" y="188"/>
      <point x="493" y="293"/>
      <point x="500" y="298" type="curve"/>
      <point x="500" y="260"/>
      <point x="500" y="296"/>
      <point x="500" y="257" type="curve"/>
      <point x="493" y="252"/>
      <point x="297" y="149"/>
      <point x="289" y="144" type="curve"/>
      <point x="289" y="182"/>
      <point x="289" y="146"/>
    </contour>
    <contour>
      <point x="90" y="412" type="curve"/>
      <point x="97" y="407"/>
      <point x="292" y="303"/>
      <point x="300" y="298" type="curve"/>
      <point x="300" y="260"/>
      <point x="300" y="296"/>
      <point x="300" y="257" type="curve"/>
      <point x="292" y="263"/>
      <point x="97" y="368"/>
      <point x="90" y="373" type="curve"/>
      <point x="90" y="411"/>
      <point x="90" y="374"/>
    </contour>
    <contour>
      <point x="89" y="183" type="curve"/>
      <point x="96" y="188"/>
      <point x="292" y="293"/>
      <point x="300" y="298" type="curve"/>
      <point x="300" y="260"/>
      <point x="300" y="296"/>
      <point x="300" y="257" type="curve"/>
      <point x="292" y="252"/>
      <point x="96" y="149"/>
      <point x="89" y="144" type="curve"/>
      <point x="89" y="182"/>
      <point x="89" y="146"/>
    </contour>
  </outline>
</glyph>
<glyph name="onequarter" format="1">
  <advance width="851"/>
  <unicode hex="00BC"/>
  <outline>
    <contour>
      <point x="259" y="-84" type="line"/>
      <point x="633" y="750" type="line"/>
      <point x="590" y="750" type="line"/>
      <point x="217" y="-84" type="line"/>
    </contour>
    <contour>
      <point x="56" y="621" type="line"/>
      <point x="185" y="746" type="line"/>
      <point x="148" y="754" type="line"/>
      <point x="33" y="645" type="line"/>
    </contour>
    <contour>
      <point x="186" y="344" type="curve"/>
      <point x="186" y="754" type="line"/>
      <point x="148" y="754" type="line"/>
      <point x="148" y="344" type="line"/>
      <point x="175" y="344"/>
      <point x="163" y="344"/>
    </contour>
    <contour>
      <point x="814" y="62" type="line"/>
      <point x="478" y="62" type="line"/>
      <point x="478" y="31" type="line"/>
      <point x="814" y="31" type="line"/>
    </contour>
    <contour>
      <point x="496" y="33" type="line"/>
      <point x="714" y="337" type="line"/>
      <point x="681" y="347" type="line"/>
      <point x="478" y="62" type="line"/>
    </contour>
    <contour>
      <point x="719" y="-86" type="line"/>
      <point x="719" y="347" type="line"/>
      <point x="681" y="347" type="line"/>
      <point x="681" y="-86" type="line"/>
    </contour>
  </outline>
</glyph>
<glyph name="onehalf" format="1">
  <advance width="891"/>
  <unicode hex="00BD"/>
  <outline>
    <contour>
      <point x="271" y="-84" type="line"/>
      <point x="645" y="750" type="line"/>
      <point x="602" y="750" type="line"/>
      <point x="229" y="-84" type="line"/>
    </contour>
    <contour>
      <point x="56" y="621" type="line"/>
      <point x="185" y="746" type="line"/>
      <point x="148" y="754" type="line"/>
      <point x="33" y="645" type="line"/>
    </contour>
    <contour>
      <point x="186" y="344" type="curve"/>
      <point x="186" y="754" type="line"/>
      <point x="148" y="754" type="line"/>
      <point x="148" y="344" type="line"/>
      <point x="175" y="344"/>
      <point x="163" y="344"/>
    </contour>
    <contour>
      <point x="557" y="-85" type="curve"/>
      <point x="657" y="-85"/>
      <point x="754" y="-85"/>
      <point x="846" y="-85" type="curve"/>
      <point x="846" y="-67"/>
      <point x="846" y="-68"/>
      <point x="846" y="-52" type="curve"/>
      <point x="752" y="-52"/>
      <point x="651" y="-52"/>
      <point x="557" y="-52" type="curve"/>
      <point x="557" y="-84"/>
      <point x="557" y="-52"/>
    </contour>
    <contour>
      <point x="612" y="229" type="curve"/>
      <point x="633" y="271"/>
      <point x="658" y="301"/>
      <point x="707" y="301" type="curve"/>
      <point x="761" y="301"/>
      <point x="792" y="265"/>
      <point x="792" y="210" type="curve"/>
      <point x="792" y="160"/>
      <point x="762" y="133"/>
      <point x="727" y="97" type="curve"/>
      <point x="671" y="47"/>
      <point x="614" y="-2"/>
      <point x="557" y="-52" type="curve"/>
      <point x="567" y="-84"/>
      <point x="558" y="-52"/>
      <point x="567" y="-84" type="curve"/>
      <point x="629" y="-32"/>
      <point x="692" y="20"/>
      <point x="751" y="72" type="curve"/>
      <point x="794" y="116"/>
      <point x="829" y="149"/>
      <point x="829" y="212" type="curve"/>
      <point x="829" y="287"/>
      <point x="783" y="333"/>
      <point x="709" y="333" type="curve"/>
      <point x="647" y="333"/>
      <point x="607" y="303"/>
      <point x="582" y="244" type="curve"/>
      <point x="612" y="229"/>
      <point x="582" y="244"/>
    </contour>
  </outline>
</glyph>
<glyph name="threequarters" format="1">
  <advance width="875"/>
  <unicode hex="00BE"/>
  <outline>
    <contour>
      <point x="286" y="-84" type="line"/>
      <point x="660" y="750" type="line"/>
      <point x="617" y="750" type="line"/>
      <point x="244" y="-84" type="line"/>
    </contour>
    <contour>
      <point x="79" y="677" type="curve"/>
      <point x="101" y="700"/>
      <point x="127" y="720"/>
      <point x="160" y="720" type="curve"/>
      <point x="213" y="720"/>
      <point x="247" y="693"/>
      <point x="247" y="641" type="curve"/>
      <point x="247" y="583"/>
      <point x="187" y="563"/>
      <point x="122" y="558" type="curve"/>
      <point x="122" y="531"/>
      <point x="122" y="558"/>
      <point x="122" y="531" type="curve"/>
      <point x="212" y="533"/>
      <point x="285" y="562"/>
      <point x="285" y="643" type="curve"/>
      <point x="285" y="715"/>
      <point x="237" y="751"/>
      <point x="164" y="751" type="curve"/>
      <point x="120" y="751"/>
      <point x="82" y="729"/>
      <point x="56" y="698" type="curve"/>
      <point x="79" y="677"/>
      <point x="56" y="698"/>
    </contour>
    <contour>
      <point x="51" y="363" type="curve"/>
      <point x="82" y="341"/>
      <point x="115" y="329"/>
      <point x="153" y="329" type="curve"/>
      <point x="239" y="326"/>
      <point x="301" y="364"/>
      <point x="299" y="445" type="curve"/>
      <point x="299" y="530"/>
      <point x="217" y="548"/>
      <point x="122" y="551" type="curve"/>
      <point x="122" y="527"/>
      <point x="122" y="551"/>
      <point x="122" y="527" type="curve"/>
      <point x="198" y="523"/>
      <point x="260" y="504"/>
      <point x="260" y="444" type="curve"/>
      <point x="260" y="386"/>
      <point x="218" y="359"/>
      <point x="157" y="361" type="curve"/>
      <point x="126" y="361"/>
      <point x="97" y="370"/>
      <point x="70" y="387" type="curve"/>
      <point x="51" y="363"/>
      <point x="70" y="387"/>
    </contour>
    <contour>
      <point x="840" y="62" type="line"/>
      <point x="505" y="62" type="line"/>
      <point x="505" y="31" type="line"/>
      <point x="840" y="31" type="line"/>
    </contour>
    <contour>
      <point x="523" y="33" type="line"/>
      <point x="740" y="337" type="line"/>
      <point x="707" y="347" type="line"/>
      <point x="505" y="62" type="line"/>
    </contour>
    <contour>
      <point x="745" y="-86" type="line"/>
      <point x="745" y="347" type="line"/>
      <point x="707" y="347" type="line"/>
      <point x="707" y="-86" type="line"/>
    </contour>
  </outline>
</glyph>
<glyph name="questiondown" format="1">
  <advance width="450"/>
  <unicode hex="00BF"/>
  <outline>
    <contour>
      <point x="270" y="371" type="curve"/>
      <point x="270" y="408"/>
      <point x="270" y="453"/>
      <point x="270" y="490" type="curve"/>
      <point x="230" y="490"/>
      <point x="270" y="490"/>
      <point x="230" y="490" type="curve"/>
      <point x="230" y="453"/>
      <point x="230" y="408"/>
      <point x="230" y="371" type="curve"/>
      <point x="270" y="371"/>
      <point x="230" y="371"/>
    </contour>
    <contour>
      <point x="370" y="95" type="line"/>
      <point x="343" y="60"/>
      <point x="303" y="32"/>
      <point x="247" y="32" type="curve"/>
      <point x="153" y="32"/>
      <point x="101" y="97"/>
      <point x="101" y="193" type="curve"/>
      <point x="101" y="298"/>
      <point x="161" y="371"/>
      <point x="265" y="371" type="curve"/>
      <point x="265" y="393"/>
      <point x="265" y="384"/>
      <point x="265" y="406" type="curve"/>
      <point x="137" y="406"/>
      <point x="59" y="320"/>
      <point x="59" y="193" type="curve"/>
      <point x="59" y="75"/>
      <point x="130" y="-5"/>
      <point x="244" y="-5" type="curve"/>
      <point x="315" y="-5"/>
      <point x="362" y="27"/>
      <point x="396" y="70" type="curve"/>
    </contour>
    <contour>
      <point x="224" y="694" type="curve"/>
      <point x="224" y="678"/>
      <point x="235" y="670"/>
      <point x="250" y="670" type="curve"/>
      <point x="266" y="670"/>
      <point x="276" y="679"/>
      <point x="276" y="694" type="curve"/>
      <point x="224" y="694"/>
      <point x="276" y="694"/>
      <point x="224" y="694" type="curve"/>
      <point x="224" y="711"/>
      <point x="235" y="718"/>
      <point x="250" y="718" type="curve"/>
      <point x="266" y="718"/>
      <point x="276" y="710"/>
      <point x="276" y="694" type="curve"/>
      <point x="224" y="694"/>
      <point x="276" y="694"/>
    </contour>
  </outline>
</glyph>
<glyph name="Aacute" format="1">
  <advance width="572"/>
  <unicode hex="00C1"/>
  <outline>
    <contour>
      <point x="434" y="280" type="curve"/>
      <point x="334" y="280"/>
      <point x="235" y="280"/>
      <point x="135" y="280" type="curve"/>
      <point x="118" y="243"/>
      <point x="135" y="280"/>
      <point x="118" y="243" type="curve"/>
      <point x="228" y="243"/>
      <point x="338" y="243"/>
      <point x="448" y="243" type="curve"/>
      <point x="434" y="280"/>
      <point x="448" y="243"/>
    </contour>
    <contour>
      <point x="549" y="0" type="curve"/>
      <point x="470" y="241"/>
      <point x="390" y="481"/>
      <point x="311" y="722" type="curve"/>
      <point x="273" y="722"/>
      <point x="311" y="722"/>
      <point x="273" y="722" type="curve"/>
      <point x="350" y="481"/>
      <point x="427" y="241"/>
      <point x="505" y="0" type="curve"/>
      <point x="549" y="0"/>
      <point x="505" y="0"/>
    </contour>
    <contour>
      <point x="51" y="0" type="curve"/>
      <point x="137" y="241"/>
      <point x="222" y="481"/>
      <point x="309" y="722" type="curve"/>
      <point x="271" y="722"/>
      <point x="309" y="722"/>
      <point x="271" y="722" type="curve"/>
      <point x="183" y="481"/>
      <point x="93" y="241"/>
      <point x="4" y="0" type="curve"/>
      <point x="51" y="0"/>
      <point x="4" y="0"/>
    </contour>
    <contour>
      <point x="310" y="818" type="line"/>
      <point x="421" y="984" type="line"/>
      <point x="366" y="984" type="line"/>
      <point x="267" y="818" type="line"/>
    </contour>
  </outline>
</glyph>
<glyph name="Atilde" format="1">
  <advance width="572"/>
  <unicode hex="00C3"/>
  <outline>
    <contour>
      <point x="434" y="280" type="curve"/>
      <point x="334" y="280"/>
      <point x="235" y="280"/>
      <point x="135" y="280" type="curve"/>
      <point x="118" y="243"/>
      <point x="135" y="280"/>
      <point x="118" y="243" type="curve"/>
      <point x="228" y="243"/>
      <point x="338" y="243"/>
      <point x="448" y="243" type="curve"/>
      <point x="434" y="280"/>
      <point x="448" y="243"/>
    </contour>
    <contour>
      <point x="549" y="0" type="curve"/>
      <point x="470" y="241"/>
      <point x="390" y="481"/>
      <point x="311" y="722" type="curve"/>
      <point x="273" y="722"/>
      <point x="311" y="722"/>
      <point x="273" y="722" type="curve"/>
      <point x="350" y="481"/>
      <point x="427" y="241"/>
      <point x="505" y="0" type="curve"/>
      <point x="549" y="0"/>
      <point x="505" y="0"/>
    </contour>
    <contour>
      <point x="51" y="0" type="curve"/>
      <point x="137" y="241"/>
      <point x="222" y="481"/>
      <point x="309" y="722" type="curve"/>
      <point x="271" y="722"/>
      <point x="309" y="722"/>
      <point x="271" y="722" type="curve"/>
      <point x="183" y="481"/>
      <point x="93" y="241"/>
      <point x="4" y="0" type="curve"/>
      <point x="51" y="0"/>
      <point x="4" y="0"/>
    </contour>
    <contour>
      <point x="432" y="952" type="curve"/>
      <point x="419" y="902"/>
      <point x="408" y="856"/>
      <point x="371" y="856" type="curve"/>
      <point x="337" y="856"/>
      <point x="319" y="875"/>
      <point x="297" y="902" type="curve"/>
      <point x="272" y="932"/>
      <point x="252" y="954"/>
      <point x="213" y="954" type="curve"/>
      <point x="150" y="954"/>
      <point x="130" y="899"/>
      <point x="116" y="832" type="curve"/>
      <point x="149" y="818"/>
      <point x="116" y="832"/>
      <point x="149" y="818" type="curve"/>
      <point x="160" y="872"/>
      <point x="173" y="914"/>
      <point x="217" y="914" type="curve"/>
      <point x="248" y="914"/>
      <point x="262" y="895"/>
      <point x="281" y="871" type="curve"/>
      <point x="309" y="839"/>
      <point x="331" y="817"/>
      <point x="373" y="817" type="curve"/>
      <point x="436" y="817"/>
      <point x="450" y="875"/>
      <point x="466" y="940" type="curve"/>
      <point x="432" y="952"/>
      <point x="466" y="940"/>
    </contour>
  </outline>
</glyph>
<glyph name="Adieresis" format="1">
  <advance width="572"/>
  <unicode hex="00C4"/>
  <outline>
    <contour>
      <point x="434" y="280" type="curve"/>
      <point x="334" y="280"/>
      <point x="235" y="280"/>
      <point x="135" y="280" type="curve"/>
      <point x="118" y="243"/>
      <point x="135" y="280"/>
      <point x="118" y="243" type="curve"/>
      <point x="228" y="243"/>
      <point x="338" y="243"/>
      <point x="448" y="243" type="curve"/>
      <point x="434" y="280"/>
      <point x="448" y="243"/>
    </contour>
    <contour>
      <point x="549" y="0" type="curve"/>
      <point x="470" y="241"/>
      <point x="390" y="481"/>
      <point x="311" y="722" type="curve"/>
      <point x="273" y="722"/>
      <point x="311" y="722"/>
      <point x="273" y="722" type="curve"/>
      <point x="350" y="481"/>
      <point x="427" y="241"/>
      <point x="505" y="0" type="curve"/>
      <point x="549" y="0"/>
      <point x="505" y="0"/>
    </contour>
    <contour>
      <point x="51" y="0" type="curve"/>
      <point x="137" y="241"/>
      <point x="222" y="481"/>
      <point x="309" y="722" type="curve"/>
      <point x="271" y="722"/>
      <point x="309" y="722"/>
      <point x="271" y="722" type="curve"/>
      <point x="183" y="481"/>
      <point x="93" y="241"/>
      <point x="4" y="0" type="curve"/>
      <point x="51" y="0"/>
      <point x="4" y="0"/>
    </contour>
    <contour>
      <point x="257" y="841" type="curve"/>
      <point x="257" y="858"/>
      <point x="246" y="866"/>
      <point x="229" y="866" type="curve"/>
      <point x="213" y="866"/>
      <point x="203" y="857"/>
      <point x="203" y="841" type="curve"/>
      <point x="252" y="841"/>
      <point x="209" y="841"/>
      <point x="257" y="841" type="curve"/>
      <point x="257" y="824"/>
      <point x="246" y="816"/>
      <point x="229" y="816" type="curve"/>
      <point x="213" y="816"/>
      <point x="203" y="825"/>
      <point x="203" y="841" type="curve"/>
      <point x="252" y="841"/>
      <point x="209" y="841"/>
    </contour>
    <contour>
      <point x="377" y="841" type="curve"/>
      <point x="377" y="858"/>
      <point x="366" y="866"/>
      <point x="350" y="866" type="curve"/>
      <point x="333" y="866"/>
      <point x="323" y="857"/>
      <point x="323" y="841" type="curve"/>
      <point x="372" y="841"/>
      <point x="329" y="841"/>
      <point x="377" y="841" type="curve"/>
      <point x="377" y="824"/>
      <point x="366" y="816"/>
      <point x="349" y="816" type="curve"/>
      <point x="333" y="816"/>
      <point x="323" y="825"/>
      <point x="323" y="841" type="curve"/>
      <point x="372" y="841"/>
      <point x="329" y="841"/>
    </contour>
  </outline>
</glyph>
<glyph name="Aring" format="1">
  <advance width="572"/>
  <unicode hex="00C5"/>
  <outline>
    <contour>
      <point x="434" y="280" type="curve"/>
      <point x="334" y="280"/>
      <point x="235" y="280"/>
      <point x="135" y="280" type="curve"/>
      <point x="118" y="243"/>
      <point x="135" y="280"/>
      <point x="118" y="243" type="curve"/>
      <point x="228" y="243"/>
      <point x="338" y="243"/>
      <point x="448" y="243" type="curve"/>
      <point x="434" y="280"/>
      <point x="448" y="243"/>
    </contour>
    <contour>
      <point x="549" y="0" type="curve"/>
      <point x="470" y="241"/>
      <point x="390" y="481"/>
      <point x="311" y="722" type="curve"/>
      <point x="273" y="722"/>
      <point x="311" y="722"/>
      <point x="273" y="722" type="curve"/>
      <point x="350" y="481"/>
      <point x="427" y="241"/>
      <point x="505" y="0" type="curve"/>
      <point x="549" y="0"/>
      <point x="505" y="0"/>
    </contour>
    <contour>
      <point x="51" y="0" type="curve"/>
      <point x="137" y="241"/>
      <point x="222" y="481"/>
      <point x="309" y="722" type="curve"/>
      <point x="271" y="722"/>
      <point x="309" y="722"/>
      <point x="271" y="722" type="curve"/>
      <point x="183" y="481"/>
      <point x="93" y="241"/>
      <point x="4" y="0" type="curve"/>
      <point x="51" y="0"/>
      <point x="4" y="0"/>
    </contour>
    <contour>
      <point x="181" y="938" type="curve"/>
      <point x="181" y="866"/>
      <point x="220" y="817"/>
      <point x="290" y="817" type="curve"/>
      <point x="362" y="817"/>
      <point x="402" y="865"/>
      <point x="402" y="938" type="curve"/>
      <point x="402" y="1012"/>
      <point x="361" y="1059"/>
      <point x="288" y="1059" type="curve"/>
      <point x="218" y="1059"/>
      <point x="181" y="1011"/>
      <point x="181" y="938" type="curve"/>
      <point x="219" y="938"/>
      <point x="179" y="938"/>
      <point x="218" y="938" type="curve"/>
      <point x="218" y="989"/>
      <point x="239" y="1026"/>
      <point x="288" y="1026" type="curve"/>
      <point x="339" y="1026"/>
      <point x="364" y="991"/>
      <point x="364" y="938" type="curve"/>
      <point x="364" y="886"/>
      <point x="340" y="850"/>
      <point x="290" y="850" type="curve"/>
      <point x="240" y="850"/>
      <point x="218" y="886"/>
      <point x="218" y="938" type="curve"/>
      <point x="179" y="938"/>
      <point x="219" y="938"/>
    </contour>
  </outline>
</glyph>
<glyph name="AE" format="1">
  <advance width="793"/>
  <unicode hex="00C6"/>
  <outline>
    <contour>
      <point x="382" y="269" type="curve"/>
      <point x="282" y="269"/>
      <point x="249" y="269"/>
      <point x="149" y="269" type="curve"/>
      <point x="132" y="232"/>
      <point x="149" y="269"/>
      <point x="132" y="232" type="curve"/>
      <point x="242" y="232"/>
      <point x="285" y="232"/>
      <point x="395" y="232" type="curve"/>
      <point x="382" y="269"/>
      <point x="395" y="232"/>
    </contour>
    <contour>
      <point x="43" y="0" type="curve"/>
      <point x="410" y="722" type="line"/>
      <point x="372" y="722"/>
      <point x="409" y="722"/>
      <point x="370" y="722" type="curve"/>
      <point x="-4" y="0" type="line"/>
      <point x="42" y="0"/>
      <point x="-3" y="0"/>
    </contour>
    <contour>
      <point x="397" y="356" type="curve"/>
      <point x="492" y="356"/>
      <point x="588" y="356"/>
      <point x="684" y="356" type="curve"/>
      <point x="684" y="391"/>
      <point x="684" y="356"/>
      <point x="684" y="391" type="curve"/>
      <point x="588" y="391"/>
      <point x="492" y="391"/>
      <point x="397" y="391" type="curve"/>
      <point x="397" y="356"/>
      <point x="397" y="391"/>
    </contour>
    <contour>
      <point x="383" y="687" type="curve"/>
      <point x="502" y="687"/>
      <point x="620" y="687"/>
      <point x="739" y="687" type="curve"/>
      <point x="739" y="722"/>
      <point x="739" y="687"/>
      <point x="739" y="722" type="curve"/>
      <point x="620" y="722"/>
      <point x="502" y="722"/>
      <point x="383" y="722" type="curve"/>
      <point x="383" y="687"/>
      <point x="383" y="722"/>
    </contour>
    <contour>
      <point x="413" y="0" type="curve"/>
      <point x="413" y="722" type="line"/>
      <point x="371" y="722"/>
      <point x="413" y="722"/>
      <point x="371" y="722" type="curve"/>
      <point x="371" y="481"/>
      <point x="371" y="241"/>
      <point x="371" y="0" type="curve"/>
      <point x="413" y="0"/>
      <point x="371" y="0"/>
    </contour>
    <contour>
      <point x="383" y="0" type="curve"/>
      <point x="512" y="0"/>
      <point x="640" y="0"/>
      <point x="769" y="0" type="curve"/>
      <point x="769" y="35"/>
      <point x="769" y="0"/>
      <point x="769" y="35" type="curve"/>
      <point x="640" y="35"/>
      <point x="512" y="35"/>
      <point x="383" y="35" type="curve"/>
      <point x="383" y="0"/>
      <point x="383" y="35"/>
    </contour>
  </outline>
</glyph>
<glyph name="Ccedilla" format="1">
  <advance width="610"/>
  <unicode hex="00C7"/>
  <outline>
    <contour>
      <point x="563" y="655" type="curve"/>
      <point x="504" y="695"/>
      <point x="437" y="727"/>
      <point x="359" y="727" type="curve"/>
      <point x="152" y="727"/>
      <point x="67" y="569"/>
      <point x="67" y="344" type="curve"/>
      <point x="67" y="138"/>
      <point x="148" y="-5"/>
      <point x="340" y="-5" type="curve"/>
      <point x="443" y="-5"/>
      <point x="507" y="31"/>
      <point x="578" y="96" type="curve"/>
      <point x="554" y="123"/>
      <point x="578" y="96"/>
      <point x="553" y="123" type="curve"/>
      <point x="489" y="66"/>
      <point x="432" y="34"/>
      <point x="342" y="34" type="curve"/>
      <point x="174" y="34"/>
      <point x="109" y="163"/>
      <point x="109" y="346" type="curve"/>
      <point x="109" y="545"/>
      <point x="179" y="690"/>
      <point x="357" y="690" type="curve"/>
      <point x="427" y="690"/>
      <point x="488" y="664"/>
      <point x="541" y="627" type="curve"/>
      <point x="563" y="655"/>
      <point x="541" y="627"/>
    </contour>
    <contour>
      <point x="317" y="22" type="curve"/>
      <point x="303" y="-4"/>
      <point x="285" y="-42"/>
      <point x="272" y="-67" type="curve"/>
      <point x="301" y="-95"/>
      <point x="272" y="-67"/>
      <point x="301" y="-95" type="curve"/>
      <point x="314" y="-68"/>
      <point x="335" y="-29"/>
      <point x="348" y="-2" type="curve"/>
      <point x="317" y="22"/>
      <point x="348" y="-2"/>
    </contour>
    <contour>
      <point x="301" y="-96" type="curve"/>
      <point x="313" y="-87"/>
      <point x="322" y="-83"/>
      <point x="337" y="-83" type="curve"/>
      <point x="364" y="-83"/>
      <point x="376" y="-104"/>
      <point x="376" y="-134" type="curve"/>
      <point x="376" y="-166"/>
      <point x="357" y="-183"/>
      <point x="325" y="-183" type="curve"/>
      <point x="302" y="-183"/>
      <point x="284" y="-179"/>
      <point x="265" y="-166" type="curve"/>
      <point x="249" y="-193"/>
      <point x="265" y="-166"/>
      <point x="249" y="-193" type="curve"/>
      <point x="273" y="-208"/>
      <point x="294" y="-215"/>
      <point x="323" y="-215" type="curve"/>
      <point x="377" y="-215"/>
      <point x="412" y="-186"/>
      <point x="412" y="-133" type="curve"/>
      <point x="412" y="-83"/>
      <point x="385" y="-49"/>
      <point x="337" y="-49" type="curve"/>
      <point x="312" y="-49"/>
      <point x="295" y="-55"/>
      <point x="273" y="-67" type="curve"/>
      <point x="301" y="-96"/>
      <point x="273" y="-67"/>
    </contour>
  </outline>
</glyph>
<glyph name="Egrave" format="1">
  <advance width="543"/>
  <unicode hex="00C8"/>
  <outline>
    <contour>
      <point x="146" y="356" type="curve"/>
      <point x="242" y="356"/>
      <point x="338" y="356"/>
      <point x="434" y="356" type="curve"/>
      <point x="434" y="391"/>
      <point x="434" y="356"/>
      <point x="434" y="391" type="curve"/>
      <point x="338" y="391"/>
      <point x="242" y="391"/>
      <point x="146" y="391" type="curve"/>
      <point x="146" y="356"/>
      <point x="146" y="391"/>
    </contour>
    <contour>
      <point x="133" y="687" type="curve"/>
      <point x="252" y="687"/>
      <point x="370" y="687"/>
      <point x="489" y="687" type="curve"/>
      <point x="489" y="722"/>
      <point x="489" y="687"/>
      <point x="489" y="722" type="curve"/>
      <point x="370" y="722"/>
      <point x="252" y="722"/>
      <point x="133" y="722" type="curve"/>
      <point x="133" y="687"/>
      <point x="133" y="722"/>
    </contour>
    <contour>
      <point x="163" y="0" type="curve"/>
      <point x="163" y="722" type="line"/>
      <point x="121" y="722"/>
      <point x="163" y="722"/>
      <point x="121" y="722" type="curve"/>
      <point x="121" y="481"/>
      <point x="121" y="241"/>
      <point x="121" y="0" type="curve"/>
      <point x="163" y="0"/>
      <point x="121" y="0"/>
    </contour>
    <contour>
      <point x="133" y="0" type="curve"/>
      <point x="262" y="0"/>
      <point x="390" y="0"/>
      <point x="518" y="0" type="curve"/>
      <point x="518" y="35"/>
      <point x="518" y="0"/>
      <point x="518" y="35" type="curve"/>
      <point x="390" y="35"/>
      <point x="262" y="35"/>
      <point x="133" y="35" type="curve"/>
      <point x="133" y="0"/>
      <point x="133" y="35"/>
    </contour>
    <contour>
      <point x="300" y="818" type="line"/>
      <point x="202" y="984" type="line"/>
      <point x="146" y="984" type="line"/>
      <point x="258" y="818" type="line"/>
    </contour>
  </outline>
</glyph>
<glyph name="Ecircumflex" format="1">
  <advance width="537"/>
  <unicode hex="00CA"/>
  <outline>
    <contour>
      <point x="142" y="356" type="curve"/>
      <point x="238" y="356"/>
      <point x="333" y="356"/>
      <point x="429" y="356" type="curve"/>
      <point x="429" y="391"/>
      <point x="429" y="356"/>
      <point x="429" y="391" type="curve"/>
      <point x="333" y="391"/>
      <point x="238" y="391"/>
      <point x="142" y="391" type="curve"/>
      <point x="142" y="356"/>
      <point x="142" y="391"/>
    </contour>
    <contour>
      <point x="129" y="687" type="curve"/>
      <point x="248" y="687"/>
      <point x="366" y="687"/>
      <point x="484" y="687" type="curve"/>
      <point x="484" y="722"/>
      <point x="484" y="687"/>
      <point x="484" y="722" type="curve"/>
      <point x="366" y="722"/>
      <point x="248" y="722"/>
      <point x="129" y="722" type="curve"/>
      <point x="129" y="687"/>
      <point x="129" y="722"/>
    </contour>
    <contour>
      <point x="158" y="0" type="curve"/>
      <point x="158" y="722" type="line"/>
      <point x="116" y="722"/>
      <point x="158" y="722"/>
      <point x="116" y="722" type="curve"/>
      <point x="116" y="481"/>
      <point x="116" y="241"/>
      <point x="116" y="0" type="curve"/>
      <point x="158" y="0"/>
      <point x="116" y="0"/>
    </contour>
    <contour>
      <point x="129" y="0" type="curve"/>
      <point x="257" y="0"/>
      <point x="385" y="0"/>
      <point x="514" y="0" type="curve"/>
      <point x="514" y="35"/>
      <point x="514" y="0"/>
      <point x="514" y="35" type="curve"/>
      <point x="385" y="35"/>
      <point x="257" y="35"/>
      <point x="129" y="35" type="curve"/>
      <point x="129" y="0"/>
      <point x="129" y="35"/>
    </contour>
    <contour>
      <point x="180" y="818" type="line"/>
      <point x="291" y="984" type="line"/>
      <point x="236" y="984" type="line"/>
      <point x="137" y="818" type="line"/>
    </contour>
    <contour>
      <point x="406" y="818" type="line"/>
      <point x="308" y="984" type="line"/>
      <point x="252" y="984" type="line"/>
      <point x="364" y="818" type="line"/>
    </contour>
  </outline>
</glyph>
<glyph name="Edieresis" format="1">
  <advance width="541"/>
  <unicode hex="00CB"/>
  <outline>
    <contour>
      <point x="144" y="356" type="curve"/>
      <point x="240" y="356"/>
      <point x="335" y="356"/>
      <point x="432" y="356" type="curve"/>
      <point x="432" y="391"/>
      <point x="432" y="356"/>
      <point x="432" y="391" type="curve"/>
      <point x="335" y="391"/>
      <point x="240" y="391"/>
      <point x="144" y="391" type="curve"/>
      <point x="144" y="356"/>
      <point x="144" y="391"/>
    </contour>
    <contour>
      <point x="131" y="687" type="curve"/>
      <point x="250" y="687"/>
      <point x="368" y="687"/>
      <point x="487" y="687" type="curve"/>
      <point x="487" y="722"/>
      <point x="487" y="687"/>
      <point x="487" y="722" type="curve"/>
      <point x="368" y="722"/>
      <point x="250" y="722"/>
      <point x="131" y="722" type="curve"/>
      <point x="131" y="687"/>
      <point x="131" y="722"/>
    </contour>
    <contour>
      <point x="160" y="0" type="curve"/>
      <point x="160" y="722" type="line"/>
      <point x="118" y="722"/>
      <point x="160" y="722"/>
      <point x="118" y="722" type="curve"/>
      <point x="118" y="481"/>
      <point x="118" y="241"/>
      <point x="118" y="0" type="curve"/>
      <point x="160" y="0"/>
      <point x="118" y="0"/>
    </contour>
    <contour>
      <point x="131" y="0" type="curve"/>
      <point x="260" y="0"/>
      <point x="388" y="0"/>
      <point x="516" y="0" type="curve"/>
      <point x="516" y="35"/>
      <point x="516" y="0"/>
      <point x="516" y="35" type="curve"/>
      <point x="388" y="35"/>
      <point x="260" y="35"/>
      <point x="131" y="35" type="curve"/>
      <point x="131" y="0"/>
      <point x="131" y="35"/>
    </contour>
    <contour>
      <point x="241" y="841" type="curve"/>
      <point x="241" y="858"/>
      <point x="230" y="866"/>
      <point x="214" y="866" type="curve"/>
      <point x="197" y="866"/>
      <point x="187" y="857"/>
      <point x="187" y="841" type="curve"/>
      <point x="236" y="841"/>
      <point x="193" y="841"/>
      <point x="241" y="841" type="curve"/>
      <point x="241" y="824"/>
      <point x="230" y="816"/>
      <point x="214" y="816" type="curve"/>
      <point x="197" y="816"/>
      <point x="187" y="825"/>
      <point x="187" y="841" type="curve"/>
      <point x="236" y="841"/>
      <point x="193" y="841"/>
    </contour>
    <contour>
      <point x="361" y="841" type="curve"/>
      <point x="361" y="858"/>
      <point x="350" y="866"/>
      <point x="334" y="866" type="curve"/>
      <point x="318" y="866"/>
      <point x="308" y="857"/>
      <point x="308" y="841" type="curve"/>
      <point x="356" y="841"/>
      <point x="313" y="841"/>
      <point x="361" y="841" type="curve"/>
      <point x="361" y="824"/>
      <point x="350" y="816"/>
      <point x="334" y="816" type="curve"/>
      <point x="317" y="816"/>
      <point x="308" y="825"/>
      <point x="308" y="841" type="curve"/>
      <point x="356" y="841"/>
      <point x="313" y="841"/>
    </contour>
  </outline>
</glyph>
<glyph name="Igrave" format="1">
  <advance width="288"/>
  <unicode hex="00CC"/>
  <outline>
    <contour>
      <point x="168" y="0" type="curve"/>
      <point x="168" y="241"/>
      <point x="168" y="481"/>
      <point x="168" y="722" type="curve"/>
      <point x="125" y="722"/>
      <point x="168" y="722"/>
      <point x="125" y="722" type="curve"/>
      <point x="125" y="481"/>
      <point x="125" y="241"/>
      <point x="125" y="0" type="curve"/>
      <point x="168" y="0"/>
      <point x="125" y="0"/>
    </contour>
    <contour>
      <point x="171" y="818" type="line"/>
      <point x="73" y="984" type="line"/>
      <point x="17" y="984" type="line"/>
      <point x="129" y="818" type="line"/>
    </contour>
  </outline>
</glyph>
<glyph name="Iacute" format="1">
  <advance width="284"/>
  <unicode hex="00CD"/>
  <outline>
    <contour>
      <point x="160" y="0" type="curve"/>
      <point x="160" y="241"/>
      <point x="160" y="481"/>
      <point x="160" y="722" type="curve"/>
      <point x="118" y="722"/>
      <point x="160" y="722"/>
      <point x="118" y="722" type="curve"/>
      <point x="118" y="481"/>
      <point x="118" y="241"/>
      <point x="118" y="0" type="curve"/>
      <point x="160" y="0"/>
      <point x="118" y="0"/>
    </contour>
    <contour>
      <point x="160" y="818" type="line"/>
      <point x="271" y="984" type="line"/>
      <point x="216" y="984" type="line"/>
      <point x="117" y="818" type="line"/>
    </contour>
  </outline>
</glyph>
<glyph name="Icircumflex" format="1">
  <advance width="279"/>
  <unicode hex="00CE"/>
  <outline>
    <contour>
      <point x="165" y="0" type="curve"/>
      <point x="165" y="241"/>
      <point x="165" y="481"/>
      <point x="165" y="722" type="curve"/>
      <point x="123" y="722"/>
      <point x="165" y="722"/>
      <point x="123" y="722" type="curve"/>
      <point x="123" y="481"/>
      <point x="123" y="241"/>
      <point x="123" y="0" type="curve"/>
      <point x="165" y="0"/>
      <point x="123" y="0"/>
    </contour>
    <contour>
      <point x="52" y="818" type="line"/>
      <point x="164" y="984" type="line"/>
      <point x="108" y="984" type="line"/>
      <point x="10" y="818" type="line"/>
    </contour>
    <contour>
      <point x="279" y="818" type="line"/>
      <point x="180" y="984" type="line"/>
      <point x="125" y="984" type="line"/>
      <point x="236" y="818" type="line"/>
    </contour>
  </outline>
</glyph>
<glyph name="Idieresis" format="1">
  <advance width="232"/>
  <unicode hex="00CF"/>
  <outline>
    <contour>
      <point x="139" y="0" type="curve"/>
      <point x="139" y="241"/>
      <point x="139" y="481"/>
      <point x="139" y="722" type="curve"/>
      <point x="97" y="722"/>
      <point x="139" y="722"/>
      <point x="97" y="722" type="curve"/>
      <point x="97" y="481"/>
      <point x="97" y="241"/>
      <point x="97" y="0" type="curve"/>
      <point x="139" y="0"/>
      <point x="97" y="0"/>
    </contour>
    <contour>
      <point x="86" y="841" type="curve"/>
      <point x="86" y="858"/>
      <point x="74" y="866"/>
      <point x="58" y="866" type="curve"/>
      <point x="42" y="866"/>
      <point x="32" y="857"/>
      <point x="32" y="841" type="curve"/>
      <point x="80" y="841"/>
      <point x="37" y="841"/>
      <point x="86" y="841" type="curve"/>
      <point x="86" y="824"/>
      <point x="75" y="816"/>
      <point x="58" y="816" type="curve"/>
      <point x="42" y="816"/>
      <point x="32" y="825"/>
      <point x="32" y="841" type="curve"/>
      <point x="80" y="841"/>
      <point x="37" y="841"/>
    </contour>
    <contour>
      <point x="206" y="841" type="curve"/>
      <point x="206" y="858"/>
      <point x="195" y="866"/>
      <point x="178" y="866" type="curve"/>
      <point x="162" y="866"/>
      <point x="152" y="857"/>
      <point x="152" y="841" type="curve"/>
      <point x="200" y="841"/>
      <point x="157" y="841"/>
      <point x="206" y="841" type="curve"/>
      <point x="206" y="824"/>
      <point x="195" y="816"/>
      <point x="178" y="816" type="curve"/>
      <point x="162" y="816"/>
      <point x="152" y="825"/>
      <point x="152" y="841" type="curve"/>
      <point x="200" y="841"/>
      <point x="157" y="841"/>
    </contour>
  </outline>
</glyph>
<glyph name="Ntilde" format="1">
  <advance width="755"/>
  <unicode hex="00D1"/>
  <outline>
    <contour>
      <point x="636" y="0" type="curve"/>
      <point x="479" y="241"/>
      <point x="323" y="481"/>
      <point x="167" y="722" type="curve"/>
      <point x="119" y="722"/>
      <point x="167" y="722"/>
      <point x="119" y="722" type="curve"/>
      <point x="275" y="481"/>
      <point x="431" y="241"/>
      <point x="587" y="0" type="curve"/>
      <point x="635" y="0"/>
      <point x="587" y="0"/>
    </contour>
    <contour>
      <point x="594" y="722" type="curve"/>
      <point x="594" y="481"/>
      <point x="594" y="241"/>
      <point x="594" y="0" type="curve"/>
      <point x="636" y="0"/>
      <point x="594" y="0"/>
      <point x="636" y="0" type="curve"/>
      <point x="636" y="241"/>
      <point x="636" y="481"/>
      <point x="636" y="722" type="curve"/>
      <point x="594" y="722"/>
      <point x="636" y="722"/>
    </contour>
    <contour>
      <point x="162" y="0" type="curve"/>
      <point x="162" y="241"/>
      <point x="162" y="481"/>
      <point x="162" y="722" type="curve"/>
      <point x="119" y="722"/>
      <point x="162" y="722"/>
      <point x="119" y="722" type="curve"/>
      <point x="119" y="481"/>
      <point x="119" y="241"/>
      <point x="119" y="0" type="curve"/>
      <point x="162" y="0"/>
      <point x="119" y="0"/>
    </contour>
    <contour>
      <point x="527" y="952" type="curve"/>
      <point x="515" y="902"/>
      <point x="504" y="856"/>
      <point x="467" y="856" type="curve"/>
      <point x="433" y="856"/>
      <point x="415" y="875"/>
      <point x="393" y="902" type="curve"/>
      <point x="367" y="932"/>
      <point x="348" y="954"/>
      <point x="309" y="954" type="curve"/>
      <point x="246" y="954"/>
      <point x="225" y="899"/>
      <point x="211" y="832" type="curve"/>
      <point x="244" y="818"/>
      <point x="212" y="832"/>
      <point x="244" y="818" type="curve"/>
      <point x="256" y="872"/>
      <point x="269" y="914"/>
      <point x="313" y="914" type="curve"/>
      <point x="344" y="914"/>
      <point x="358" y="895"/>
      <point x="377" y="871" type="curve"/>
      <point x="404" y="839"/>
      <point x="427" y="817"/>
      <point x="469" y="817" type="curve"/>
      <point x="532" y="817"/>
      <point x="546" y="875"/>
      <point x="562" y="940" type="curve"/>
      <point x="527" y="952"/>
      <point x="562" y="940"/>
    </contour>
  </outline>
</glyph>
<glyph name="Otilde" format="1">
  <advance width="682"/>
  <unicode hex="00D5"/>
  <outline>
    <contour>
      <point x="110" y="360" type="curve" name="FullCurve"/>
      <point x="110" y="544"/>
      <point x="170" y="690"/>
      <point x="339" y="690" type="curve" name="FullCurve"/>
      <point x="508" y="690"/>
      <point x="572" y="547"/>
      <point x="572" y="363" type="curve" name="FullCurve"/>
      <point x="572" y="180"/>
      <point x="511" y="32"/>
      <point x="342" y="32" type="curve" name="FullCurve"/>
      <point x="172" y="32"/>
      <point x="110" y="175"/>
      <point x="110" y="360" type="curve" name="FullCurve"/>
      <point x="67" y="360"/>
      <point x="110" y="360"/>
      <point x="67" y="360" type="curve" name="FullCurve"/>
      <point x="67" y="152"/>
      <point x="148" y="-5"/>
      <point x="341" y="-5" type="curve" name="FullCurve"/>
      <point x="534" y="-5"/>
      <point x="615" y="153"/>
      <point x="615" y="363" type="curve" name="FullCurve"/>
      <point x="615" y="570"/>
      <point x="534" y="727"/>
      <point x="341" y="727" type="curve" name="FullCurve"/>
      <point x="148" y="727"/>
      <point x="67" y="569"/>
      <point x="67" y="360" type="curve" name="FullCurve"/>
      <point x="110" y="360"/>
      <point x="67" y="360"/>
    </contour>
    <contour>
      <point x="482" y="952" type="curve"/>
      <point x="470" y="902"/>
      <point x="459" y="856"/>
      <point x="422" y="856" type="curve"/>
      <point x="387" y="856"/>
      <point x="369" y="875"/>
      <point x="348" y="902" type="curve"/>
      <point x="322" y="932"/>
      <point x="303" y="954"/>
      <point x="264" y="954" type="curve"/>
      <point x="200" y="954"/>
      <point x="180" y="899"/>
      <point x="166" y="832" type="curve"/>
      <point x="199" y="818"/>
      <point x="166" y="832"/>
      <point x="199" y="818" type="curve"/>
      <point x="211" y="872"/>
      <point x="224" y="914"/>
      <point x="267" y="914" type="curve"/>
      <point x="298" y="914"/>
      <point x="312" y="895"/>
      <point x="331" y="871" type="curve"/>
      <point x="359" y="839"/>
      <point x="382" y="817"/>
      <point x="424" y="817" type="curve"/>
      <point x="486" y="817"/>
      <point x="500" y="875"/>
      <point x="517" y="940" type="curve"/>
      <point x="482" y="952"/>
      <point x="517" y="940"/>
    </contour>
  </outline>
</glyph>
<glyph name="multiply" format="1">
  <advance width="525"/>
  <unicode hex="00D7"/>
  <outline>
    <contour>
      <point x="93" y="111" type="line"/>
      <point x="459" y="480" type="line"/>
      <point x="432" y="506" type="line"/>
      <point x="66" y="138" type="line"/>
    </contour>
    <contour>
      <point x="460" y="137" type="line"/>
      <point x="93" y="507" type="line"/>
      <point x="66" y="480" type="line"/>
      <point x="433" y="110" type="line"/>
    </contour>
  </outline>
</glyph>
<glyph name="Ugrave" format="1">
  <advance width="699"/>
  <unicode hex="00D9"/>
  <outline>
    <contour>
      <point x="109" y="721" type="curve"/>
      <point x="109" y="567"/>
      <point x="109" y="426"/>
      <point x="109" y="272" type="curve"/>
      <point x="109" y="95"/>
      <point x="179" y="-5"/>
      <point x="350" y="-5" type="curve"/>
      <point x="518" y="-5"/>
      <point x="589" y="93"/>
      <point x="589" y="267" type="curve"/>
      <point x="589" y="423"/>
      <point x="589" y="565"/>
      <point x="589" y="721" type="curve"/>
      <point x="554" y="721"/>
      <point x="585" y="721"/>
      <point x="550" y="721" type="curve"/>
      <point x="550" y="562"/>
      <point x="550" y="420"/>
      <point x="550" y="261" type="curve"/>
      <point x="550" y="118"/>
      <point x="490" y="34"/>
      <point x="353" y="34" type="curve"/>
      <point x="206" y="34"/>
      <point x="148" y="123"/>
      <point x="148" y="278" type="curve"/>
      <point x="148" y="431"/>
      <point x="148" y="569"/>
      <point x="148" y="721" type="curve"/>
      <point x="113" y="721"/>
      <point x="145" y="721"/>
    </contour>
    <contour>
      <point x="377" y="818" type="line"/>
      <point x="278" y="984" type="line"/>
      <point x="223" y="984" type="line"/>
      <point x="334" y="818" type="line"/>
    </contour>
  </outline>
</glyph>
<glyph name="Udieresis" format="1">
  <advance width="699"/>
  <unicode hex="00DC"/>
  <outline>
    <contour>
      <point x="109" y="721" type="curve"/>
      <point x="109" y="567"/>
      <point x="109" y="426"/>
      <point x="109" y="272" type="curve"/>
      <point x="109" y="95"/>
      <point x="179" y="-5"/>
      <point x="350" y="-5" type="curve"/>
      <point x="518" y="-5"/>
      <point x="589" y="93"/>
      <point x="589" y="267" type="curve"/>
      <point x="589" y="423"/>
      <point x="589" y="565"/>
      <point x="589" y="721" type="curve"/>
      <point x="554" y="721"/>
      <point x="585" y="721"/>
      <point x="550" y="721" type="curve"/>
      <point x="550" y="562"/>
      <point x="550" y="420"/>
      <point x="550" y="261" type="curve"/>
      <point x="550" y="118"/>
      <point x="490" y="34"/>
      <point x="353" y="34" type="curve"/>
      <point x="206" y="34"/>
      <point x="148" y="123"/>
      <point x="148" y="278" type="curve"/>
      <point x="148" y="431"/>
      <point x="148" y="569"/>
      <point x="148" y="721" type="curve"/>
      <point x="113" y="721"/>
      <point x="145" y="721"/>
    </contour>
    <contour>
      <point x="320" y="841" type="curve"/>
      <point x="320" y="858"/>
      <point x="309" y="866"/>
      <point x="293" y="866" type="curve"/>
      <point x="276" y="866"/>
      <point x="266" y="857"/>
      <point x="266" y="841" type="curve"/>
      <point x="315" y="841"/>
      <point x="272" y="841"/>
      <point x="320" y="841" type="curve"/>
      <point x="320" y="824"/>
      <point x="309" y="816"/>
      <point x="293" y="816" type="curve"/>
      <point x="276" y="816"/>
      <point x="266" y="825"/>
      <point x="266" y="841" type="curve"/>
      <point x="315" y="841"/>
      <point x="272" y="841"/>
    </contour>
    <contour>
      <point x="440" y="841" type="curve"/>
      <point x="440" y="858"/>
      <point x="429" y="866"/>
      <point x="413" y="866" type="curve"/>
      <point x="396" y="866"/>
      <point x="387" y="857"/>
      <point x="387" y="841" type="curve"/>
      <point x="435" y="841"/>
      <point x="392" y="841"/>
      <point x="440" y="841" type="curve"/>
      <point x="440" y="824"/>
      <point x="429" y="816"/>
      <point x="413" y="816" type="curve"/>
      <point x="396" y="816"/>
      <point x="387" y="825"/>
      <point x="387" y="841" type="curve"/>
      <point x="435" y="841"/>
      <point x="392" y="841"/>
    </contour>
  </outline>
</glyph>
<glyph name="Thorn" format="1">
  <advance width="525"/>
  <unicode hex="00DE"/>
  <outline>
    <contour>
      <point x="135" y="223" type="curve"/>
      <point x="180" y="197"/>
      <point x="225" y="177"/>
      <point x="280" y="177" type="curve"/>
      <point x="404" y="180"/>
      <point x="478" y="260"/>
      <point x="478" y="392" type="curve"/>
      <point x="478" y="527"/>
      <point x="394" y="616"/>
      <point x="257" y="616" type="curve"/>
      <point x="219" y="616"/>
      <point x="181" y="616"/>
      <point x="143" y="616" type="curve"/>
      <point x="143" y="581"/>
      <point x="143" y="616"/>
      <point x="143" y="581" type="curve"/>
      <point x="179" y="581"/>
      <point x="215" y="581"/>
      <point x="251" y="581" type="curve"/>
      <point x="367" y="581"/>
      <point x="436" y="505"/>
      <point x="436" y="390" type="curve"/>
      <point x="436" y="285"/>
      <point x="379" y="213"/>
      <point x="279" y="213" type="curve"/>
      <point x="227" y="213"/>
      <point x="193" y="229"/>
      <point x="149" y="254" type="curve"/>
      <point x="135" y="224"/>
      <point x="149" y="254"/>
    </contour>
    <contour>
      <point x="161" y="0" type="curve"/>
      <point x="161" y="241"/>
      <point x="161" y="481"/>
      <point x="161" y="722" type="curve"/>
      <point x="119" y="722"/>
      <point x="161" y="722"/>
      <point x="119" y="722" type="curve"/>
      <point x="119" y="481"/>
      <point x="119" y="241"/>
      <point x="119" y="0" type="curve"/>
      <point x="161" y="0"/>
      <point x="119" y="0"/>
    </contour>
  </outline>
</glyph>
<glyph name="germandbls" format="1">
  <advance width="525"/>
  <unicode hex="00DF"/>
  <outline>
    <contour>
      <point x="143" y="0" type="curve"/>
      <point x="143" y="205"/>
      <point x="143" y="409"/>
      <point x="143" y="614" type="curve"/>
      <point x="101" y="614"/>
      <point x="143" y="614"/>
      <point x="101" y="614" type="curve"/>
      <point x="101" y="409"/>
      <point x="101" y="205"/>
      <point x="101" y="0" type="curve"/>
      <point x="143" y="0"/>
      <point x="101" y="0"/>
    </contour>
    <contour>
      <point x="143" y="614" type="curve"/>
      <point x="143" y="704"/>
      <point x="186" y="768"/>
      <point x="270" y="768" type="curve"/>
      <point x="356" y="768"/>
      <point x="409" y="712"/>
      <point x="409" y="622" type="curve"/>
      <point x="409" y="532"/>
      <point x="348" y="475"/>
      <point x="258" y="475" type="curve"/>
      <point x="258" y="446"/>
      <point x="258" y="475"/>
      <point x="258" y="446" type="curve"/>
      <point x="373" y="446"/>
      <point x="449" y="510"/>
      <point x="449" y="623" type="curve"/>
      <point x="449" y="735"/>
      <point x="383" y="803"/>
      <point x="272" y="803" type="curve"/>
      <point x="162" y="803"/>
      <point x="101" y="727"/>
      <point x="101" y="614" type="curve"/>
      <point x="143" y="614"/>
      <point x="101" y="614"/>
    </contour>
    <contour>
      <point x="344" y="85" type="curve"/>
      <point x="432" y="109"/>
      <point x="477" y="172"/>
      <point x="477" y="275" type="curve"/>
      <point x="477" y="400"/>
      <point x="396" y="475"/>
      <point x="258" y="475" type="curve"/>
      <point x="258" y="446"/>
      <point x="258" y="475"/>
      <point x="258" y="446" type="curve"/>
      <point x="357" y="446"/>
      <point x="438" y="384"/>
      <point x="438" y="274" type="curve"/>
      <point x="438" y="193"/>
      <point x="397" y="141"/>
      <point x="332" y="120" type="curve"/>
      <point x="344" y="85"/>
      <point x="332" y="120"/>
    </contour>
  </outline>
</glyph>
<glyph name="adieresis" format="1">
  <advance width="498"/>
  <unicode hex="00E4"/>
  <outline>
    <contour>
      <point x="403" y="0" type="curve"/>
      <point x="403" y="129"/>
      <point x="403" y="258"/>
      <point x="403" y="387" type="curve"/>
      <point x="403" y="493"/>
      <point x="348" y="538"/>
      <point x="246" y="538" type="curve"/>
      <point x="167" y="538"/>
      <point x="112" y="503"/>
      <point x="72" y="464" type="curve"/>
      <point x="92" y="435"/>
      <point x="72" y="463"/>
      <point x="92" y="435" type="curve"/>
      <point x="124" y="465"/>
      <point x="173" y="502"/>
      <point x="240" y="502" type="curve"/>
      <point x="321" y="502"/>
      <point x="361" y="465"/>
      <point x="361" y="378" type="curve"/>
      <point x="361" y="252"/>
      <point x="361" y="126"/>
      <point x="361" y="0" type="curve"/>
      <point x="403" y="0"/>
      <point x="361" y="0"/>
    </contour>
    <contour>
      <point x="380" y="325" type="curve"/>
      <point x="312" y="314"/>
      <point x="275" y="309"/>
      <point x="207" y="299" type="curve"/>
      <point x="115" y="284"/>
      <point x="57" y="239"/>
      <point x="57" y="144" type="curve"/>
      <point x="57" y="52"/>
      <point x="101" y="-5"/>
      <point x="195" y="-5" type="curve"/>
      <point x="299" y="-5"/>
      <point x="345" y="68"/>
      <point x="394" y="151" type="curve"/>
      <point x="371" y="172"/>
      <point x="395" y="151"/>
      <point x="372" y="172" type="curve"/>
      <point x="334" y="99"/>
      <point x="288" y="30"/>
      <point x="204" y="30" type="curve"/>
      <point x="129" y="30"/>
      <point x="98" y="74"/>
      <point x="98" y="146" type="curve"/>
      <point x="98" y="219"/>
      <point x="141" y="256"/>
      <point x="206" y="267" type="curve"/>
      <point x="276" y="278"/>
      <point x="312" y="283"/>
      <point x="383" y="294" type="curve"/>
      <point x="380" y="325"/>
      <point x="383" y="294"/>
    </contour>
    <contour>
      <point x="213" y="685" type="curve"/>
      <point x="213" y="701"/>
      <point x="202" y="710"/>
      <point x="185" y="710" type="curve"/>
      <point x="169" y="710"/>
      <point x="159" y="700"/>
      <point x="159" y="685" type="curve"/>
      <point x="207" y="685"/>
      <point x="165" y="685"/>
      <point x="213" y="685" type="curve"/>
      <point x="213" y="668"/>
      <point x="202" y="659"/>
      <point x="185" y="659" type="curve"/>
      <point x="169" y="659"/>
      <point x="159" y="668"/>
      <point x="159" y="685" type="curve"/>
      <point x="207" y="685"/>
      <point x="165" y="685"/>
    </contour>
    <contour>
      <point x="333" y="685" type="curve"/>
      <point x="333" y="701"/>
      <point x="322" y="710"/>
      <point x="305" y="710" type="curve"/>
      <point x="289" y="710"/>
      <point x="279" y="700"/>
      <point x="279" y="685" type="curve"/>
      <point x="328" y="685"/>
      <point x="285" y="685"/>
      <point x="333" y="685" type="curve"/>
      <point x="333" y="668"/>
      <point x="322" y="659"/>
      <point x="305" y="659" type="curve"/>
      <point x="289" y="659"/>
      <point x="279" y="668"/>
      <point x="279" y="685" type="curve"/>
      <point x="328" y="685"/>
      <point x="285" y="685"/>
    </contour>
  </outline>
</glyph>
<glyph name="aring" format="1">
  <advance width="499"/>
  <unicode hex="00E5"/>
  <outline>
    <contour>
      <point x="403" y="0" type="curve"/>
      <point x="403" y="129"/>
      <point x="403" y="258"/>
      <point x="403" y="387" type="curve"/>
      <point x="403" y="493"/>
      <point x="348" y="538"/>
      <point x="246" y="538" type="curve"/>
      <point x="167" y="538"/>
      <point x="112" y="503"/>
      <point x="72" y="464" type="curve"/>
      <point x="92" y="435"/>
      <point x="72" y="463"/>
      <point x="92" y="435" type="curve"/>
      <point x="124" y="465"/>
      <point x="173" y="502"/>
      <point x="240" y="502" type="curve"/>
      <point x="321" y="502"/>
      <point x="361" y="465"/>
      <point x="361" y="378" type="curve"/>
      <point x="361" y="252"/>
      <point x="361" y="126"/>
      <point x="361" y="0" type="curve"/>
      <point x="403" y="0"/>
      <point x="361" y="0"/>
    </contour>
    <contour>
      <point x="380" y="325" type="curve"/>
      <point x="312" y="314"/>
      <point x="275" y="309"/>
      <point x="207" y="299" type="curve"/>
      <point x="115" y="284"/>
      <point x="57" y="239"/>
      <point x="57" y="144" type="curve"/>
      <point x="57" y="52"/>
      <point x="101" y="-5"/>
      <point x="195" y="-5" type="curve"/>
      <point x="299" y="-5"/>
      <point x="345" y="68"/>
      <point x="394" y="151" type="curve"/>
      <point x="371" y="172"/>
      <point x="395" y="151"/>
      <point x="372" y="172" type="curve"/>
      <point x="334" y="99"/>
      <point x="288" y="30"/>
      <point x="204" y="30" type="curve"/>
      <point x="129" y="30"/>
      <point x="98" y="74"/>
      <point x="98" y="146" type="curve"/>
      <point x="98" y="219"/>
      <point x="141" y="256"/>
      <point x="206" y="267" type="curve"/>
      <point x="276" y="278"/>
      <point x="312" y="283"/>
      <point x="383" y="294" type="curve"/>
      <point x="380" y="325"/>
      <point x="383" y="294"/>
    </contour>
    <contour>
      <point x="137" y="782" type="curve"/>
      <point x="137" y="709"/>
      <point x="176" y="661"/>
      <point x="246" y="661" type="curve"/>
      <point x="318" y="661"/>
      <point x="358" y="708"/>
      <point x="358" y="782" type="curve"/>
      <point x="358" y="855"/>
      <point x="317" y="903"/>
      <point x="244" y="903" type="curve"/>
      <point x="174" y="903"/>
      <point x="137" y="855"/>
      <point x="137" y="782" type="curve"/>
      <point x="175" y="782"/>
      <point x="135" y="782"/>
      <point x="174" y="782" type="curve"/>
      <point x="174" y="833"/>
      <point x="195" y="870"/>
      <point x="244" y="870" type="curve"/>
      <point x="295" y="870"/>
      <point x="320" y="835"/>
      <point x="320" y="782" type="curve"/>
      <point x="320" y="730"/>
      <point x="296" y="693"/>
      <point x="246" y="693" type="curve"/>
      <point x="196" y="693"/>
      <point x="174" y="730"/>
      <point x="174" y="782" type="curve"/>
      <point x="135" y="782"/>
      <point x="175" y="782"/>
    </contour>
  </outline>
</glyph>
